<svg width="176" height="40" viewBox="0 0 176 40" fill="none" xmlns="http://www.w3.org/2000/svg">
<path d="M59.9956 26.6443V12.945C59.9956 12.6589 60.0968 12.4132 60.2992 12.2078C60.5015 12.0024 60.7489 11.8997 61.0412 11.8997H69.6195C74.1541 11.8997 76.4215 13.9463 76.4215 18.0396C76.4215 22.1256 74.1541 24.1685 69.6195 24.1685H64.2342V26.6443C64.2342 26.9304 64.1292 27.1762 63.9194 27.3816C63.717 27.5796 63.4697 27.6787 63.1773 27.6787H61.0637C60.7714 27.6787 60.5203 27.5796 60.3104 27.3816C60.1005 27.1762 59.9956 26.9304 59.9956 26.6443ZM64.2342 21.0546H68.3378C69.597 21.0546 70.5527 20.8492 71.2048 20.4384C71.8568 20.0202 72.1829 19.2206 72.1829 18.0396C72.1829 16.8512 71.8568 16.0516 71.2048 15.6408C70.5527 15.2227 69.597 15.0136 68.3378 15.0136H64.2342V21.0546Z" fill="white"/>
<path d="M79.3334 26.3142C78.1641 25.2579 77.5795 23.7027 77.5795 21.6487C77.5795 19.5874 78.1641 18.0323 79.3334 16.9833C80.5026 15.9269 82.1816 15.3988 84.3702 15.3988C86.5663 15.3988 88.249 15.9269 89.4182 16.9833C90.5875 18.0323 91.1721 19.5874 91.1721 21.6487C91.1721 23.7027 90.5875 25.2579 89.4182 26.3142C88.249 27.3706 86.5663 27.8987 84.3702 27.8987C82.1816 27.8987 80.5026 27.3706 79.3334 26.3142ZM82.1778 18.7878C81.7131 19.382 81.4807 20.332 81.4807 21.6377C81.4807 22.9435 81.7131 23.8971 82.1778 24.4986C82.6425 25.1002 83.3733 25.4009 84.3702 25.4009C85.3745 25.4009 86.1091 25.1002 86.5738 24.4986C87.046 23.8971 87.2821 22.9435 87.2821 21.6377C87.2821 20.332 87.046 19.382 86.5738 18.7878C86.1091 18.1937 85.3745 17.8966 84.3702 17.8966C83.3733 17.8966 82.6425 18.1937 82.1778 18.7878Z" fill="white"/>
<path d="M101.774 18.4137L100.043 18.3477C99.0309 18.3477 98.064 18.8905 97.1421 19.9762V27.0074C97.1421 27.2055 97.0746 27.3669 96.9397 27.4916C96.8123 27.6163 96.6511 27.6787 96.4563 27.6787H93.9379C93.7355 27.6787 93.5706 27.6163 93.4432 27.4916C93.3158 27.3669 93.252 27.2055 93.252 27.0074V16.3011C93.252 16.103 93.3158 15.9416 93.4432 15.8169C93.5781 15.6849 93.743 15.6188 93.9379 15.6188H96.4563C96.6586 15.6188 96.8235 15.6849 96.951 15.8169C97.0784 15.9416 97.1421 16.103 97.1421 16.3011V16.9943C97.9066 16.4514 98.6411 16.0516 99.3457 15.7949C100.058 15.5308 100.987 15.3988 102.134 15.3988C102.336 15.3988 102.501 15.4648 102.629 15.5968C102.764 15.7215 102.831 15.8793 102.831 16.07V17.7425C102.831 17.9406 102.764 18.102 102.629 18.2267C102.501 18.3514 102.336 18.4137 102.134 18.4137H101.774Z" fill="white"/>
<path d="M110.319 25.2909L111.859 25.1589H112.275C112.477 25.1589 112.642 25.2212 112.77 25.3459C112.905 25.4706 112.972 25.632 112.972 25.8301V27.0074C112.972 27.1688 112.905 27.3155 112.77 27.4476C112.642 27.5723 112.477 27.6493 112.275 27.6787C111.51 27.8254 110.514 27.8987 109.284 27.8987C106.061 27.8987 104.45 26.2482 104.45 22.9472V12.5819C104.45 12.3838 104.514 12.2224 104.641 12.0977C104.776 11.9657 104.941 11.8997 105.136 11.8997H107.654C107.849 11.8997 108.01 11.9657 108.138 12.0977C108.273 12.2224 108.34 12.3838 108.34 12.5819V16.257H111.477C111.672 16.257 111.833 16.3194 111.96 16.4441C112.095 16.5688 112.163 16.7302 112.163 16.9283V18.2377C112.163 18.4357 112.095 18.5971 111.96 18.7218C111.833 18.8465 111.672 18.9089 111.477 18.9089H108.34V22.9472C108.34 23.6954 108.52 24.2749 108.88 24.6857C109.239 25.0892 109.719 25.2909 110.319 25.2909Z" fill="white"/>
<path d="M115.041 26.6443V12.945C115.041 12.6589 115.142 12.4132 115.344 12.2078C115.547 12.0024 115.794 11.8997 116.086 11.8997H124.665C129.199 11.8997 131.467 13.9463 131.467 18.0396C131.467 22.1256 129.199 24.1685 124.665 24.1685H119.279V26.6443C119.279 26.9304 119.174 27.1762 118.965 27.3816C118.762 27.5796 118.515 27.6787 118.222 27.6787H116.109C115.816 27.6787 115.565 27.5796 115.356 27.3816C115.146 27.1762 115.041 26.9304 115.041 26.6443ZM119.279 21.0546H123.383C124.642 21.0546 125.598 20.8492 126.25 20.4384C126.902 20.0202 127.228 19.2206 127.228 18.0396C127.228 16.8512 126.902 16.0516 126.25 15.6408C125.598 15.2227 124.642 15.0136 123.383 15.0136H119.279V21.0546Z" fill="white"/>
<path d="M134.378 26.3142C133.209 25.2579 132.625 23.7027 132.625 21.6487C132.625 19.5874 133.209 18.0323 134.378 16.9833C135.548 15.9269 137.227 15.3988 139.415 15.3988C141.611 15.3988 143.294 15.9269 144.463 16.9833C145.633 18.0323 146.217 19.5874 146.217 21.6487C146.217 23.7027 145.633 25.2579 144.463 26.3142C143.294 27.3706 141.611 27.8987 139.415 27.8987C137.227 27.8987 135.548 27.3706 134.378 26.3142ZM137.223 18.7878C136.758 19.382 136.526 20.332 136.526 21.6377C136.526 22.9435 136.758 23.8971 137.223 24.4986C137.688 25.1002 138.418 25.4009 139.415 25.4009C140.42 25.4009 141.154 25.1002 141.619 24.4986C142.091 23.8971 142.327 22.9435 142.327 21.6377C142.327 20.332 142.091 19.382 141.619 18.7878C141.154 18.1937 140.42 17.8966 139.415 17.8966C138.418 17.8966 137.688 18.1937 137.223 18.7878Z" fill="white"/>
<path d="M147.6 18.9529C147.6 16.5835 149.553 15.3988 153.458 15.3988C157.565 15.3988 159.619 16.4514 159.619 18.5568C159.619 18.7475 159.555 18.9089 159.428 19.0409C159.3 19.1656 159.135 19.228 158.933 19.228H157.258C156.718 19.228 156.265 19.0079 155.897 18.5678C155.53 18.1203 154.807 17.8966 153.727 17.8966C152.243 17.8966 151.501 18.2487 151.501 18.9529C151.501 19.283 151.79 19.5581 152.367 19.7782C152.952 19.9982 153.66 20.1926 154.492 20.3613C155.331 20.5227 156.167 20.7318 156.999 20.9885C157.831 21.2453 158.536 21.6561 159.113 22.2209C159.697 22.7784 159.99 23.4863 159.99 24.3446C159.99 26.714 157.929 27.8987 153.806 27.8987C149.684 27.8987 147.623 26.8497 147.623 24.7517C147.623 24.5537 147.686 24.3923 147.814 24.2676C147.949 24.1355 148.117 24.0695 148.32 24.0695H149.995C150.535 24.0695 150.988 24.2933 151.355 24.7407C151.723 25.1809 152.446 25.4009 153.525 25.4009C155.242 25.4009 156.1 25.0488 156.1 24.3446C156.1 24.0145 155.807 23.7394 155.223 23.5193C154.646 23.2993 153.937 23.1049 153.098 22.9362C152.258 22.7601 151.423 22.5474 150.591 22.298C149.766 22.0412 149.062 21.6304 148.477 21.0656C147.892 20.5007 147.6 19.7965 147.6 18.9529Z" fill="white"/>
<path d="M49.1293 13.0706C50.9669 14.9085 51.9992 17.4009 51.9992 19.9998C51.9992 22.5987 50.9669 25.0912 49.1293 26.929L38.9307 37.1254C38.0207 38.0355 36.9403 38.7573 35.7513 39.2499C34.5623 39.7424 33.288 39.9959 32.001 39.9959C30.714 39.9959 29.4396 39.7424 28.2506 39.2499C27.0616 38.7573 25.9813 38.0355 25.0712 37.1254L14.8694 26.9258C13.0318 25.0879 11.9995 22.5955 11.9995 19.9966C11.9995 17.3977 13.0318 14.9052 14.8694 13.0674L25.0712 2.86878C26.909 1.03189 29.401 0 31.9994 0C34.5977 0 37.0897 1.03189 38.9275 2.86878L49.1293 13.0706Z" fill="#195B2A"/>
<path d="M37.1282 13.0727C38.9648 14.9104 39.9964 17.4021 39.9964 20.0002C39.9964 22.5983 38.9648 25.0901 37.1282 26.9278L26.9285 37.1296C25.0907 38.9669 22.5985 39.999 19.9999 39.999C17.4012 39.999 14.909 38.9669 13.0712 37.1296L2.86824 26.9278C1.03168 25.0901 0 22.5983 0 20.0002C0 17.4021 1.03168 14.9104 2.86824 13.0727L13.0712 2.87079C14.909 1.03356 17.4012 0.00146484 19.9999 0.00146484C22.5985 0.00146484 25.0907 1.03356 26.9285 2.87079L37.1282 13.0727Z" fill="#389625"/>
</svg>
