<svg fill="none" height="24" viewBox="0 0 24 24" width="24" xmlns="http://www.w3.org/2000/svg">
    <path
        d="M6 21C4.89543 21 4 20.1046 4 19L4 5C4 3.89543 4.89543 3 6 3L19 3C20.1046 3 21 3.89543 21 5L21 19C21 20.1046 20.1046 21 19 21L6 21Z"
        stroke="#022100" stroke-linecap="round" stroke-linejoin="round" stroke-width="1.4" />
    <path
        d="M13.8507 17.6494C11.3078 14.1625 11.3967 9.37817 14.0673 5.98819C14.523 5.40975 15.3762 5.43007 15.8872 5.96036L17.2462 7.37086C17.3739 7.50343 17.3692 7.71385 17.2438 7.84859C16.7944 8.33129 16.4384 8.87047 16.1762 9.44265L14.8781 9.41853C14.2987 10.969 14.2669 12.6806 14.7883 14.2515L16.0863 14.2756C16.3271 14.8572 16.6629 15.4092 17.094 15.9083C17.2144 16.0476 17.2112 16.258 17.0787 16.3858L15.6682 17.7448C15.1379 18.2557 14.2845 18.2443 13.8507 17.6494Z"
        fill="#022100" />
    <path d="M8 21L8 3" stroke="#022100" stroke-linecap="round" stroke-linejoin="round"
        stroke-width="1.4" />
    <path d="M3 8L5 8" stroke="#022100" stroke-linecap="round" stroke-linejoin="round"
        stroke-width="1.4" />
    <path d="M3 16L5 16" stroke="#022100" stroke-linecap="round" stroke-linejoin="round"
        stroke-width="1.4" />
</svg>
