<svg fill="none" height="32" viewBox="0 0 32 32" width="32" xmlns="http://www.w3.org/2000/svg">
    <circle cx="16" cy="16" fill="#2E7F1E" r="16" />
    <path
        d="M16 17C20.4183 17 24 13.4183 24 9C24 4.58172 20.4183 1 16 1C11.5817 1 8 4.58172 8 9C8 13.4183 11.5817 17 16 17Z"
        fill="white" stroke="#2E7F1E" stroke-linecap="round" stroke-linejoin="round"
        stroke-miterlimit="10" stroke-width="1.2" />
    <path
        d="M28 30.5C29.1046 30.5 30.0203 29.595 29.7898 28.5148C29.6135 27.6882 29.3271 26.8781 28.9343 26.0991C28.2307 24.7039 27.1995 23.4361 25.8995 22.3683C24.5995 21.3004 23.0561 20.4533 21.3576 19.8754C19.659 19.2975 17.8385 19 16 19C14.1615 19 12.341 19.2975 10.6424 19.8754C8.94387 20.4533 7.40052 21.3004 6.1005 22.3683C4.80048 23.4361 3.76925 24.7039 3.06569 26.0991C2.6729 26.8781 2.38653 27.6882 2.21018 28.5148C1.9797 29.595 2.89543 30.5 4 30.5L16 30.5H28Z"
        fill="white" stroke="#2E7F1E" stroke-linecap="round" stroke-linejoin="round"
        stroke-miterlimit="10" stroke-width="1.2" />
</svg>
