<svg fill="none" height="32" viewBox="0 0 32 32" width="32" xmlns="http://www.w3.org/2000/svg">
    <circle cx="16" cy="16" fill="#2E7F1E" r="16" />
    <path
        d="M28.3668 6L3.63319 6C2.17892 6 1 7.20172 1 8.68412L0.999999 23.3159C0.999999 24.7983 2.17892 26 3.63319 26L28.3668 26C29.8211 26 31 24.7983 31 23.3159L31 8.68412C31 7.20172 29.8211 6 28.3668 6Z"
        fill="white" stroke="#2E7F1E" stroke-linecap="round" stroke-linejoin="round"
        stroke-width="1.2" />
    <path
        d="M25.6067 19C25.2717 19.204 24.8895 19.3116 24.5 19.3116C24.1106 19.3116 23.7283 19.204 23.3933 19C22.6049 19.2697 21.9357 19.8185 21.5055 20.5483C21.0752 21.2781 20.9121 22.1412 21.0452 22.9832C21.1783 23.8251 21.599 24.591 22.232 25.1437C22.8649 25.6965 23.6689 26 24.5 26C25.3311 26 26.1351 25.6965 26.768 25.1437C27.401 24.591 27.8217 23.8251 27.9548 22.9832C28.0879 22.1412 27.9248 21.2781 27.4945 20.5483C27.0643 19.8185 26.3951 19.2697 25.6067 19ZM25.6067 22.4079C25.39 22.383 25.1803 22.3138 24.9902 22.2043C24.8 22.0948 24.6331 21.9474 24.4995 21.7706C24.2247 22.1221 23.8278 22.3505 23.3922 22.4079C23.1047 22.3987 22.832 22.275 22.6319 22.063C22.4317 21.851 22.3198 21.5674 22.3198 21.2722C22.3198 20.9769 22.4317 20.6933 22.6319 20.4813C22.832 20.2693 23.1047 20.1456 23.3922 20.1364C23.827 20.196 24.2232 20.424 24.4995 20.7737C24.7772 20.4258 25.1726 20.1982 25.6067 20.1364C25.8942 20.1456 26.1669 20.2693 26.3671 20.4813C26.5672 20.6933 26.6792 20.9769 26.6792 21.2722C26.6792 21.5674 26.5672 21.851 26.3671 22.063C26.1669 22.275 25.8942 22.3987 25.6067 22.4079Z"
        fill="#2E7F1E" />
    <path d="M4 23H11" stroke="#2E7F1E" stroke-linecap="round" stroke-linejoin="round"
        stroke-width="1.2" />
    <path d="M1 14H31" stroke="#2E7F1E" stroke-linecap="round" stroke-linejoin="round"
        stroke-width="1.2" />
    <path d="M4 19H8" stroke="#2E7F1E" stroke-linecap="round" stroke-linejoin="round"
        stroke-width="1.2" />
    <path d="M1 10H31" stroke="#2E7F1E" stroke-linecap="round" stroke-linejoin="round"
        stroke-width="1.2" />
</svg>
