<svg fill="none" height="32" viewBox="0 0 32 32" width="32" xmlns="http://www.w3.org/2000/svg">
    <circle cx="16" cy="16" fill="#2E7F1E" r="16" />
    <path
        d="M24.9695 19.6364C24.8082 20.002 24.76 20.4076 24.8313 20.8008C24.9026 21.194 25.0901 21.5568 25.3695 21.8425L25.4423 21.9152C25.6677 22.1404 25.8465 22.4077 25.9685 22.702C26.0905 22.9963 26.1533 23.3118 26.1533 23.6304C26.1533 23.949 26.0905 24.2644 25.9685 24.5587C25.8465 24.853 25.6677 25.1204 25.4423 25.3455C25.2171 25.5709 24.9497 25.7497 24.6555 25.8717C24.3612 25.9937 24.0457 26.0565 23.7271 26.0565C23.4085 26.0565 23.0931 25.9937 22.7988 25.8717C22.5045 25.7497 22.2371 25.5709 22.012 25.3455L21.9392 25.2728C21.6536 24.9934 21.2907 24.8059 20.8975 24.7346C20.5043 24.6633 20.0988 24.7115 19.7332 24.8728C19.3747 25.0265 19.0689 25.2816 18.8535 25.6068C18.6382 25.932 18.5226 26.3131 18.521 26.7031V26.9092C18.521 27.5521 18.2656 28.1687 17.811 28.6234C17.3564 29.078 16.7398 29.3334 16.0968 29.3334C15.4539 29.3334 14.8372 29.078 14.3826 28.6234C13.928 28.1687 13.6726 27.5521 13.6726 26.9092V26.8001C13.6632 26.3989 13.5333 26.0098 13.2998 25.6834C13.0664 25.3569 12.7401 25.1083 12.3635 24.9698C11.9979 24.8084 11.5923 24.7603 11.1991 24.8316C10.8059 24.9029 10.4431 25.0903 10.1574 25.3698L10.0847 25.4425C9.85954 25.6679 9.59217 25.8467 9.29787 25.9687C9.00358 26.0907 8.68812 26.1535 8.36953 26.1535C8.05095 26.1535 7.73549 26.0907 7.44119 25.9687C7.1469 25.8467 6.87953 25.6679 6.65438 25.4425C6.42899 25.2174 6.25018 24.95 6.12818 24.6557C6.00618 24.3614 5.94338 24.0459 5.94338 23.7274C5.94338 23.4088 6.00618 23.0933 6.12818 22.799C6.25018 22.5047 6.42899 22.2373 6.65438 22.0122L6.72711 21.9395C7.00655 21.6538 7.194 21.291 7.2653 20.8978C7.33659 20.5046 7.28846 20.099 7.12711 19.7334C6.97346 19.3749 6.71833 19.0692 6.39313 18.8538C6.06793 18.6384 5.68685 18.5228 5.29681 18.5213H5.09075C4.4478 18.5213 3.83118 18.2659 3.37655 17.8112C2.92191 17.3566 2.6665 16.74 2.6665 16.097C2.6665 15.4541 2.92191 14.8375 3.37655 14.3829C3.83118 13.9282 4.4478 13.6728 5.09075 13.6728H5.19984C5.60104 13.6634 5.99015 13.5336 6.31656 13.3001C6.64298 13.0666 6.89161 12.7404 7.03014 12.3637C7.19149 11.9981 7.23962 11.5926 7.16833 11.1994C7.09703 10.8062 6.90958 10.4433 6.63014 10.1577L6.55741 10.0849C6.33202 9.85978 6.15321 9.59242 6.03121 9.29812C5.90921 9.00382 5.84642 8.68836 5.84642 8.36978C5.84642 8.0512 5.90921 7.73574 6.03121 7.44144C6.15321 7.14714 6.33202 6.87977 6.55741 6.65463C6.78256 6.42923 7.04993 6.25042 7.34422 6.12842C7.63852 6.00642 7.95398 5.94363 8.27256 5.94363C8.59115 5.94363 8.90661 6.00642 9.2009 6.12842C9.4952 6.25042 9.76257 6.42923 9.98772 6.65463L10.0604 6.72735C10.3461 7.00679 10.7089 7.19425 11.1022 7.26554C11.4954 7.33684 11.9009 7.28871 12.2665 7.12735H12.3635C12.722 6.9737 13.0277 6.71857 13.2431 6.39337C13.4585 6.06817 13.574 5.6871 13.5756 5.29705V5.09099C13.5756 4.44804 13.831 3.83143 14.2856 3.37679C14.7403 2.92216 15.3569 2.66675 15.9998 2.66675C16.6428 2.66675 17.2594 2.92216 17.714 3.37679C18.1687 3.83143 18.4241 4.44804 18.4241 5.09099V5.20008C18.4256 5.59013 18.5412 5.9712 18.7566 6.2964C18.9719 6.6216 19.2777 6.87673 19.6362 7.03038C20.0018 7.19174 20.4073 7.23987 20.8006 7.16857C21.1938 7.09728 21.5566 6.90982 21.8423 6.63038L21.915 6.55766C22.1401 6.33226 22.4075 6.15345 22.7018 6.03145C22.9961 5.90945 23.3116 5.84666 23.6301 5.84666C23.9487 5.84666 24.2642 5.90945 24.5585 6.03145C24.8528 6.15345 25.1201 6.33226 25.3453 6.55766C25.5707 6.7828 25.7495 7.05017 25.8715 7.34447C25.9935 7.63877 26.0563 7.95423 26.0563 8.27281C26.0563 8.59139 25.9935 8.90685 25.8715 9.20115C25.7495 9.49545 25.5707 9.76281 25.3453 9.98796L25.2726 10.0607C24.9931 10.3464 24.8057 10.7092 24.7344 11.1024C24.6631 11.4956 24.7112 11.9012 24.8726 12.2667V12.3637C25.0262 12.7222 25.2813 13.028 25.6065 13.2433C25.9317 13.4587 26.3128 13.5743 26.7029 13.5758H26.9089C27.5519 13.5758 28.1685 13.8312 28.6231 14.2859C29.0778 14.7405 29.3332 15.3571 29.3332 16.0001C29.3332 16.643 29.0778 17.2596 28.6231 17.7143C28.1685 18.1689 27.5519 18.4243 26.9089 18.4243H26.7998C26.4098 18.4259 26.0287 18.5415 25.7035 18.7568C25.3783 18.9722 25.1232 19.2779 24.9695 19.6364Z"
        fill="white" stroke="#2E7F1E" stroke-linecap="round" stroke-linejoin="round"
        stroke-width="1.2" />
    <path
        d="M16 20C18.2091 20 20 18.2091 20 16C20 13.7909 18.2091 12 16 12C13.7909 12 12 13.7909 12 16C12 18.2091 13.7909 20 16 20Z"
        stroke="#2E7F1E" stroke-linecap="round" stroke-linejoin="round" stroke-width="1.2" />
</svg>
