<svg fill="none" height="32" viewBox="0 0 32 32" width="32" xmlns="http://www.w3.org/2000/svg">
    <circle cx="16" cy="16" fill="#2E7F1E" r="16" />
    <path
        d="M4.01563 3.63319L4.01562 28.3668C4.01562 29.8211 5.45769 31 7.23656 31H24.7947C26.5736 31 28.0156 29.8211 28.0156 28.3668V3.63319C28.0156 2.17892 26.5736 1 24.7947 1H7.23656C5.45769 1 4.01563 2.17892 4.01563 3.63319Z"
        fill="white" stroke="#2E7F1E" stroke-linecap="round" stroke-linejoin="round"
        stroke-width="1.2" />
    <path
        d="M12.4602 14.602L10.2932 16.67L9.29317 15.67C9.18189 15.5677 9.03538 15.5124 8.88425 15.5155C8.73313 15.5187 8.58907 15.5801 8.48218 15.687C8.3753 15.7939 8.31385 15.938 8.31068 16.0891C8.30751 16.2402 8.36286 16.3867 8.46517 16.498L9.86517 17.898C9.91987 17.9527 9.98492 17.9959 10.0565 18.0251C10.1281 18.0543 10.2048 18.0689 10.2822 18.068C10.4335 18.069 10.5791 18.01 10.6872 17.904L13.2602 15.437C13.3354 15.3662 13.3903 15.2766 13.4192 15.1774C13.448 15.0782 13.4497 14.9731 13.4242 14.873C13.3993 14.7733 13.3489 14.6819 13.2779 14.6077C13.2068 14.5335 13.1177 14.4792 13.0192 14.45C12.9208 14.4241 12.8174 14.4245 12.7193 14.4512C12.6212 14.4779 12.5318 14.5299 12.4602 14.602Z"
        fill="#2E7F1E" />
    <path
        d="M23.1959 15.665H16.4469C16.2911 15.665 16.1416 15.7269 16.0314 15.8371C15.9213 15.9473 15.8594 16.0967 15.8594 16.2525C15.8594 16.4084 15.9213 16.5578 16.0314 16.668C16.1416 16.7781 16.2911 16.84 16.4469 16.84H23.1959C23.3517 16.84 23.5011 16.7781 23.6113 16.668C23.7215 16.5578 23.7834 16.4084 23.7834 16.2525C23.7834 16.0967 23.7215 15.9473 23.6113 15.8371C23.5011 15.7269 23.3517 15.665 23.1959 15.665Z"
        fill="#2E7F1E" />
    <path
        d="M12.4601 8.73504L10.298 10.797L9.29805 9.79704C9.18677 9.69473 9.04027 9.63938 8.88914 9.64255C8.73801 9.64572 8.59396 9.70717 8.48707 9.81405C8.38018 9.92094 8.31873 10.065 8.31556 10.2161C8.31239 10.3673 8.36774 10.5138 8.47005 10.625L9.87006 12.025C9.92475 12.0797 9.98981 12.1229 10.0614 12.1521C10.133 12.1813 10.2097 12.1959 10.2871 12.195C10.4384 12.196 10.584 12.1371 10.6921 12.031L13.2651 9.56404C13.3403 9.49326 13.3952 9.40362 13.424 9.30443C13.4529 9.20524 13.4546 9.10013 13.4291 9.00004C13.4042 8.90038 13.3538 8.80894 13.2827 8.73475C13.2117 8.66056 13.1225 8.60619 13.0241 8.57704C12.9244 8.55299 12.8202 8.55489 12.7215 8.58255C12.6227 8.61021 12.5327 8.66271 12.4601 8.73504Z"
        fill="#2E7F1E" />
    <path
        d="M23.1959 9.80298H16.4469C16.2911 9.80298 16.1416 9.86487 16.0314 9.97505C15.9213 10.0852 15.8594 10.2347 15.8594 10.3905C15.8594 10.5463 15.9213 10.6957 16.0314 10.8059C16.1416 10.9161 16.2911 10.978 16.4469 10.978H23.1959C23.3517 10.978 23.5011 10.9161 23.6113 10.8059C23.7215 10.6957 23.7834 10.5463 23.7834 10.3905C23.7834 10.2347 23.7215 10.0852 23.6113 9.97505C23.5011 9.86487 23.3517 9.80298 23.1959 9.80298Z"
        fill="#2E7F1E" />
    <path
        d="M12.4602 20.464L10.2932 22.532L9.29317 21.532C9.18189 21.4296 9.03538 21.3743 8.88425 21.3775C8.73313 21.3806 8.58907 21.4421 8.48218 21.549C8.3753 21.6559 8.31385 21.7999 8.31068 21.9511C8.30751 22.1022 8.36286 22.2487 8.46517 22.36L9.86517 23.76C9.91987 23.8146 9.98492 23.8578 10.0565 23.887C10.1281 23.9162 10.2048 23.9308 10.2822 23.93C10.4335 23.9309 10.5791 23.872 10.6872 23.766L13.2602 21.299C13.3354 21.2282 13.3903 21.1385 13.4192 21.0393C13.448 20.9402 13.4497 20.835 13.4242 20.735C13.4006 20.635 13.3507 20.5432 13.2798 20.469C13.2089 20.3947 13.1194 20.3407 13.0207 20.3126C12.9219 20.2845 12.8174 20.2832 12.718 20.3089C12.6186 20.3347 12.5279 20.3865 12.4552 20.459L12.4602 20.464Z"
        fill="#2E7F1E" />
    <path
        d="M23.1959 21.533H16.4469C16.2911 21.533 16.1416 21.5949 16.0314 21.705C15.9213 21.8152 15.8594 21.9647 15.8594 22.1205C15.8594 22.2763 15.9213 22.4257 16.0314 22.5359C16.1416 22.6461 16.2911 22.708 16.4469 22.708H23.1959C23.3517 22.708 23.5011 22.6461 23.6113 22.5359C23.7215 22.4257 23.7834 22.2763 23.7834 22.1205C23.7834 21.9647 23.7215 21.8152 23.6113 21.705C23.5011 21.5949 23.3517 21.533 23.1959 21.533Z"
        fill="#2E7F1E" />
</svg>
