<svg fill="none" height="32" viewBox="0 0 32 32" width="32" xmlns="http://www.w3.org/2000/svg">
    <path clip-rule="evenodd"
        d="M19.0662 5.0419C21.8772 4.70749 25.1503 5.69119 26.5826 8.31412C28.0679 11.1481 27.2624 14.5864 25.6824 17.2005C23.9787 20.3056 21.1352 22.5639 18.2504 24.5086C16.5348 25.5957 14.6536 26.7344 12.5625 26.7146C10.942 26.6733 9.86665 24.8746 10.3358 23.3793C10.8061 21.7901 11.6119 20.138 13.0641 19.2169C13.9837 18.6855 15.322 18.4969 16.1592 19.2604C16.5883 19.636 16.5348 20.2739 16.223 20.6919C15.2087 22.1768 13.587 23.1381 12.7305 24.7391C12.5724 25.0628 12.4155 25.5435 12.74 25.8255C13.1473 26.0966 13.6707 25.9194 14.0898 25.7842C15.96 25.0929 17.5605 23.8699 19.0963 22.6361C21.4378 20.7236 23.6871 18.3083 24.2402 15.2243C24.4597 13.8867 24.1142 12.1208 22.7144 11.5669C21.1454 11.1481 19.5887 11.941 18.2603 12.706C16.2745 13.8974 14.2776 15.0781 12.4583 16.5203C11.1623 17.4941 9.80137 18.613 8.14044 18.7805C6.43671 18.9149 4.77432 17.2742 5.07815 15.5381C5.25561 14.2421 5.99773 13.1129 6.78188 12.0986C8.57981 9.79904 11.047 8.12551 13.6184 6.82001C15.3324 5.97332 17.1422 5.23041 19.0662 5.0419Z"
        fill="#ED1C24" fill-rule="evenodd" />
</svg>
