<svg fill="none" height="32" viewBox="0 0 32 32" width="32" xmlns="http://www.w3.org/2000/svg">
    <path
        d="M25.2524 27H6.74761C5.80074 27 5 26.2444 5 25.2487V6.74547C5 5.80245 5.75399 5 6.74761 5H25.2524C26.1993 5 27 5.75559 27 6.75133V25.2955C27 26.2386 26.1993 27 25.2524 27Z"
        fill="#F16522" />
    <path
        d="M19.0685 25.864C22.0902 22.3614 23.7911 18.2964 24.6386 13.798C24.7321 13.2298 24.5451 12.6617 24.4983 12.0467C24.4048 12.0467 24.3113 11.9998 24.2178 11.9998C24.0307 12.2341 23.8378 12.4742 23.6508 12.7085C23.5573 12.8023 23.5573 12.9428 23.5105 13.0424C22.7565 15.5493 21.6694 17.822 19.9218 19.9013C18.7411 21.2719 18.0339 23.0701 17.2332 24.7277C16.6195 25.9109 16.6195 26.0046 15.1583 25.8172C15.5849 24.8683 15.959 23.9253 16.4792 23.0759C17.8001 20.9498 19.2672 18.9114 20.6349 16.7852C21.2486 15.7895 21.6753 14.7059 22.2422 13.7101C22.7156 12.9077 23.3761 12.2458 23.8028 11.4375C24.2295 10.6819 24.5568 9.82675 24.8432 9.0243C25.077 8.31556 25.2231 7.55997 25.3634 6.79852C25.4569 6.79852 25.5504 6.84538 25.6965 6.84538C25.5562 7.64783 25.3634 8.45614 25.2698 9.30545C25.1296 10.2016 25.0828 11.1505 24.9893 12.0467C24.9425 12.5211 24.8022 13.0893 25.603 13.3236C25.7433 13.3704 25.8368 14.0323 25.79 14.3193C25.2698 16.2581 24.7964 18.2437 24.0892 20.1414C23.6625 21.2778 22.9085 22.3204 22.2948 23.404C22.061 23.7847 21.8214 24.1127 21.6343 24.5403C20.8628 26.0983 20.8161 26.1452 19.0685 25.864ZM18.0281 6.13079C18.408 6.9801 17.9813 7.40768 17.6482 7.88212C16.5143 9.44602 15.2868 10.9572 14.3458 12.6617C13.4983 14.1729 12.8378 15.7836 12.2709 17.4412C11.7507 19.052 10.95 20.5163 9.95634 21.8869C9.15559 22.9764 8.39576 24.1127 7.59502 25.1963C7.40799 25.4774 7.16835 25.7176 6.98131 25.9519C6.88779 25.905 6.84104 25.905 6.74752 25.8582C6.74752 25.5243 6.70076 25.1963 6.79428 24.9093C7.22095 23.8667 7.59502 22.7831 8.11521 21.7873C8.91596 20.323 9.20235 18.806 8.96271 17.1484C8.62956 14.9226 8.91596 12.7495 9.43615 10.6175C9.57642 9.95561 9.62318 9.24687 9.7167 8.43857C8.11521 9.01844 7.45474 10.389 6.22733 11.4316C6.08705 10.5355 5.94677 9.92046 6.70076 9.30545C7.7879 8.40342 8.72892 7.36082 9.81606 6.46466C10.0966 6.23037 10.5233 6.18351 11.137 5.94336C10.95 6.65209 10.8564 7.07967 10.7571 7.50726C10.3772 9.30545 10.0031 11.1505 9.7167 12.9487C9.57642 13.798 9.62318 14.6532 9.66994 15.5025C9.7167 16.7325 9.85698 17.9625 10.0031 19.2863C10.8506 19.1926 11.2305 18.6244 11.4643 17.9157C12.1248 16.2581 12.7385 14.5536 13.4457 12.9018C14.34 10.8225 15.2868 8.78415 17.0812 7.27297C17.4611 7.07967 17.654 6.65209 18.0281 6.13079ZM9.01532 25.7703C9.24911 25.2959 9.44199 24.8741 9.67579 24.4466C10.7162 22.8358 11.9903 21.3715 12.8378 19.667C14.2055 17.0195 16.0934 14.7937 17.8878 12.4742C18.1216 12.1404 18.3612 11.7655 18.408 11.3848C18.6418 10.061 19.3022 8.97158 20.2491 7.97584C20.7225 7.4604 21.1434 6.9391 21.8097 6.46466C21.5759 6.89224 21.383 7.41354 21.0557 7.69469C19.9218 8.69043 19.4016 9.92046 19.0275 11.3379C18.6944 12.5211 17.9872 13.5637 17.467 14.7C16.9 15.8832 16.3331 17.0664 15.8129 18.2495C14.5855 20.897 13.0249 23.3102 10.8097 25.249C10.3363 25.7176 9.86282 26.0983 9.01532 25.7703ZM14.4393 23.5914C15.1466 22.5019 16.2337 21.4652 16.6136 20.2293C17.1806 18.3843 18.1742 16.6798 18.5483 14.9285C19.0685 12.3278 20.4829 10.4359 22.0435 8.49128C22.4702 7.96998 22.7975 7.35497 23.1306 6.69309C23.3644 6.17179 23.7443 6.07808 24.171 6.26551C24.2645 6.31237 24.2178 6.92739 24.0775 7.11482C23.3644 8.21599 22.5169 9.25273 21.8097 10.389C21.1492 11.3848 20.629 12.4684 20.0621 13.5578C19.5419 14.5067 19.0217 15.4029 18.6009 16.3986C18.0807 17.4881 17.5605 18.5775 17.2332 19.7607C16.8007 21.5121 15.7661 22.6952 14.4393 23.5914ZM14.2991 6.27723C13.2587 7.55412 12.6917 8.87786 12.4112 10.3949C12.078 12.0525 11.4175 13.6106 10.95 15.2213C10.8564 15.2213 10.8097 15.1745 10.7162 15.1745C10.8097 14.6532 10.9032 14.1787 10.9967 13.6633C11.4702 11.6777 11.891 9.63931 12.4112 7.70055C12.7443 6.37094 13.0716 6.17765 14.2991 6.27723ZM25.7257 20.282C26.1992 23.4977 25.3458 25.8172 23.6041 25.864C24.3113 23.9721 25.0185 22.1271 25.7257 20.282ZM8.06845 11.2442C7.92818 11.4785 7.7879 11.7655 7.59502 11.9998C6.74752 13.0893 6.55464 14.3193 6.55464 15.6899C6.55464 16.6856 6.50788 17.7224 6.46112 18.7181C6.46112 18.8587 6.3676 18.9993 6.22733 19.1457C6.32084 16.3518 5.47334 13.4231 7.83466 11.1505C7.92818 11.1974 7.97494 11.1974 8.06845 11.2442ZM19.6354 6.32408C18.8347 8.35657 18.408 10.5823 16.7539 12.0935C17.6014 10.2016 18.5015 8.16913 19.3958 6.17765C19.4484 6.23037 19.5419 6.27723 19.6354 6.32408ZM6.27409 7.83527C6.13381 6.60523 6.3676 6.32408 7.31447 6.27137C6.98131 6.74581 6.654 7.22025 6.27409 7.83527Z"
        fill="black" />
</svg>
