<svg width="41" height="40" viewBox="0 0 41 40" fill="none" xmlns="http://www.w3.org/2000/svg">
    <rect x="0.5" width="40" height="40" rx="8" fill="#F5031F"/>
    <path d="M20.5 29C25.4706 29 29.5 24.9706 29.5 20C29.5 15.0294 25.4706 11 20.5 11C15.5294 11 11.5 15.0294 11.5 20C11.5 24.9706 15.5294 29 20.5 29Z" stroke="white" stroke-width="2" stroke-miterlimit="10" stroke-linecap="round" stroke-linejoin="round"/>
    <path d="M22 24C22 24.8284 21.3284 25.5 20.5 25.5C19.6716 25.5 19 24.8284 19 24C19 23.1716 19.6716 22.5 20.5 22.5C21.3284 22.5 22 23.1716 22 24Z" fill="white"/>
    <path d="M20.5 20L20.5 16" stroke="white" stroke-width="2" stroke-linecap="round" stroke-linejoin="round"/>
</svg>
