<svg fill="none" height="32" viewBox="0 0 32 32" width="32" xmlns="http://www.w3.org/2000/svg">
    <path clip-rule="evenodd"
        d="M16.1329 12.0802C16.4837 12.1355 16.5547 12.0627 16.6012 11.7221C16.6773 11.2026 16.8587 10.3267 17.2826 9.42876C17.7416 8.46051 18.4726 7.3966 19.495 6.68423C20.3561 6.09201 21.7675 5.43606 22.8602 5.19814C23.754 5.0008 24.5915 4.96313 25.3101 5.03137C26.7868 5.16756 27.6037 5.59941 28.0137 6.15834C28.1658 6.36715 28.249 6.62474 28.2524 6.7915C28.2641 7.06951 28.1458 7.43231 27.7565 7.78847C27.3776 8.13156 26.5695 8.56562 25.4675 8.94571C24.3235 9.33637 22.7603 9.74891 21.202 10.1167C19.8973 10.425 19.1549 10.6873 18.535 10.9029C17.504 11.2614 17.1932 12.3141 17.8357 12.6355C18.7643 13.1 19.3451 13.5858 19.8401 13.9987C20.5825 14.6234 21.4447 15.3584 22.5152 16.684C23.4851 17.8996 25.0716 20.2197 25.6427 22.4716C26.2747 24.944 25.8798 27.2887 24.5164 27.9434C23.1797 28.5864 21.3983 27.6586 20.1479 26.3281C18.9582 25.0654 18.1279 23.5781 17.3471 21.284C16.67 19.3121 16.3955 16.4527 16.3967 14.9569C16.3967 14.4585 16.3888 14.3522 16.4085 13.9022C16.4538 13.5101 15.4234 13.1857 14.316 13.9169C13.0557 14.7488 11.821 16.2566 11.0921 17.1323C10.775 17.5145 10.3451 18.0762 9.88968 18.6653C9.28922 19.438 8.62642 20.2427 8.02219 20.6926C7.11287 21.3727 5.65191 21.6539 4.62859 20.9049C4.05975 20.4877 3.75695 19.6999 3.74744 18.899C3.73896 18.3352 3.87522 17.8251 4.14959 17.3219C4.49238 16.7043 5.05676 16.0413 5.95148 15.2822C6.87668 14.502 8.35361 13.6196 9.83369 13.0096C12.0913 12.0771 14.522 11.7837 16.1329 12.0802Z"
        fill="#19AAF8" fill-rule="evenodd" />
</svg>
