<svg width="24" height="24" viewBox="0 0 24 24" fill="none" xmlns="http://www.w3.org/2000/svg">
    <path d="M19.1113 23.332H19.0739C18.9778 23.3248 18.8847 23.2897 18.8059 23.2296L18.8043 23.2284L15.8787 21.0078L15.6456 20.831L15.3576 20.8827C12.5109 21.3946 9.57689 20.9493 7.00286 19.6143C4.71832 18.2224 3.06461 15.9732 2.40349 13.3518L2.40135 13.3433L2.39899 13.3348C2.1661 12.504 2.0322 11.6479 2.00018 10.7848C2.00302 9.16614 2.38825 7.572 3.12334 6.13559C3.86025 4.69561 4.92702 3.45654 6.23346 2.52182C7.53985 1.58714 9.04795 0.983905 10.6311 0.762119C12.2141 0.540335 13.8267 0.706354 15.3337 1.24645C16.8407 1.78656 18.1986 2.68521 19.2931 3.86771C20.3876 5.05025 21.1867 6.48212 21.6225 8.04341C22.0583 9.60472 22.1179 11.2493 21.7963 12.8389C21.4747 14.4285 20.7815 15.9161 19.7754 17.177L19.6298 17.3594V17.5928V22.7983C19.6298 22.8696 19.6159 22.9399 19.5892 23.0053L20.2062 23.2577L19.5892 23.0053C19.5625 23.0707 19.5235 23.1295 19.4749 23.1787C19.4264 23.2278 19.3692 23.2664 19.3069 23.2925L19.5648 23.9073L19.3069 23.2925C19.2446 23.3186 19.1782 23.332 19.1113 23.332Z" fill="white" stroke="#88D991" stroke-width="1.33333"/>
    <path d="M11.3326 9.332C11.5666 8.526 11.8396 7.551 11.9566 7.005H12.0086C12.1126 7.577 12.3856 8.487 12.6326 9.371L13.2046 11.321H10.7346L11.3326 9.332ZM10.8256 5.887L8.00463 15H9.64263L10.3316 12.686H13.6076L14.2966 15H15.9996L13.1656 5.887H10.8256Z" fill="#2E7F1E"/>
</svg>
