<svg width="24" height="24" viewBox="0 0 24 24" fill="none" xmlns="http://www.w3.org/2000/svg">
    <path d="M19.111 23.332H19.0737C18.9775 23.3248 18.8844 23.2897 18.8057 23.2296L18.8041 23.2284L15.8784 21.0078L15.6454 20.831L15.3574 20.8827C12.5107 21.3946 9.57664 20.9493 7.00262 19.6143C4.71808 18.2224 3.06436 15.9732 2.40324 13.3518L2.4011 13.3433L2.39874 13.3348C2.16585 12.504 2.03196 11.6479 1.99993 10.7848C2.00278 9.16614 2.38801 7.572 3.12309 6.13559C3.86 4.69561 4.92678 3.45654 6.23322 2.52182C7.53961 1.58714 9.04771 0.983905 10.6308 0.762119C12.2139 0.540335 13.8265 0.706354 15.3335 1.24645C16.8405 1.78656 18.1984 2.68521 19.2929 3.86771C20.3874 5.05025 21.1864 6.48212 21.6222 8.04341C22.058 9.60472 22.1177 11.2493 21.7961 12.8389C21.4745 14.4285 20.7812 15.9161 19.7751 17.177L19.6295 17.3594V17.5928V22.7983C19.6295 22.8696 19.6157 22.9399 19.5889 23.0053L20.206 23.2577L19.5889 23.0053C19.5622 23.0707 19.5232 23.1295 19.4747 23.1787C19.4262 23.2278 19.369 23.2664 19.3067 23.2925L19.5646 23.9073L19.3067 23.2925C19.2444 23.3186 19.1779 23.332 19.111 23.332Z" fill="white" stroke="#88D991" stroke-width="1.33333"/>
    <path d="M5.71607 8.616V7.42H18.2871V8.616H16.8961V14.869L17.4811 15.233L16.4931 16.195L13.4251 14.232C12.8531 14.765 12.0471 15.077 11.0591 15.077C8.47207 15.077 6.95107 12.971 6.26207 10.072L7.60107 9.448C8.10807 11.892 9.20007 13.751 11.0591 13.751C12.2551 13.751 12.9181 12.958 12.9181 11.866C12.9181 11.034 12.5021 10.527 11.8911 10.527C11.4231 10.527 11.1371 10.813 11.1371 11.242C11.1371 11.554 11.3061 11.827 11.6571 11.983L10.6691 12.737C10.0061 12.477 9.64207 11.814 9.64207 11.125C9.64207 10.059 10.5001 9.175 11.7871 9.175C13.3081 9.175 14.3611 10.332 14.3611 11.879C14.3611 12.334 14.2831 12.763 14.1401 13.14L15.5181 14.037L15.5571 14.024C15.4661 13.491 15.4271 12.542 15.4271 11.788V8.616H5.71607Z" fill="#2E7F1E"/>
</svg>
