<svg width="106" height="24" viewBox="0 0 106 24" fill="none" xmlns="http://www.w3.org/2000/svg">
    <path d="M35.999 15.9869V7.7671C35.999 7.59545 36.0597 7.448 36.1812 7.32475C36.3026 7.20151 36.451 7.13989 36.6264 7.13989H41.7735C44.4943 7.13989 45.8547 8.36791 45.8547 10.8239C45.8547 13.2756 44.4943 14.5014 41.7735 14.5014H38.5422V15.9869C38.5422 16.1585 38.4793 16.306 38.3533 16.4292C38.2319 16.5481 38.0835 16.6075 37.9081 16.6075H36.6399C36.4645 16.6075 36.3138 16.5481 36.1879 16.4292C36.062 16.306 35.999 16.1585 35.999 15.9869ZM38.5422 12.6329H41.0045C41.76 12.6329 42.3334 12.5097 42.7246 12.2632C43.1159 12.0123 43.3115 11.5326 43.3115 10.8239C43.3115 10.1109 43.1159 9.63113 42.7246 9.38465C42.3334 9.13376 41.76 9.00832 41.0045 9.00832H38.5422V12.6329Z" fill="#040B1C"/>
    <path d="M47.6019 15.7888C46.9003 15.155 46.5496 14.2219 46.5496 12.9895C46.5496 11.7526 46.9003 10.8195 47.6019 10.1901C48.3035 9.55631 49.3109 9.2394 50.6241 9.2394C51.9417 9.2394 52.9514 9.55631 53.6529 10.1901C54.3545 10.8195 54.7053 11.7526 54.7053 12.9895C54.7053 14.2219 54.3545 15.155 53.6529 15.7888C52.9514 16.4226 51.9417 16.7395 50.6241 16.7395C49.3109 16.7395 48.3035 16.4226 47.6019 15.7888ZM49.3086 11.2729C49.0298 11.6294 48.8904 12.1994 48.8904 12.9829C48.8904 13.7663 49.0298 14.3385 49.3086 14.6994C49.5874 15.0604 50.0259 15.2408 50.6241 15.2408C51.2267 15.2408 51.6674 15.0604 51.9462 14.6994C52.2296 14.3385 52.3712 13.7663 52.3712 12.9829C52.3712 12.1994 52.2296 11.6294 51.9462 11.2729C51.6674 10.9164 51.2267 10.7381 50.6241 10.7381C50.0259 10.7381 49.5874 10.9164 49.3086 11.2729Z" fill="#040B1C"/>
    <path d="M61.0667 11.0484L60.0278 11.0088C59.4207 11.0088 58.8405 11.3345 58.2874 11.9859V16.2047C58.2874 16.3236 58.2469 16.4204 58.1659 16.4952C58.0895 16.5701 57.9928 16.6075 57.8759 16.6075H56.3648C56.2434 16.6075 56.1444 16.5701 56.068 16.4952C55.9915 16.4204 55.9533 16.3236 55.9533 16.2047V9.78078C55.9533 9.66194 55.9915 9.56511 56.068 9.49028C56.1489 9.41106 56.2479 9.37144 56.3648 9.37144H57.8759C57.9973 9.37144 58.0962 9.41106 58.1727 9.49028C58.2491 9.56511 58.2874 9.66194 58.2874 9.78078V10.1967C58.7461 9.87101 59.1868 9.63113 59.6095 9.47708C60.0368 9.31863 60.5944 9.2394 61.2825 9.2394C61.4039 9.2394 61.5029 9.27901 61.5793 9.35824C61.6603 9.43306 61.7008 9.5277 61.7008 9.64214V10.6457C61.7008 10.7645 61.6603 10.8613 61.5793 10.9362C61.5029 11.011 61.4039 11.0484 61.2825 11.0484H61.0667Z" fill="#040B1C"/>
    <path d="M66.1935 15.1748L67.1177 15.0956H67.3673C67.4887 15.0956 67.5877 15.133 67.6641 15.2078C67.7451 15.2826 67.7855 15.3795 67.7855 15.4983V16.2047C67.7855 16.3016 67.7451 16.3896 67.6641 16.4688C67.5877 16.5437 67.4887 16.5899 67.3673 16.6075C66.9086 16.6955 66.3104 16.7395 65.5729 16.7395C63.6391 16.7395 62.6722 15.7492 62.6722 13.7685V7.54923C62.6722 7.43039 62.7104 7.33356 62.7868 7.25873C62.8678 7.17951 62.9667 7.13989 63.0837 7.13989H64.5947C64.7117 7.13989 64.8084 7.17951 64.8848 7.25873C64.9658 7.33356 65.0062 7.43039 65.0062 7.54923V9.75437H66.8883C67.0053 9.75437 67.102 9.79179 67.1784 9.86661C67.2594 9.94144 67.2998 10.0383 67.2998 10.1571V10.9428C67.2998 11.0616 67.2594 11.1584 67.1784 11.2333C67.102 11.3081 67.0053 11.3455 66.8883 11.3455H65.0062V13.7685C65.0062 14.2175 65.1142 14.5652 65.33 14.8117C65.5459 15.0538 65.8337 15.1748 66.1935 15.1748Z" fill="#040B1C"/>
    <path d="M69.0268 15.9869V7.7671C69.0268 7.59545 69.0875 7.448 69.2089 7.32475C69.3303 7.20151 69.4787 7.13989 69.6541 7.13989H74.8012C77.5221 7.13989 78.8825 8.36791 78.8825 10.8239C78.8825 13.2756 77.5221 14.5014 74.8012 14.5014H71.57V15.9869C71.57 16.1585 71.507 16.306 71.3811 16.4292C71.2597 16.5481 71.1112 16.6075 70.9359 16.6075H69.6676C69.4922 16.6075 69.3416 16.5481 69.2157 16.4292C69.0897 16.306 69.0268 16.1585 69.0268 15.9869ZM71.57 12.6329H74.0322C74.7877 12.6329 75.3611 12.5097 75.7524 12.2632C76.1437 12.0123 76.3393 11.5326 76.3393 10.8239C76.3393 10.1109 76.1437 9.63113 75.7524 9.38465C75.3611 9.13376 74.7877 9.00832 74.0322 9.00832H71.57V12.6329Z" fill="#040B1C"/>
    <path d="M80.6297 15.7888C79.9281 15.155 79.5773 14.2219 79.5773 12.9895C79.5773 11.7526 79.9281 10.8195 80.6297 10.1901C81.3312 9.55631 82.3386 9.2394 83.6518 9.2394C84.9695 9.2394 85.9791 9.55631 86.6807 10.1901C87.3823 10.8195 87.7331 11.7526 87.7331 12.9895C87.7331 14.2219 87.3823 15.155 86.6807 15.7888C85.9791 16.4226 84.9695 16.7395 83.6518 16.7395C82.3386 16.7395 81.3312 16.4226 80.6297 15.7888ZM82.3364 11.2729C82.0575 11.6294 81.9181 12.1994 81.9181 12.9829C81.9181 13.7663 82.0575 14.3385 82.3364 14.6994C82.6152 15.0604 83.0537 15.2408 83.6518 15.2408C84.2544 15.2408 84.6952 15.0604 84.974 14.6994C85.2573 14.3385 85.399 13.7663 85.399 12.9829C85.399 12.1994 85.2573 11.6294 84.974 11.2729C84.6952 10.9164 84.2544 10.7381 83.6518 10.7381C83.0537 10.7381 82.6152 10.9164 82.3364 11.2729Z" fill="#040B1C"/>
    <path d="M88.5628 11.3719C88.5628 9.95024 89.7343 9.2394 92.0774 9.2394C94.5419 9.2394 95.7741 9.87101 95.7741 11.1342C95.7741 11.2487 95.7359 11.3455 95.6594 11.4247C95.583 11.4996 95.4841 11.537 95.3626 11.537H94.3575C94.0337 11.537 93.7616 11.4049 93.5412 11.1408C93.3209 10.8723 92.8869 10.7381 92.2393 10.7381C91.3488 10.7381 90.9036 10.9494 90.9036 11.3719C90.9036 11.57 91.0768 11.735 91.423 11.8671C91.7738 11.9991 92.1988 12.1158 92.698 12.217C93.2017 12.3138 93.7031 12.4393 94.2023 12.5933C94.7015 12.7474 95.1243 12.9939 95.4706 13.3328C95.8213 13.6673 95.9967 14.092 95.9967 14.607C95.9967 16.0287 94.76 16.7395 92.2865 16.7395C89.813 16.7395 88.5763 16.1101 88.5763 14.8513C88.5763 14.7325 88.6145 14.6356 88.691 14.5608C88.7719 14.4816 88.8731 14.442 88.9945 14.442H89.9997C90.3235 14.442 90.5955 14.5762 90.8159 14.8447C91.0363 15.1088 91.4703 15.2408 92.1179 15.2408C93.1477 15.2408 93.6627 15.0296 93.6627 14.607C93.6627 14.4089 93.4873 14.2439 93.1365 14.1118C92.7902 13.9798 92.3652 13.8632 91.8615 13.7619C91.3578 13.6563 90.8564 13.5286 90.3572 13.379C89.8625 13.2249 89.4398 12.9785 89.089 12.6395C88.7382 12.3006 88.5628 11.8781 88.5628 11.3719Z" fill="#040B1C"/>
    <path d="M100.04 8.99863H99.4524V5.9031H98.3955V5.39911H101.096V5.9031H100.04V8.99863Z" fill="#040B1C"/>
    <path d="M103.449 8.99833L102.408 5.99197H102.388C102.416 6.4383 102.43 6.85694 102.43 7.24788V8.99833H101.897V5.3988H102.725L103.723 8.26261H103.737L104.764 5.3988H105.594V8.99833H105.028V7.21816C105.028 7.0398 105.033 6.80605 105.042 6.51892C105.051 6.2318 105.058 6.0575 105.065 5.9967H105.045L103.966 8.99765L103.449 8.99833Z" fill="#040B1C"/>
    <path d="M29.4785 7.84255C30.5811 8.94526 31.2005 10.4408 31.2005 12.0001C31.2005 13.5595 30.5811 15.055 29.4785 16.1577L23.3592 22.2757C22.8132 22.8217 22.165 23.2549 21.4516 23.5504C20.7382 23.8459 19.9735 23.998 19.2013 23.998C18.4291 23.998 17.6645 23.8459 16.9511 23.5504C16.2377 23.2549 15.5894 22.8217 15.0434 22.2757L8.92215 16.1558C7.81959 15.0531 7.2002 13.5575 7.2002 11.9982C7.2002 10.4388 7.81959 8.9433 8.92215 7.84058L15.0434 1.7213C16.1461 0.619144 17.6413 0 19.2003 0C20.7594 0 22.2546 0.619144 23.3573 1.7213L29.4785 7.84255Z" fill="#195B2A"/>
    <path d="M22.2774 7.84373C23.3793 8.94637 23.9984 10.4415 23.9984 12.0003C23.9984 13.5592 23.3793 15.0543 22.2774 16.157L16.1574 22.2782C15.0547 23.3806 13.5594 23.9998 12.0002 23.9998C10.4409 23.9998 8.94558 23.3806 7.84289 22.2782L1.72098 16.157C0.619018 15.0543 0 13.5592 0 12.0003C0 10.4415 0.619018 8.94637 1.72098 7.84373L7.84289 1.72249C8.94558 0.620126 10.4409 0.000854492 12.0002 0.000854492C13.5594 0.000854492 15.0547 0.620126 16.1574 1.72249L22.2774 7.84373Z" fill="#389625"/>
</svg>
