<svg width="48" height="48" viewBox="0 0 48 48" fill="none" xmlns="http://www.w3.org/2000/svg">
<g clip-path="url(#clip0_53471_30870)">
<rect x="4" y="4" width="40" height="40" rx="16" fill="#EA4335"/>
<path d="M27.29 20.4289C26.4458 19.6298 25.3224 19.1929 24.1601 19.2117C22.0305 19.2117 20.2221 20.6411 19.5776 22.5631C19.2357 23.5705 19.2357 24.6625 19.5776 25.6699H19.5811C20.2279 27.5907 22.0329 29.0189 24.1624 29.0189C25.2614 29.0189 26.2038 28.7395 26.9353 28.2457V28.2434C27.3599 27.9642 27.7234 27.6016 28.0037 27.1778C28.2841 26.754 28.4755 26.2776 28.5664 25.7777H24.1601V22.6547H31.8575C31.9525 23.1972 31.9977 23.7513 31.9977 24.3031C31.9977 26.7711 31.1109 28.8578 29.5679 30.2709L29.5691 30.2721C28.2174 31.5113 26.3603 32.23 24.1601 32.23C22.6503 32.232 21.1696 31.8154 19.8824 31.0265C18.5952 30.2376 17.5519 29.1073 16.8684 27.7611C16.2975 26.6312 16 25.383 16 24.1171C16 22.8511 16.2975 21.6029 16.8684 20.473C17.5511 19.1262 18.594 17.9951 19.8811 17.2056C21.1681 16.416 22.649 15.9989 24.1589 16.0006C26.1827 15.9757 28.1383 16.7317 29.619 18.1116L27.29 20.4289Z" fill="white"/>
</g>
<defs>
<clipPath id="clip0_53471_30870">
<rect x="4" y="4" width="40" height="40" rx="16" fill="white"/>
</clipPath>
</defs>
</svg>
