<svg width="24" height="24" viewBox="0 0 24 24" fill="none" xmlns="http://www.w3.org/2000/svg">
    <path d="M8 11V7.88889C8 6.85749 8.42143 5.86834 9.17157 5.13903C9.92172 4.40972 10.9391 4 12 4C13.0609 4 14.0783 4.40972 14.8284 5.13903C15.5786 5.86834 16 6.85749 16 7.88889V11" stroke="#2E7F1E" stroke-width="2" stroke-linecap="round" stroke-linejoin="round"/>
    <path d="M5 12C5 11.4477 5.44772 11 6 11H18C18.5523 11 19 11.4477 19 12V20C19 20.5523 18.5523 21 18 21H6C5.44772 21 5 20.5523 5 20V12Z" stroke="#2E7F1E" stroke-width="2" stroke-linecap="round" stroke-linejoin="round"/>
    <path d="M10 16.5C10 17.3284 9.32843 18 8.5 18C7.67157 18 7 17.3284 7 16.5C7 15.6716 7.67157 15 8.5 15C9.32843 15 10 15.6716 10 16.5Z" fill="#2E7F1E"/>
    <path d="M13.6001 16.5C13.6001 17.3284 12.9285 18 12.1001 18C11.2717 18 10.6001 17.3284 10.6001 16.5C10.6001 15.6716 11.2717 15 12.1001 15C12.9285 15 13.6001 15.6716 13.6001 16.5Z" fill="#2E7F1E"/>
    <path d="M17.2002 16.5C17.2002 17.3284 16.5286 18 15.7002 18C14.8718 18 14.2002 17.3284 14.2002 16.5C14.2002 15.6716 14.8718 15 15.7002 15C16.5286 15 17.2002 15.6716 17.2002 16.5Z" fill="#2E7F1E"/>
</svg>
