<svg width="224" height="224" viewBox="0 0 224 224" fill="none" xmlns="http://www.w3.org/2000/svg">
    <rect opacity="0.15" width="224" height="224" rx="112" fill="url(#paint0_linear_55421_34437)"/>
    <g filter="url(#filter0_b_55421_34437)">
        <rect x="45" y="38" width="144" height="106" rx="20" fill="url(#paint1_linear_55421_34437)"/>
        <rect x="46" y="39" width="142" height="104" rx="19" stroke="url(#paint2_linear_55421_34437)" stroke-width="2"/>
    </g>
    <rect opacity="0.6" x="45" y="60" width="144" height="20" fill="white"/>
    <g filter="url(#filter1_b_55421_34437)">
        <rect x="21.5" y="70" width="144" height="106" rx="20" fill="#2E7F1E" fill-opacity="0.08"/>
        <rect x="22.5" y="71" width="142" height="104" rx="19" stroke="url(#paint3_linear_55421_34437)" stroke-width="2"/>
    </g>
    <g filter="url(#filter2_b_55421_34437)">
        <path d="M30 147.5C30 160.3 17.3333 166.167 11 167.5C25.4 168.7 29.6667 180.667 30 186.5C33.6 171.7 44.8333 167.667 50 167.5C36.4 165.5 31 153.333 30 147.5Z" fill="#2E7F1E" fill-opacity="0.1"/>
    </g>
    <rect opacity="0.6" x="44.5" y="94" width="32" height="24" rx="5" fill="white"/>
    <rect opacity="0.6" x="44.5" y="137" width="17" height="12" rx="4" fill="white"/>
    <rect opacity="0.6" x="64.5" y="137" width="17" height="12" rx="4" fill="white"/>
    <rect opacity="0.6" x="84.5" y="137" width="17" height="12" rx="4" fill="white"/>
    <rect opacity="0.6" x="104.5" y="137" width="17" height="12" rx="4" fill="white"/>
    <rect opacity="0.6" x="124.5" y="137" width="17" height="12" rx="4" fill="white"/>
    <defs>
        <filter id="filter0_b_55421_34437" x="25" y="18" width="184" height="146" filterUnits="userSpaceOnUse" color-interpolation-filters="sRGB">
            <feFlood flood-opacity="0" result="BackgroundImageFix"/>
            <feGaussianBlur in="BackgroundImageFix" stdDeviation="10"/>
            <feComposite in2="SourceAlpha" operator="in" result="effect1_backgroundBlur_55421_34437"/>
            <feBlend mode="normal" in="SourceGraphic" in2="effect1_backgroundBlur_55421_34437" result="shape"/>
        </filter>
        <filter id="filter1_b_55421_34437" x="1.5" y="50" width="184" height="146" filterUnits="userSpaceOnUse" color-interpolation-filters="sRGB">
            <feFlood flood-opacity="0" result="BackgroundImageFix"/>
            <feGaussianBlur in="BackgroundImageFix" stdDeviation="10"/>
            <feComposite in2="SourceAlpha" operator="in" result="effect1_backgroundBlur_55421_34437"/>
            <feBlend mode="normal" in="SourceGraphic" in2="effect1_backgroundBlur_55421_34437" result="shape"/>
        </filter>
        <filter id="filter2_b_55421_34437" x="8" y="144.5" width="45" height="45" filterUnits="userSpaceOnUse" color-interpolation-filters="sRGB">
            <feFlood flood-opacity="0" result="BackgroundImageFix"/>
            <feGaussianBlur in="BackgroundImageFix" stdDeviation="1.5"/>
            <feComposite in2="SourceAlpha" operator="in" result="effect1_backgroundBlur_55421_34437"/>
            <feBlend mode="normal" in="SourceGraphic" in2="effect1_backgroundBlur_55421_34437" result="shape"/>
        </filter>
        <linearGradient id="paint0_linear_55421_34437" x1="112" y1="0" x2="112" y2="112" gradientUnits="userSpaceOnUse">
            <stop stop-color="#389625"/>
            <stop offset="1" stop-color="#389625" stop-opacity="0"/>
        </linearGradient>
        <linearGradient id="paint1_linear_55421_34437" x1="182" y1="47.5" x2="107.5" y2="106" gradientUnits="userSpaceOnUse">
            <stop stop-color="#DFCE4B"/>
            <stop offset="1" stop-color="#389625"/>
        </linearGradient>
        <linearGradient id="paint2_linear_55421_34437" x1="117" y1="38" x2="117" y2="144" gradientUnits="userSpaceOnUse">
            <stop stop-color="white" stop-opacity="0.48"/>
            <stop offset="0.791667" stop-color="white" stop-opacity="0"/>
        </linearGradient>
        <linearGradient id="paint3_linear_55421_34437" x1="93.5" y1="70" x2="93.5" y2="176" gradientUnits="userSpaceOnUse">
            <stop stop-color="white" stop-opacity="0.48"/>
            <stop offset="0.791667" stop-color="white" stop-opacity="0"/>
        </linearGradient>
    </defs>
</svg>
