<svg width="224" height="224" viewBox="0 0 224 224" fill="none" xmlns="http://www.w3.org/2000/svg">
    <rect opacity="0.15" width="224" height="224" rx="112" fill="url(#paint0_linear_55876_41800)"/>
    <g filter="url(#filter0_b_55876_41800)">
        <path d="M102 76.4002C102 63.1472 114.656 53.5592 127.414 57.1471L181.414 72.333C190.04 74.7588 196 82.6257 196 91.5862V144C196 155.046 187.046 164 176 164H122C110.954 164 102 155.046 102 144V76.4002Z" fill="url(#paint1_linear_55876_41800)"/>
        <path d="M103 76.4002C103 63.8099 115.023 54.7013 127.144 58.1097L181.144 73.2957C189.338 75.6001 195 83.0737 195 91.5862V144C195 154.493 186.493 163 176 163H122C111.507 163 103 154.493 103 144V76.4002Z" stroke="url(#paint2_linear_55876_41800)" stroke-width="2"/>
    </g>
    <g filter="url(#filter1_b_55876_41800)">
        <path d="M38 89.5407C38 81.3626 42.979 74.0084 50.5722 70.9711L110.572 46.9711C123.709 41.7162 138 51.3914 138 65.5407V154C138 165.046 129.046 174 118 174H58C46.9543 174 38 165.046 38 154V89.5407Z" fill="#2E7F1E" fill-opacity="0.08"/>
        <path d="M39 89.5407C39 81.7715 43.7301 74.785 50.9436 71.8996L110.944 47.8996C123.424 42.9074 137 52.0988 137 65.5407V154C137 164.493 128.493 173 118 173H58C47.5066 173 39 164.493 39 154V89.5407Z" stroke="url(#paint3_linear_55876_41800)" stroke-width="2"/>
    </g>
    <rect opacity="0.6" x="153" y="92" width="26" height="8" rx="4" fill="white"/>
    <rect opacity="0.6" x="153" y="108" width="20" height="8" rx="4" fill="white"/>
    <rect opacity="0.6" x="153" y="124" width="26" height="8" rx="4" fill="white"/>
    <rect opacity="0.6" x="153" y="140" width="20" height="8" rx="4" fill="white"/>
    <rect opacity="0.6" x="62" y="91" width="40" height="8" rx="4" fill="white"/>
    <rect opacity="0.6" x="62" y="107" width="52" height="8" rx="4" fill="white"/>
    <rect opacity="0.6" x="62" y="123" width="32" height="8" rx="4" fill="white"/>
    <rect opacity="0.6" x="62" y="139" width="40" height="8" rx="4" fill="white"/>
    <g filter="url(#filter2_b_55876_41800)">
        <path d="M47 150C47 162.8 34.3333 168.667 28 170C42.4 171.2 46.6667 183.167 47 189C50.6 174.2 61.8333 170.167 67 170C53.4 168 48 155.833 47 150Z" fill="#2E7F1E" fill-opacity="0.1"/>
    </g>
    <defs>
        <filter id="filter0_b_55876_41800" x="82" y="36.3884" width="134" height="147.612" filterUnits="userSpaceOnUse" color-interpolation-filters="sRGB">
            <feFlood flood-opacity="0" result="BackgroundImageFix"/>
            <feGaussianBlur in="BackgroundImageFix" stdDeviation="10"/>
            <feComposite in2="SourceAlpha" operator="in" result="effect1_backgroundBlur_55876_41800"/>
            <feBlend mode="normal" in="SourceGraphic" in2="effect1_backgroundBlur_55876_41800" result="shape"/>
        </filter>
        <filter id="filter1_b_55876_41800" x="18" y="25.5209" width="140" height="168.479" filterUnits="userSpaceOnUse" color-interpolation-filters="sRGB">
            <feFlood flood-opacity="0" result="BackgroundImageFix"/>
            <feGaussianBlur in="BackgroundImageFix" stdDeviation="10"/>
            <feComposite in2="SourceAlpha" operator="in" result="effect1_backgroundBlur_55876_41800"/>
            <feBlend mode="normal" in="SourceGraphic" in2="effect1_backgroundBlur_55876_41800" result="shape"/>
        </filter>
        <filter id="filter2_b_55876_41800" x="25" y="147" width="45" height="45" filterUnits="userSpaceOnUse" color-interpolation-filters="sRGB">
            <feFlood flood-opacity="0" result="BackgroundImageFix"/>
            <feGaussianBlur in="BackgroundImageFix" stdDeviation="1.5"/>
            <feComposite in2="SourceAlpha" operator="in" result="effect1_backgroundBlur_55876_41800"/>
            <feBlend mode="normal" in="SourceGraphic" in2="effect1_backgroundBlur_55876_41800" result="shape"/>
        </filter>
        <linearGradient id="paint0_linear_55876_41800" x1="112" y1="0" x2="112" y2="112" gradientUnits="userSpaceOnUse">
            <stop stop-color="#389625"/>
            <stop offset="1" stop-color="#389625" stop-opacity="0"/>
        </linearGradient>
        <linearGradient id="paint1_linear_55876_41800" x1="191.431" y1="60.217" x2="127.365" y2="90.7512" gradientUnits="userSpaceOnUse">
            <stop stop-color="#389625"/>
            <stop offset="1" stop-color="#389625"/>
        </linearGradient>
        <linearGradient id="paint2_linear_55876_41800" x1="149" y1="50" x2="149" y2="164" gradientUnits="userSpaceOnUse">
            <stop stop-color="white" stop-opacity="0.48"/>
            <stop offset="0.791667" stop-color="white" stop-opacity="0"/>
        </linearGradient>
        <linearGradient id="paint3_linear_55876_41800" x1="88" y1="36" x2="88" y2="174" gradientUnits="userSpaceOnUse">
            <stop stop-color="white" stop-opacity="0.48"/>
            <stop offset="0.791667" stop-color="white" stop-opacity="0"/>
        </linearGradient>
    </defs>
</svg>
