<svg width="140" height="72" viewBox="0 0 140 72" fill="none" xmlns="http://www.w3.org/2000/svg">
    <path d="M27.616 35.6642C27.6081 35.9006 27.6002 36.1369 27.5709 36.4681C27.456 36.5531 27.3625 36.5432 27.269 36.5332C26.0977 33.3019 24.9395 30.0657 23.752 26.8403C21.9966 22.072 20.2197 17.3115 18.4547 12.5467C18.3589 12.2879 18.2886 12.0197 18.1787 11.6669C19.902 11.5591 21.5346 11.4459 23.1684 11.3565C37.2584 10.5861 51.3487 9.82219 65.4386 9.05034C67.9664 8.91187 67.9696 8.89735 69.0364 11.2421C70.3042 14.0287 71.5787 16.8125 72.807 19.6165C72.9378 19.9149 72.8915 20.3998 72.7351 20.6971C71.8097 22.4563 70.8274 24.1856 69.782 25.9421C69.6657 24.733 69.6317 23.5067 69.6162 22.1999C69.5032 21.8592 69.3775 21.3763 69.2394 21.3727C67.3291 21.323 65.4172 21.3391 63.422 21.3391C63.422 21.8115 63.422 22.1524 63.422 22.4933C63.422 27.099 63.4052 31.7049 63.4368 36.3105C63.4429 37.1924 63.0345 37.1655 62.5652 37.9135C62.3823 38.2052 62.5329 38.4662 62.4467 38.8609C62.0202 37.9817 61.286 38.6908 61.8783 39.4293C61.5334 39.3353 61.8593 39.895 61.4844 39.8358C61.3463 39.4103 61.2074 39.0592 61.1014 38.6984C60.9539 38.1963 61.3006 37.4698 61.3098 36.9661C61.3345 35.616 60.8823 34.4829 60.9788 33.0724C59.5635 33.3808 58.3491 33.6454 57.0496 33.8985C56.3894 33.8796 55.8143 33.8722 55.1986 33.8332C55.0582 33.7979 54.9583 33.7944 54.7952 33.7519C52.1027 32.9095 50.8976 31.0907 51.3064 28.5434C51.6681 26.2898 53.5157 24.8799 56.1549 25.0445C57.3268 25.1176 58.479 25.5234 59.6366 25.7934C59.8961 25.854 60.1407 25.9782 60.5042 26.1154C60.5042 24.9032 60.448 23.8042 60.524 22.7145C60.5748 21.9867 60.2757 21.6896 59.6348 21.5463C56.298 20.8003 53.0032 20.8156 49.8094 22.167C48.4064 22.7606 47.1435 23.5834 46.2455 24.9491C45.7559 26.0914 45.3198 27.1997 44.8555 28.3815C44.8381 29.1135 44.8489 29.772 44.8465 30.5047C45.0659 32.18 45.5578 33.6572 46.8442 34.816C47.0607 35.0403 47.266 35.2083 47.5006 35.4324C48.012 35.7778 48.4941 36.0671 49.0076 36.4026C49.143 36.4825 49.2468 36.5163 49.3506 36.5502C50.377 36.9361 51.4034 37.3221 52.2513 37.6409C52.5801 39.3077 52.8968 40.9128 53.2357 42.6305C46.2375 44.8593 39.2267 47.0922 32.1092 49.359C30.6526 45.4352 29.2216 41.58 27.7402 37.5892C29.7895 37.5892 31.7219 37.5892 33.7745 37.5892C33.7745 35.9449 33.7745 34.4083 33.8832 32.786C34.6837 32.6862 35.378 32.7032 36.0671 32.6519C37.9363 32.5127 39.7516 32.164 41.3389 31.079C44.4791 28.9324 44.3037 24.2529 40.9069 22.6003C39.5684 21.9491 37.9698 21.8324 36.4064 21.4388C34.1683 21.4003 32.0134 21.3952 29.7962 21.3681C29.6482 21.3607 29.5626 21.3755 29.3925 21.369C28.756 21.3478 28.2038 21.3478 27.6169 21.3478C27.6169 22.4173 27.6169 23.3775 27.5958 24.4095C27.5887 24.5788 27.6025 24.6765 27.5984 24.8497C27.5925 25.2346 27.6045 25.5441 27.5955 25.9391C27.5885 26.4918 27.6025 26.959 27.5981 27.5084C27.592 28.2119 27.6042 28.8331 27.5955 29.5427C27.5887 31.1711 27.6028 32.7111 27.6002 34.3131C27.5946 34.5018 27.6058 34.6287 27.5961 34.8302C27.5888 35.158 27.6024 35.4111 27.616 35.6642ZM63.8028 13.687C62.689 14.9179 62.4445 16.7523 63.2202 18.0581C64.0051 19.3793 65.7841 20.028 67.5579 19.6397C69.264 19.2662 70.3026 18.006 70.324 16.2834C70.346 14.5123 69.3095 13.1908 67.5745 12.8185C66.2429 12.5328 65.0019 12.7366 63.8028 13.687Z" fill="#03686F"/>
    <path d="M62.5225 40.1591C62.5244 40.0833 62.5263 40.0075 62.6305 39.8828C63.8597 37.762 64.9829 35.688 66.1145 33.6185C67.3771 31.3094 68.6474 29.0044 69.9163 26.695C69.9183 26.6923 69.9225 26.6999 69.9225 26.6999C71.0263 24.8318 72.0965 22.9428 73.2421 21.1007C74.8081 18.5828 76.4034 16.0821 78.0373 13.6077C79.8942 10.7959 82.6574 9.50962 85.9082 9.10384C86.1901 9.06865 86.4759 8.98693 86.753 9.00985C87.1497 9.04265 87.6776 9.02108 87.9026 9.25759C88.2964 9.67147 88.0315 10.1481 87.7028 10.5956C85.7031 13.3175 83.6844 16.0275 81.7609 18.803C75.7279 27.5079 70.3527 36.6058 65.6284 46.0863C64.9958 47.3558 64.4625 48.6811 63.7495 49.9025C62.9636 51.2487 61.7775 52.0654 60.1347 52.1517C58.1941 52.2536 56.8516 51.4065 56.035 49.701C55.655 48.9073 55.2928 48.0848 55.0781 47.236C54.4205 44.6371 53.8202 42.0231 53.2361 39.4064C53.02 38.438 53.069 37.4789 53.8694 36.5838C54.9993 35.7555 56.0575 35.0265 57.2 34.302C58.8244 34.1598 58.9915 34.2524 59.5514 35.6632C59.749 36.161 59.8956 36.6788 60.0774 37.1832C60.439 38.1868 60.8089 39.1875 61.1997 40.2547C61.3779 40.5418 61.5317 40.7635 61.7598 41.0923C62.0642 40.7199 62.2934 40.4395 62.5225 40.1591Z" fill="#31B24C"/>
    <path d="M27.5908 34.3265C27.5766 32.7865 27.5624 31.2465 27.6576 29.6207C28.3759 28.8903 28.2792 27.7779 27.5902 27.5015C27.5762 27.0343 27.5623 26.5672 27.6546 26.0182C28.3179 25.3697 28.2784 25.1179 27.5902 24.8496C27.5763 24.7519 27.5624 24.6542 27.6582 24.4876C27.8872 23.9482 28.0792 23.4819 28.1073 23.006C28.1424 22.4125 28.1632 21.9389 28.9531 21.9521C29.1162 21.9548 29.2847 21.6361 29.4507 21.4656C29.5364 21.4508 29.622 21.4361 29.7748 21.5185C30.0251 21.7363 30.2069 21.9592 30.3918 21.9619C32.2227 21.9882 34.0543 21.991 35.885 21.9593C36.0801 21.956 36.2707 21.6912 36.4634 21.5476C37.9436 21.9077 39.5421 22.0244 40.8806 22.6756C44.2775 24.3282 44.4529 29.0078 41.3127 31.1543C39.7253 32.2394 37.9101 32.5881 36.0409 32.7273C35.3517 32.7786 34.6575 32.7615 33.8755 32.7736C33.1088 32.7778 33.0632 33.2652 33.0558 33.7561C33.043 34.6079 33.0915 35.4632 33.0237 36.3098C33.0057 36.5351 32.6647 36.9086 32.4603 36.9166C31.0776 36.9707 29.6917 36.9448 28.3964 36.9448C28.1504 36.501 27.954 36.1468 27.6737 35.7661C27.5762 35.4865 27.5626 35.2334 27.6513 34.9119C27.8558 34.7291 27.9579 34.6147 28.06 34.5002C27.9036 34.4423 27.7472 34.3844 27.5908 34.3265ZM37.1367 25.7771C36.1502 24.8246 34.9406 24.9134 33.7278 24.9192C33.7278 26.4387 33.7278 27.8305 33.7278 29.3153C35.0142 29.2082 36.3172 29.4042 37.1771 28.2834C37.737 27.5536 37.7087 26.6993 37.1367 25.7771Z" fill="#F7F8F8"/>
    <path d="M82.9907 36.3779C82.9908 31.9968 82.9908 27.7102 82.9908 23.3938C85.4027 23.3938 87.7393 23.2373 90.0446 23.439C92.2397 23.631 93.7053 25.0705 94.4716 27.108C95.572 30.0336 95.5402 33.0082 94.3816 35.8946C93.4066 38.3237 91.5306 39.5897 88.8514 39.5656C86.9336 39.5483 85.0155 39.5622 82.9907 39.5622C82.9907 38.4771 82.9907 37.4747 82.9907 36.3779ZM92.1598 31.5523C92.0126 30.5897 91.9549 29.602 91.6953 28.6707C91.3789 27.5356 90.5818 26.7193 89.3933 26.525C88.324 26.3502 87.2235 26.3661 86.1236 26.2971C86.1236 29.7988 86.1236 33.1258 86.1236 36.5347C86.8743 36.5347 87.5632 36.5406 88.2519 36.5336C90.4257 36.5115 91.5648 35.5737 91.9855 33.4198C92.0938 32.8659 92.1044 32.2929 92.1598 31.5523Z" fill="#056A71"/>
    <path d="M57.1158 34.2968C56.0575 35.0257 54.9993 35.7546 53.8994 36.513C52.5785 37.199 51.3572 36.8233 50.1229 36.371C49.9086 36.2925 49.6113 36.4401 49.3382 36.5543C49.2203 36.5915 49.1164 36.5577 48.985 36.4054C48.5325 35.8989 48.1075 35.5108 47.6825 35.1227C47.6032 35.2323 47.524 35.3418 47.4447 35.4514C47.2394 35.2834 47.0341 35.1155 46.8414 34.8096C46.7721 34.414 46.6996 34.1531 46.6067 33.8996C46.2586 32.9502 45.9335 31.9902 45.5312 31.0641C45.4262 30.8224 45.0726 30.6888 44.8331 30.5056C44.8223 29.8472 44.8115 29.1887 44.9046 28.4612C45.0692 28.38 45.1715 28.3849 45.1845 28.3533C45.616 27.301 46.0412 26.2462 46.4532 25.1862C46.4673 25.1498 46.336 25.0568 46.2725 24.9901C47.117 23.6586 48.3798 22.8358 49.7829 22.2421C52.9766 20.8908 56.2714 20.8754 59.6083 21.6215C60.2491 21.7648 60.5482 22.0619 60.4975 22.7896C60.4214 23.8794 60.4777 24.9784 60.4777 26.1906C60.1142 26.0534 59.8695 25.9291 59.61 25.8686C58.4525 25.5986 57.3002 25.1928 56.1284 25.1197C53.4891 24.9551 51.6415 26.365 51.2798 28.6186C50.871 31.1659 52.0762 32.9846 54.7839 33.8696C54.9793 33.9475 55.096 33.9438 55.2127 33.9401C55.7878 33.9474 56.3629 33.9547 57.0227 34.0256C57.1103 34.1584 57.113 34.2276 57.1158 34.2968Z" fill="#F6F8F8"/>
    <path d="M98.4683 24.2925C100.639 22.6468 102.928 22.6204 105.207 23.734C106.963 24.5919 107.613 26.199 107.596 28.1672C106.61 28.1672 105.678 28.1672 104.751 28.1672C104.149 26.1833 103.366 25.5895 101.622 25.7824C100.689 25.8857 100.041 26.4651 99.9165 27.2849C99.7722 28.2388 100.246 28.7875 101.094 29.0662C102.232 29.4403 103.378 29.7881 104.522 30.1426C106.936 30.8906 108.129 32.4726 108.081 34.8653C108.031 37.3045 106.659 39.061 104.274 39.6434C102.774 40.0097 101.266 39.9628 99.8007 39.4325C97.6206 38.6435 96.2995 36.5177 96.5612 34.1845C97.4552 34.1845 98.3583 34.1845 99.3154 34.1845C99.3455 34.2609 99.4067 34.3673 99.4294 34.4814C99.8675 36.6903 101.726 37.7201 103.826 36.897C104.549 36.6138 105.041 36.1184 105.105 35.2919C105.166 34.5056 104.806 33.9414 104.143 33.589C103.673 33.3395 103.165 33.1541 102.66 32.9816C101.855 32.7065 101.024 32.5015 100.228 32.2048C96.5941 30.8514 95.7512 27.1617 98.4683 24.2925Z" fill="#066A71"/>
    <path d="M115.682 29.7496C116.179 29.8929 116.604 30.0111 117.027 30.1402C119.498 30.8959 120.693 32.5435 120.588 35.0439C120.487 37.4334 119.028 39.1793 116.617 39.6885C115.145 39.9994 113.666 39.9491 112.237 39.4053C110.119 38.5994 108.843 36.5252 109.063 34.1878C109.957 34.1878 110.86 34.1878 111.824 34.1878C111.851 34.2494 111.933 34.3548 111.941 34.4655C112.12 36.9551 114.503 37.4632 116.235 36.9283C117.006 36.6898 117.54 36.1807 117.616 35.3081C117.689 34.4767 117.292 33.9057 116.592 33.5478C116.119 33.3053 115.607 33.1298 115.101 32.9583C114.265 32.6751 113.406 32.4568 112.582 32.1449C110.312 31.2861 109.298 29.7689 109.447 27.5331C109.591 25.3583 110.984 23.7033 113.16 23.1851C114.512 22.863 115.863 22.9534 117.161 23.4502C119.077 24.1831 120.09 25.8081 120.093 28.1426C119.172 28.1426 118.245 28.1426 117.305 28.1426C116.496 26.1082 115.878 25.6324 114.201 25.7779C113.262 25.8593 112.58 26.4177 112.439 27.2188C112.276 28.152 112.578 28.6547 113.635 29.074C114.279 29.3291 114.95 29.5134 115.682 29.7496Z" fill="#066A71"/>
    <path d="M69.5719 22.3562C69.6059 23.5825 69.6398 24.8087 69.7387 26.0809C69.8243 26.2553 69.8451 26.3837 69.8945 26.6059C69.9232 26.6995 69.919 26.6919 69.857 26.6436C69.5949 26.4706 69.3949 26.3459 69.2592 26.2614C67.6751 29.1248 66.1189 31.9376 64.5628 34.7504C64.4425 34.7103 64.3221 34.6701 64.2018 34.63C64.1766 34.3384 64.1216 34.0457 64.1316 33.7553C64.1653 32.7859 64.2691 31.8169 64.2612 30.8485C64.2395 28.1772 64.1842 25.5061 64.1196 22.8355C64.1058 22.262 64.3809 22.1418 64.8721 22.1647C66.4383 22.2378 68.0053 22.2937 69.5719 22.3562Z" fill="#F6F8F8"/>
    <path d="M74.2351 47.447C74.3989 48.1371 74.4812 48.7761 74.7217 49.3486C75.2516 50.6098 76.3332 51.2408 77.5628 51.1098C78.6867 50.9901 79.4931 50.1903 79.8138 48.8677C79.8725 48.6255 79.9053 48.377 79.9612 48.0704C80.3379 48.0704 80.6989 48.0704 81.0606 48.0704C81.2614 49.7496 80.1805 51.571 78.6517 52.1343C76.8843 52.7855 74.986 52.2019 73.952 50.6894C72.5423 48.6273 72.6027 44.6914 74.0747 42.6844C75.0775 41.3171 76.689 40.7482 78.3538 41.1737C79.8602 41.5587 80.8136 42.7173 81.0515 44.5038C80.3677 44.6853 79.8721 44.7316 79.5934 43.8187C79.2897 42.8242 78.4432 42.3533 77.4053 42.3016C76.2416 42.2436 75.2635 42.7523 74.8924 43.7957C74.4916 44.9223 74.4331 46.1705 74.2351 47.447Z" fill="#0D6D74"/>
    <path d="M71.646 36.8334C71.4627 36.8794 71.3459 36.9 71.0625 36.95C72.8722 33.8563 74.6076 30.8896 76.4436 27.751C77.4698 30.0246 78.4187 32.127 79.419 34.3433C76.7914 35.1836 74.252 35.9958 71.646 36.8334Z" fill="#076B71"/>
    <path d="M116.654 44.1752C117.463 44.3793 118.193 44.5856 118.99 44.8107C118.99 43.7758 118.99 42.6308 118.99 41.4189C119.41 41.4189 119.735 41.4189 120.12 41.4189C120.12 44.9746 120.12 48.5225 120.12 52.3397C119.628 52.1411 119.224 51.9782 118.682 51.7597C116.748 53.1448 114.434 52.2667 113.996 49.6144C113.817 48.5343 113.934 47.3514 114.171 46.2713C114.431 45.0856 115.3 44.3325 116.654 44.1752ZM117.356 45.3485C116.6 45.2317 115.989 45.4649 115.552 46.1042C114.832 47.1576 114.853 49.4124 115.589 50.4369C116.187 51.2697 117.31 51.4719 118.088 50.8869C119.667 49.6992 119.297 46.244 117.356 45.3485Z" fill="#117076"/>
    <path d="M107.146 49.7852C107.201 48.5331 107.089 47.309 107.389 46.1957C107.762 44.8133 108.962 44.124 110.249 44.1723C111.438 44.217 112.37 44.9596 112.801 46.3385C113.02 47.0375 113.077 47.7868 113.23 48.6356C111.455 48.6356 109.863 48.6356 108.301 48.6356C107.922 49.9879 109.067 51.3954 110.237 51.172C110.759 51.0724 111.411 50.7441 111.656 50.3191C112.008 49.7081 112.355 49.618 112.926 49.7904C112.822 51.086 112.121 51.989 111.004 52.2772C109.709 52.6113 108.424 52.1893 107.743 51.1453C107.489 50.7569 107.352 50.2922 107.146 49.7852ZM109.524 47.5214C110.296 47.5214 111.068 47.5214 111.823 47.5214C112.011 46.2072 110.803 45.2354 109.959 45.3059C108.915 45.3932 108.181 46.3205 108.326 47.5214C108.659 47.5214 109.001 47.5214 109.524 47.5214Z" fill="#117076"/>
    <path d="M82.2598 47.6625C82.6077 45.273 83.9701 43.9565 85.7838 44.1871C87.4465 44.3985 88.5942 46.3649 88.3095 48.631C86.7288 48.631 85.133 48.631 83.5495 48.631C83.3808 50.2327 84.2663 51.3486 85.603 51.1675C86.0903 51.1015 86.7158 50.7362 86.936 50.3245C87.2742 49.692 87.6206 49.6163 88.1913 49.8085C88.0706 51.1666 87.324 52.0657 86.1392 52.3036C84.6559 52.6013 83.2727 52.032 82.7724 50.6861C82.4308 49.7669 82.4128 48.7274 82.2598 47.6625ZM84.7123 47.5223C85.5209 47.5223 86.3295 47.5223 87.1449 47.5223C87.0304 46.0919 86.2621 45.255 85.2123 45.3147C84.2303 45.3706 83.5479 46.2226 83.5201 47.5224C83.8592 47.5224 84.1971 47.5224 84.7123 47.5223Z" fill="#106F76"/>
    <path d="M67.1771 61.0103C67.3287 61.0507 67.5456 61.0452 67.5744 60.9688C67.8405 60.2623 68.1234 59.5557 68.3043 58.825C68.5082 58.0012 68.9446 57.741 69.8004 58.054C69.2253 59.7079 68.6681 61.369 68.0502 63.0071C67.9788 63.1964 67.5609 63.3667 67.319 63.348C67.0831 63.3297 66.7478 63.1048 66.6623 62.8889C66.2567 61.8659 65.9327 60.8108 65.5558 59.7759C65.4177 59.3969 65.4085 58.8342 64.7307 59.012C64.1308 59.1694 63.5452 59.3562 63.531 60.1207C63.5118 61.1582 63.5262 62.1963 63.5262 63.3077C63.1362 63.3077 62.782 63.3077 62.3794 63.3077C62.3794 61.5432 62.3794 59.7941 62.3794 57.8461C62.8054 58.0303 63.1293 58.1704 63.5218 58.3402C63.7437 58.2404 64.0707 58.0411 64.4256 57.9433C65.5501 57.6336 66.1582 57.9676 66.5259 59.0508C66.7384 59.6767 66.9455 60.3045 67.1771 61.0103Z" fill="#0F0F0F"/>
    <path d="M53.1322 58.506C53.6449 58.889 54.1248 59.2623 54.6668 59.4826C55.4464 59.7994 56.22 60.0546 56.3746 61.0399C56.5751 62.3174 55.8798 63.2531 54.5694 63.4489C52.9555 63.6902 52.0207 63.0339 51.8213 61.4627C52.1046 61.3908 52.3956 61.317 52.7506 61.2269C52.9447 62.1568 53.5106 62.5918 54.3885 62.3522C54.7046 62.266 55.0872 61.8989 55.1552 61.5962C55.2078 61.3619 54.8802 60.9206 54.6099 60.7633C54.1838 60.5154 53.6625 60.4327 53.184 60.2728C52.231 59.9544 51.8679 59.2613 51.9341 58.295C51.9986 57.3536 52.5164 56.7917 53.4019 56.5464C55.0152 56.0995 56.1 56.7759 56.3596 58.4591C56.0804 58.5291 55.7928 58.6012 55.4418 58.6892C55.2033 57.9817 54.8939 57.3841 53.9981 57.5215C53.4483 57.6057 53.1183 57.8376 53.1322 58.506Z" fill="#101010"/>
    <path d="M106.239 63.0685C105.292 61.77 105.365 60.3977 105.809 59.0502C106.162 57.978 107.008 57.7152 108.757 57.9761C108.788 57.4615 108.819 56.9506 108.854 56.3666C109.206 56.3243 109.538 56.2845 109.932 56.2373C109.932 58.6212 109.932 60.9358 109.932 63.4515C109.502 63.29 109.148 63.1568 108.724 62.9974C108.011 63.4562 107.184 63.7695 106.239 63.0685ZM106.852 59.5666C106.826 60.22 106.695 60.8942 106.818 61.5188C106.885 61.8624 107.51 62.4264 107.655 62.3635C108.101 62.171 108.553 61.7844 108.778 61.3556C108.959 61.0115 108.868 60.4867 108.796 60.059C108.733 59.6826 108.628 59.1436 108.368 59.006C107.862 58.739 107.255 58.7733 106.852 59.5666Z" fill="#0D0D0D"/>
    <path d="M27.923 63.1216C25.7287 64.0513 24.301 63.1301 24.243 60.8277C24.2018 59.1892 24.7142 58.2425 25.814 57.9258C27.7083 57.3803 28.9924 58.7105 28.6498 60.9637C27.6089 60.9637 26.5525 60.9637 25.1428 60.9637C25.5803 61.5767 25.7784 62.1461 26.1562 62.316C26.7398 62.5784 27.3734 62.498 27.6775 61.6828C27.7506 61.487 28.2712 61.4581 28.5861 61.3524C28.6657 61.4421 28.7453 61.5318 28.825 61.6215C28.545 62.108 28.2649 62.5944 27.923 63.1216ZM26.2168 58.9234C25.9522 59.1945 25.6875 59.4655 25.2893 59.8734C26.2264 59.8734 26.8672 59.8734 27.533 59.8734C27.4506 59.1086 27.0392 58.8445 26.2168 58.9234Z" fill="#121212"/>
    <path d="M79.6581 60.9569C79.1965 60.9568 78.8283 60.9568 78.4271 60.9568C78.4496 61.6429 78.4757 62.2418 79.2012 62.373C79.8096 62.483 80.3791 62.4613 80.6351 61.6722C80.6949 61.4876 81.2275 61.4565 81.5903 61.3394C81.5592 62.6588 81.0958 63.2508 80.0824 63.441C78.8367 63.6749 77.7035 63.2139 77.4561 62.1774C77.2576 61.3456 77.2299 60.4272 77.3459 59.5773C77.5078 58.3925 78.3751 57.7932 79.5511 57.8213C80.693 57.8485 81.4178 58.454 81.6445 59.6131C81.7217 60.008 81.7217 60.418 81.7688 60.9569C81.0481 60.9569 80.3998 60.9569 79.6581 60.9569ZM78.5322 59.5223C78.6346 59.6572 78.7285 59.8998 78.8408 59.9086C79.3655 59.9501 79.8952 59.927 80.4231 59.927C80.4726 59.8549 80.5221 59.7829 80.5716 59.7108C80.3242 59.4515 80.0911 58.9981 79.8259 58.9785C79.428 58.949 79.0075 59.2237 78.5322 59.5223Z" fill="#131313"/>
    <path d="M59.0377 62.4095C59.6457 62.415 60.086 62.3493 60.3305 61.7407C60.4188 61.521 60.8986 61.4586 61.2375 61.3076C61.3414 62.5171 60.9068 63.1608 59.9442 63.4095C58.7229 63.725 57.4072 63.2739 57.1979 62.2342C56.9946 61.2239 57.006 60.1056 57.216 59.0957C57.4174 58.127 58.334 57.8022 59.3017 57.8308C60.3128 57.8607 61.025 58.3645 61.2717 59.2917C61.4053 59.7938 61.4179 60.3281 61.4976 60.9449C60.32 60.9449 59.2601 60.9449 58.1642 60.9449C58.1321 61.6621 58.1957 62.2216 59.0377 62.4095ZM59.2851 59.9308C59.5767 59.9153 59.8682 59.8997 60.1757 59.8833C60.1231 59.1005 59.711 58.8618 59.0963 58.9046C58.5154 58.945 58.2158 59.2597 58.2297 59.9308C58.553 59.9308 58.8304 59.9308 59.2851 59.9308Z" fill="#131313"/>
    <path d="M113.981 62.2472C114.301 61.7043 114.509 61.1268 115.267 61.4985C115.321 62.5817 114.845 63.227 113.83 63.4345C112.597 63.6869 111.422 63.2366 111.185 62.2075C110.98 61.3161 110.962 60.3312 111.1 59.4242C111.265 58.3413 112.127 57.8072 113.238 57.8257C114.359 57.8442 115.087 58.4088 115.332 59.5011C115.427 59.9246 115.438 60.367 115.501 60.9244C114.34 60.9244 113.256 60.9244 112.174 60.9244C112.21 62.3175 112.57 62.5762 113.981 62.2472ZM113.883 59.1011C112.78 58.6992 112.367 58.9005 112.298 59.8822C112.914 59.8822 113.529 59.8822 114.23 59.8822C114.133 59.6168 114.061 59.421 113.883 59.1011Z" fill="#131313"/>
    <path d="M36.249 62.4159C36.5875 62.2543 36.8518 62.1118 37.0986 61.9437C37.4094 61.7321 37.7059 61.4995 38.1601 61.164C38.1674 62.6282 37.6996 63.2418 36.6838 63.4402C35.4411 63.683 34.2986 63.23 34.0511 62.1877C33.8465 61.3263 33.823 60.3725 33.9515 59.4937C34.1168 58.3627 34.9881 57.7986 36.1357 57.8262C37.2874 57.8538 38.0068 58.458 38.2242 59.6175C38.2984 60.0133 38.3063 60.4215 38.3535 60.9203C37.2206 60.9203 36.1616 60.9203 35.0475 60.9203C34.9857 61.8371 35.1901 62.4209 36.249 62.4159ZM35.5313 59.0077C35.3612 59.2663 35.1911 59.5249 34.9757 59.8523C35.7761 59.8523 36.4064 59.8523 37.0928 59.8523C36.9145 58.9569 36.3909 58.8003 35.5313 59.0077Z" fill="#131313"/>
    <path d="M92.7366 44.1393C93.1423 44.243 93.548 44.3466 94.0755 44.4813C94.0755 43.5867 94.0755 42.844 94.0755 42.0303C94.4895 42.0303 94.8139 42.0303 95.2317 42.0303C95.2317 42.8002 95.2317 43.5421 95.2317 44.3247C95.691 44.3567 96.0614 44.3825 96.5091 44.4137C96.5091 44.7387 96.5091 45.0617 96.5091 45.4458C96.1251 45.4816 95.7329 45.5183 95.2413 45.5642C95.2413 47.1958 95.184 48.7984 95.2904 50.3901C95.3113 50.7026 95.9648 50.9728 96.3266 51.2625C96.3902 51.2017 96.4538 51.1409 96.5174 51.0801C96.5407 51.2605 96.5768 51.4404 96.5831 51.6214C96.5883 51.7717 96.5583 51.9232 96.545 52.0638C94.5107 52.3504 94.1103 52.0158 94.1073 50.0635C94.1051 48.5862 94.1069 47.1089 94.1069 45.5274C93.5807 45.5274 93.1218 45.5274 92.6318 45.4382C92.646 44.9458 92.6913 44.5426 92.7366 44.1393Z" fill="#117077"/>
    <path d="M102.232 46.1154C102.231 48.1515 102.231 50.1001 102.231 52.0991C101.839 52.0991 101.537 52.0991 101.128 52.0991C101.128 49.9365 101.128 47.7778 101.128 45.5723C100.726 45.5272 100.424 45.4932 100.054 45.4516C100.054 45.1214 100.054 44.7987 100.054 44.4237C100.388 44.3936 100.693 44.3662 101.113 44.3284C101.113 43.852 101.082 43.3851 101.119 42.9235C101.201 41.8943 101.759 41.3523 102.719 41.264C103.56 41.1866 103.917 41.4754 103.63 42.3349C102.195 42.522 102.139 42.6006 102.297 44.3056C102.644 44.343 103.007 44.3821 103.446 44.4294C103.446 44.7457 103.446 45.066 103.446 45.3664C103.121 45.7683 102.237 45.0687 102.232 46.1154Z" fill="#117077"/>
    <path d="M85.1214 56.8968C85.7841 56.3738 87.9026 56.4342 88.5779 56.9184C89.2549 57.4037 89.553 58.5688 89.2585 59.5976C89.0109 60.4621 88.3928 60.8801 87.5361 60.968C87.1671 61.0058 86.791 60.9743 86.3512 60.9743C86.3512 61.7613 86.3512 62.4739 86.3512 63.2571C85.9297 63.2571 85.576 63.2571 85.1201 63.2571C85.1201 61.1635 85.1201 59.0686 85.1214 56.8968ZM86.3077 59.3713C86.475 59.5562 86.688 59.9225 86.8016 59.894C87.2382 59.7842 87.844 59.6504 88.0064 59.3318C88.1923 58.9672 88.147 58.2284 87.8858 57.9585C87.5729 57.6352 86.9255 57.6358 86.3076 57.464C86.3076 58.199 86.3076 58.6951 86.3077 59.3713Z" fill="#0C0C0C"/>
    <path d="M97.8786 60.9732C97.6857 62.864 96.7216 63.6935 95.0914 63.4484C94.9371 63.4252 94.7824 63.3863 94.6357 63.3333C93.3477 62.8688 92.7598 60.9103 93.4005 59.2296C93.8512 58.0475 95.1752 57.4884 96.4586 57.985C97.8059 58.5065 97.8963 59.6801 97.8786 60.9732ZM96.5338 61.8316C96.5577 61.1176 96.7038 60.3764 96.5533 59.7013C96.4793 59.3694 95.8624 58.9673 95.4789 58.9542C95.1514 58.943 94.6551 59.3789 94.5078 59.7316C94.3262 60.1661 94.332 60.7411 94.4381 61.2148C94.5297 61.6232 94.8061 62.1927 95.1266 62.2945C95.4996 62.4128 96.0096 62.0996 96.5338 61.8316Z" fill="#101010"/>
    <path d="M76.67 62.3374C76.0715 63.3223 75.334 63.6473 74.2459 63.4472C73.2907 63.2715 72.6951 62.6625 72.6028 61.7327C72.5203 60.9012 72.5228 60.0217 72.7071 59.2133C72.9409 58.1876 73.9427 57.6997 75.1043 57.8414C76.1897 57.9738 76.632 58.4505 76.7817 59.7343C76.5052 59.796 76.218 59.8601 75.9309 59.9242C75.961 59.8198 75.9911 59.7155 76.0211 59.6112C75.5378 59.3792 75.0583 58.9667 74.5702 58.9563C73.7826 58.9396 73.7542 59.6986 73.6814 60.2894C73.6432 60.5985 73.6672 60.9208 73.7033 61.2324C73.7725 61.8297 73.9466 62.3729 74.6814 62.4141C75.3334 62.4507 75.8256 62.2494 75.7601 61.4521C76.1363 61.4521 76.4112 61.4521 76.8029 61.4521C76.7623 61.7466 76.7264 62.007 76.67 62.3374Z" fill="#121212"/>
    <path d="M92.663 44.1201C92.691 44.5421 92.6457 44.9454 92.5705 45.418C91.2164 45.7603 90.6414 46.6636 90.5987 47.9248C90.552 49.3031 90.5881 50.6842 90.5881 52.1049C90.1548 52.1049 89.8505 52.1049 89.4893 52.1049C89.4893 49.5092 89.4893 46.9412 89.4893 44.3145C89.782 44.299 90.0557 44.2844 90.4129 44.2654C90.4424 44.7024 90.4689 45.0946 90.4818 45.286C91.1478 44.9117 91.8687 44.5065 92.663 44.1201Z" fill="#05686F"/>
    <path d="M30.1103 61.7053C29.6714 60.4491 29.2619 59.2607 28.8276 58.0008C29.261 58.0008 29.6226 58.0008 30.0271 58.0008C30.4176 59.1256 30.8081 60.2506 31.2571 61.5438C31.7091 60.2544 32.1033 59.1301 32.5006 57.9971C32.8959 57.9971 33.2601 57.9971 33.7029 57.9971C33.1078 59.7015 32.5551 61.3414 31.9447 62.9595C31.8695 63.1588 31.4832 63.3528 31.2458 63.3472C31.0099 63.3416 30.6951 63.1326 30.5668 62.9207C30.3591 62.5777 30.2755 62.1595 30.1103 61.7053Z" fill="#0F0F0F"/>
    <path d="M98.2872 58.8736C98.1867 58.5627 98.1125 58.3243 98.0156 58.0129C98.4228 58.0129 98.7802 58.0129 99.2007 58.0129C99.5831 59.1178 99.9731 60.2446 100.426 61.5527C100.78 60.5382 101.077 59.6866 101.375 58.8349C101.708 57.8809 101.708 57.8809 102.851 58.0506C102.267 59.7216 101.706 61.3859 101.084 63.027C101.014 63.2125 100.586 63.3784 100.348 63.3512C100.114 63.3246 99.7969 63.0829 99.7113 62.8605C99.2135 61.568 98.7732 60.2533 98.2872 58.8736Z" fill="#0D0D0D"/>
    <path d="M45.5704 56.9079C46.0772 56.7683 46.5125 56.6518 47.0619 56.5049C47.0619 58.5173 47.0619 60.3623 47.0619 62.2669C47.5231 62.3034 47.9163 62.3344 48.345 62.3683C48.345 62.7023 48.345 62.9997 48.345 63.3372C47.1111 63.3372 45.9212 63.3372 44.6462 63.3372C44.6213 63.0404 44.5967 62.7458 44.5659 62.3791C45.0062 62.3435 45.3992 62.3116 45.8344 62.2764C45.8344 60.8462 45.8344 59.4461 45.8344 58.0189C45.44 57.9964 45.0992 57.9769 44.7393 57.9564C44.2979 57.0876 44.9557 57.0512 45.5704 56.9079Z" fill="#0A0A0A"/>
    <path d="M21.7414 58.0054C21.7414 59.4789 21.7414 60.8609 21.7414 62.3021C22.5079 62.3021 23.2243 62.3021 24.0338 62.3021C24.0597 62.6471 24.0817 62.9402 24.1095 63.3106C22.9052 63.3106 21.7654 63.3106 20.5845 63.3106C20.5845 61.0952 20.5845 58.9055 20.5845 56.6611C20.9666 56.6611 21.3231 56.6611 21.7414 56.6611C21.7414 57.102 21.7414 57.508 21.7414 58.0054Z" fill="#090909"/>
    <path d="M104.553 47.3693C104.553 46.3328 104.553 45.3908 104.553 44.348C104.919 44.3304 105.246 44.3146 105.635 44.2959C105.635 46.9256 105.635 49.4886 105.635 52.1068C105.296 52.1068 104.97 52.1068 104.553 52.1068C104.553 50.5298 104.553 48.9968 104.553 47.3693Z" fill="#16737A"/>
    <path d="M40.3994 58.1779C40.3994 59.9338 40.3994 61.5965 40.3994 63.3216C40.0113 63.3216 39.6801 63.3216 39.2778 63.3216C39.2778 61.0567 39.2778 58.7787 39.2778 56.3916C39.5968 56.3394 39.9483 56.2819 40.3994 56.208C40.3994 56.9011 40.3994 57.4929 40.3994 58.1779Z" fill="#101010"/>
    <path d="M90.1856 61.5617C90.1884 60.3993 90.1905 59.3291 90.196 58.2589C90.1963 58.1982 90.2248 58.1375 90.2811 57.9149C90.6199 58.0278 90.9468 58.1367 91.4007 58.2879C91.7821 58.1585 92.3543 57.9642 93.0545 57.7266C93.0762 58.2243 93.0906 58.5537 93.1046 58.8734C91.4185 59.3042 91.3801 59.3538 91.3801 61.0424C91.3801 61.7898 91.3801 62.5371 91.3801 63.332C90.9656 63.332 90.6325 63.332 90.1855 63.332C90.1855 62.7652 90.1855 62.2096 90.1856 61.5617Z" fill="#0D0D0D"/>
    <path d="M116.341 62.7869C116.341 61.1619 116.341 59.62 116.341 57.8853C116.77 58.0264 117.096 58.1339 117.565 58.2883C117.93 58.1618 118.501 57.9639 119.203 57.7207C119.227 58.2198 119.243 58.5495 119.258 58.8682C117.544 59.3159 117.528 59.3374 117.528 61.0344C117.528 61.7826 117.528 62.5307 117.528 63.3718C117.036 63.2473 116.421 63.7825 116.341 62.7869Z" fill="#0D0D0D"/>
    <path d="M99.0237 47.9366C99.0237 49.3536 99.0237 50.6759 99.0237 52.106C98.6692 52.1244 98.3474 52.141 97.957 52.1613C97.957 49.5267 97.957 46.9665 97.957 44.3584C98.3012 44.3584 98.603 44.3584 99.0237 44.3584C99.0237 45.5294 99.0237 46.6856 99.0237 47.9366Z" fill="#117077"/>
    <path d="M104.202 57.958C104.384 58.1672 104.595 58.3757 104.599 58.5879C104.628 60.1313 104.615 61.6753 104.615 63.3431C104.24 63.3637 103.885 63.3833 103.387 63.4107C103.387 61.6509 103.373 59.9634 103.419 58.2776C103.423 58.1649 103.886 58.0649 104.202 57.958Z" fill="#222222"/>
    <path d="M71.5376 63.0008C71.1991 63.2157 70.862 63.3456 70.4238 63.5145C70.4238 61.5709 70.4238 59.8238 70.4238 58.0234C70.7607 58.0234 71.0899 58.0234 71.539 58.0234C71.539 59.6537 71.539 61.2847 71.5376 63.0008Z" fill="#0A0A0A"/>
    <path d="M105.216 42.9934C103.932 42.8467 104.853 41.9679 104.47 41.416C104.939 41.416 105.261 41.416 105.656 41.416C105.495 41.9424 106.141 42.6056 105.216 42.9934Z" fill="#16737A"/>
    <path d="M99.0318 41.9333C99.0319 42.3153 99.0319 42.6205 99.0319 42.9598C98.6332 42.9598 98.3284 42.9598 97.957 42.9598C97.957 42.4538 97.957 41.9738 97.957 41.4198C98.3794 41.4262 98.9326 40.9753 99.0318 41.9333Z" fill="#16737A"/>
    <path d="M71.3291 56.2881C71.3975 56.6856 71.4635 57.0621 71.379 57.4011C71.3586 57.4829 70.751 57.5572 70.5758 57.423C70.3957 57.2852 70.2672 56.7608 70.3783 56.6326C70.5685 56.413 70.9628 56.3703 71.3291 56.2881Z" fill="#131313"/>
    <path d="M104.666 57.0127C104.336 57.2273 104.013 57.369 103.689 57.5107C103.579 57.2438 103.364 56.9651 103.393 56.7138C103.414 56.5219 103.856 56.1847 103.917 56.2227C104.206 56.4035 104.428 56.6905 104.666 57.0127Z" fill="#131313"/>
    <path d="M27.2275 36.6861C27.3366 36.6182 27.4301 36.6282 27.5661 36.6104C27.5898 36.7971 27.5709 37.0117 27.5521 37.2263C27.4387 37.0722 27.3253 36.918 27.2275 36.6861Z" fill="#F7F8F8"/>
    <path d="M63.8283 13.7164C64.9757 12.8117 66.2167 12.608 67.5484 12.8937C69.2833 13.2659 70.3198 14.5874 70.2978 16.3586C70.2764 18.0811 69.2378 19.3413 67.5317 19.7148C65.7579 20.1031 63.9789 19.4545 63.194 18.1332C62.4184 16.8275 62.6629 14.9931 63.8283 13.7164Z" fill="#F5F7F7"/>
    <path d="M69.5899 22.2754C68.0048 22.2935 66.4378 22.2376 64.8716 22.1645C64.3804 22.1416 64.1053 22.2618 64.1191 22.8353C64.1837 25.5059 64.239 28.177 64.2607 30.8483C64.2686 31.8167 64.1648 32.7857 64.1311 33.7551C64.1211 34.0455 64.1761 34.3382 64.2013 34.6298C64.3216 34.6699 64.442 34.7101 64.5623 34.7502C66.1184 31.9374 67.6746 29.1246 69.2587 26.2612C69.3944 26.3457 69.5944 26.4704 69.8545 26.6461C68.6476 29.0039 67.3773 31.3089 66.1147 33.618C64.9831 35.6875 63.8599 37.7615 62.6649 39.8614C62.6488 39.5156 62.5913 39.0731 62.7742 38.7814C63.2435 38.0333 63.4166 37.2679 63.4105 36.386C63.3788 31.7804 63.3957 27.1745 63.3957 22.5688C63.3957 22.2279 63.3957 21.887 63.3957 21.4146C65.3909 21.4146 67.3028 21.3985 69.213 21.4482C69.3512 21.4518 69.4769 21.9347 69.5899 22.2754Z" fill="#FDFDFD"/>
    <path d="M57.2001 34.3021C57.1131 34.2285 57.1104 34.1593 57.1079 34.0381C58.3226 33.7215 59.537 33.4569 60.9524 33.1484C60.8558 34.559 60.719 35.9071 60.6943 37.2572C60.6851 37.7609 60.9274 38.2724 61.0749 38.7745C61.1809 39.1353 61.3198 39.4864 61.4222 39.9634C61.3254 40.1198 61.2504 40.1547 61.1754 40.1895C60.809 39.1876 60.4391 38.1869 60.0775 37.1833C59.8957 36.6789 59.7491 36.1611 59.5515 35.6633C58.9915 34.2524 58.8245 34.1598 57.2001 34.3021Z" fill="#E2EFEB"/>
    <path d="M36.3805 21.5161C36.271 21.6931 36.0804 21.958 35.8853 21.9613C34.0546 21.993 32.223 21.9902 30.3921 21.9639C30.2072 21.9612 30.0254 21.7383 29.8374 21.5426C31.9875 21.4726 34.1424 21.4776 36.3805 21.5161Z" fill="#FDFDFD"/>
    <path d="M44.8208 30.582C45.0734 30.691 45.4271 30.8246 45.532 31.0662C45.9344 31.9924 46.2594 32.9524 46.6076 33.9018C46.7005 34.1553 46.773 34.4162 46.831 34.7554C45.5321 33.7346 45.0402 32.2574 44.8208 30.582Z" fill="#FDFDFD"/>
    <path d="M29.3665 21.445C29.2849 21.6368 29.1164 21.9555 28.9533 21.9528C28.1634 21.9396 28.1426 22.4132 28.1075 23.0066C28.0793 23.4826 27.8874 23.9488 27.6794 24.4166C27.5908 23.4536 27.5908 22.4934 27.5908 21.4238C28.1778 21.4238 28.7299 21.4238 29.3665 21.445Z" fill="#FDFDFD"/>
    <path d="M46.2188 25.0254C46.3358 25.0579 46.4672 25.1509 46.453 25.1874C46.041 26.2474 45.6158 27.3022 45.1843 28.3544C45.1713 28.3861 45.069 28.3811 44.9326 28.3887C45.293 27.276 45.7291 26.1678 46.2188 25.0254Z" fill="#FDFDFD"/>
    <path d="M47.4741 35.5088C47.524 35.3431 47.6033 35.2336 47.6825 35.124C48.1075 35.5121 48.5325 35.9002 48.9536 36.3606C48.4676 36.1436 47.9855 35.8543 47.4741 35.5088Z" fill="#FDFDFD"/>
    <path d="M27.5716 27.584C28.2789 27.7781 28.3756 28.8905 27.6783 29.5325C27.5777 28.9087 27.5655 28.2875 27.5716 27.584Z" fill="#FDFDFD"/>
    <path d="M61.2002 40.2559C61.2508 40.1558 61.3258 40.1209 61.4365 40.0345C61.8332 39.9722 62.1943 39.9615 62.5391 40.0555C62.2938 40.4406 62.0646 40.721 61.7602 41.0934C61.5322 40.7647 61.3784 40.5429 61.2002 40.2559Z" fill="#FDFDFD"/>
    <path d="M27.5726 24.9248C28.2787 25.1177 28.3183 25.3694 27.6759 25.9324C27.5786 25.6192 27.5666 25.3098 27.5726 24.9248Z" fill="#FDFDFD"/>
    <path d="M27.573 34.3898C27.7462 34.3858 27.9026 34.4437 28.059 34.5016C27.9569 34.6161 27.8548 34.7305 27.6712 34.8386C27.5786 34.7054 27.5674 34.5786 27.573 34.3898Z" fill="#FDFDFD"/>
    <path d="M55.173 33.9086C55.0969 33.9441 54.9802 33.9478 54.8481 33.9089C54.9327 33.8698 55.0325 33.8734 55.173 33.9086Z" fill="#E2EFEB"/>
    <path d="M37.18 25.8345C37.7085 26.6995 37.7367 27.5538 37.1769 28.2836C36.317 29.4043 35.0139 29.2084 33.7275 29.3155C33.7275 27.8307 33.7275 26.4389 33.7275 24.9194C34.9404 24.9135 36.1499 24.8248 37.18 25.8345Z" fill="#0A6C73"/>
    <path d="M92.1603 31.6413C92.1049 32.2937 92.0942 32.8667 91.986 33.4206C91.5652 35.5745 90.4262 36.5123 88.2524 36.5344C87.5636 36.5414 86.8748 36.5355 86.124 36.5355C86.124 33.1265 86.124 29.7996 86.124 26.2979C87.2239 26.3669 88.3245 26.3509 89.3938 26.5257C90.5823 26.72 91.3793 27.5364 91.6957 28.6715C91.9553 29.6028 92.0131 30.5904 92.1603 31.6413Z" fill="#FAFCFC"/>
    <path d="M117.428 45.3657C119.298 46.2436 119.668 49.6988 118.089 50.8865C117.311 51.4715 116.188 51.2693 115.59 50.4365C114.854 49.412 114.833 47.1572 115.553 46.1038C115.99 45.4645 116.601 45.2313 117.428 45.3657Z" fill="#F8FAFB"/>
    <path d="M109.434 47.5218C109.001 47.5218 108.66 47.5218 108.326 47.5218C108.182 46.3209 108.915 45.3936 109.959 45.3063C110.803 45.2358 112.012 46.2076 111.824 47.5218C111.069 47.5218 110.297 47.5218 109.434 47.5218Z" fill="#EDF4F5"/>
    <path d="M84.6241 47.5221C84.1975 47.5221 83.8596 47.5221 83.5205 47.5221C83.5483 46.2224 84.2307 45.3704 85.2127 45.3145C86.2625 45.2548 87.0308 46.0916 87.1453 47.5221C86.3299 47.5221 85.5213 47.5221 84.6241 47.5221Z" fill="#EDF4F5"/>
    <path d="M106.884 59.4942C107.256 58.7751 107.862 58.7408 108.368 59.0078C108.629 59.1454 108.734 59.6844 108.797 60.0608C108.868 60.4885 108.959 61.0133 108.778 61.3574C108.553 61.7862 108.101 62.1728 107.656 62.3653C107.51 62.4282 106.885 61.8642 106.818 61.5206C106.696 60.896 106.827 60.2218 106.884 59.4942Z" fill="#F3F3F3"/>
    <path d="M26.2937 58.9125C27.0394 58.8449 27.4508 59.109 27.5332 59.8738C26.8675 59.8738 26.2266 59.8738 25.2896 59.8738C25.6877 59.466 25.9524 59.1949 26.2937 58.9125Z" fill="#F0F0F0"/>
    <path d="M78.5659 59.446C79.009 59.224 79.4295 58.9493 79.8274 58.9787C80.0926 58.9984 80.3257 59.4518 80.5731 59.7111C80.5236 59.7832 80.4741 59.8552 80.4246 59.9273C79.8967 59.9273 79.3669 59.9503 78.8423 59.9089C78.73 59.9 78.6361 59.6575 78.5659 59.446Z" fill="#F3F3F3"/>
    <path d="M59.1957 59.9295C58.8296 59.9294 58.5523 59.9294 58.229 59.9294C58.2151 59.2584 58.5146 58.9436 59.0956 58.9032C59.7103 58.8604 60.1223 59.0991 60.1749 59.882C59.8674 59.8984 59.5759 59.9139 59.1957 59.9295Z" fill="#F3F3F3"/>
    <path d="M113.936 59.1638C114.061 59.4216 114.132 59.6174 114.229 59.8828C113.529 59.8828 112.914 59.8828 112.297 59.8828C112.367 58.9011 112.779 58.6998 113.936 59.1638Z" fill="#F3F3F3"/>
    <path d="M35.6075 58.9771C36.3918 58.8006 36.9153 58.9572 37.0937 59.8526C36.4072 59.8526 35.777 59.8526 34.9766 59.8526C35.1919 59.5252 35.362 59.2666 35.6075 58.9771Z" fill="#F3F3F3"/>
    <path d="M86.3072 59.2801C86.3071 58.694 86.3071 58.1979 86.3071 57.4629C86.925 57.6346 87.5724 57.6341 87.8853 57.9574C88.1465 58.2273 88.1918 58.9661 88.0059 59.3306C87.8435 59.6493 87.2377 59.7831 86.8011 59.8928C86.6875 59.9214 86.4745 59.5551 86.3072 59.2801Z" fill="#F0F0F0"/>
    <path d="M96.4969 61.9037C96.0096 62.1007 95.4996 62.414 95.1267 62.2956C94.8061 62.1938 94.5297 61.6243 94.4382 61.2159C94.3321 60.7422 94.3263 60.1672 94.5078 59.7327C94.6552 59.38 95.1515 58.9441 95.4789 58.9553C95.8624 58.9684 96.4793 59.3705 96.5533 59.7024C96.7039 60.3775 96.5577 61.1187 96.4969 61.9037Z" fill="#F5F7F7"/>
    <path d="M60.8091 37.3276V32.7803H63.4617V37.896C63.367 38.0855 62.8744 38.6729 62.4196 39.5066C61.9649 40.3402 61.5986 40.2329 61.4723 40.075L60.5249 37.3276H60.8091Z" fill="#03686F"/>
</svg>
