<svg width="26" height="24" viewBox="0 0 26 24" fill="none" xmlns="http://www.w3.org/2000/svg">
    <path d="M25 18.2129C24.8637 18.505 24.754 18.7932 24.5854 19.0415C24.2277 19.5684 23.693 19.8221 23.0714 19.8236C18.8452 19.8333 14.619 19.8286 10.3928 19.8286C7.93202 19.8286 5.47128 19.8253 3.01056 19.8304C2.0704 19.8323 1.25602 19.2034 1.01722 18.2871C1 17.9058 1 17.5298 1 17.1319C1.15476 16.8607 1.38246 16.7721 1.66981 16.7791C2.0912 16.7894 2.51302 16.7818 2.96875 16.7818C2.96875 16.6974 2.96875 16.6157 2.96875 16.534C2.96875 12.9887 2.96357 9.44334 2.97185 5.89805C2.9744 4.80968 3.61245 4.03055 4.7139 3.79997C4.78128 3.78587 4.85408 3.79743 4.92436 3.79743C10.3048 3.79739 15.6853 3.79486 21.0657 3.7997C22.0517 3.80059 22.909 4.60717 22.9834 5.52567C23.0058 5.80213 23.029 6.07961 23.0292 6.35664C23.0323 9.73796 23.0312 13.1193 23.0312 16.5006C23.0312 16.5855 23.0312 16.6703 23.0312 16.7818C23.491 16.7818 23.9408 16.7788 24.3906 16.7829C24.6372 16.7852 24.8591 16.8437 24.9838 17.1057C25 17.4703 25 17.8306 25 18.2129ZM22 12.7271C22 10.6021 22.0013 8.47717 21.998 6.35222C21.9976 6.1455 21.9646 5.93904 21.9541 5.73208C21.9291 5.2368 21.4643 4.82693 20.9572 4.82716C15.6526 4.82957 10.3481 4.82778 5.04347 4.83299C4.88971 4.83314 4.72071 4.86791 4.5851 4.93765C4.14936 5.16175 4.00254 5.56431 4.00205 6.02339C3.99832 9.54676 3.99995 13.0701 4.00046 16.5935C4.00047 16.6531 4.00736 16.7127 4.01081 16.7684C10.0142 16.7684 16.0019 16.7684 22 16.7684C22 15.428 22 14.101 22 12.7271ZM16.6328 17.813C16.4766 17.813 16.3175 17.832 16.1647 17.809C15.8564 17.7628 15.6301 17.8699 15.4406 18.1099C15.3111 18.274 15.1285 18.3331 14.9121 18.3319C13.7013 18.3252 12.4902 18.3164 11.2797 18.3361C10.9162 18.342 10.6297 18.2545 10.4113 17.9654C10.3196 17.8439 10.204 17.8093 10.051 17.8096C7.45748 17.8144 4.86391 17.813 2.27034 17.813C2.19367 17.813 2.117 17.813 2.04157 17.813C2.00931 18.3793 2.511 18.7972 3.10796 18.7972C9.67781 18.7975 16.2477 18.7977 22.8175 18.7954C22.9612 18.7954 23.108 18.7797 23.2479 18.7475C23.6793 18.6479 24.0044 18.2078 23.941 17.813C21.5217 17.813 19.1007 17.813 16.6328 17.813Z" fill="#2E7F1E" stroke="#2E7F1E" stroke-width="0.7"/>
    <path d="M8.07129 9.16211L7.89111 10.7793L9.53027 10.3223L9.67529 11.4297L8.18115 11.5352L9.16113 12.8403L8.16357 13.3721L7.47803 11.9966L6.87598 13.3633L5.83887 12.8403L6.81006 11.5352L5.32471 11.4209L5.49609 10.3223L7.1001 10.7793L6.91992 9.16211H8.07129Z" fill="#2E7F1E"/>
    <path d="M13.4712 9.16211L13.291 10.7793L14.9302 10.3223L15.0752 11.4297L13.5811 11.5352L14.561 12.8403L13.5635 13.3721L12.8779 11.9966L12.2759 13.3633L11.2388 12.8403L12.21 11.5352L10.7246 11.4209L10.896 10.3223L12.5 10.7793L12.3198 9.16211H13.4712Z" fill="#2E7F1E"/>
    <path d="M18.8711 9.16211L18.6909 10.7793L20.3301 10.3223L20.4751 11.4297L18.981 11.5352L19.9609 12.8403L18.9634 13.3721L18.2778 11.9966L17.6758 13.3633L16.6387 12.8403L17.6099 11.5352L16.1245 11.4209L16.2959 10.3223L17.8999 10.7793L17.7197 9.16211H18.8711Z" fill="#2E7F1E"/>
</svg>
