<svg fill="none" height="32" viewBox="0 0 32 32" width="32" xmlns="http://www.w3.org/2000/svg">
    <path
        d="M8.97651 14.6797C9.10971 14.5165 9.2335 14.3637 9.35889 14.2122C9.58241 13.9421 9.86162 13.7678 10.2184 13.76C10.6307 13.751 11.0442 13.7449 11.4557 13.7664C11.7181 13.78 11.7724 13.9055 11.6104 14.1135C11.1918 14.651 10.759 15.1775 10.3299 15.7069C10.0947 15.9971 9.85789 16.2859 9.61796 16.572C9.35849 16.8815 9.35001 17.0159 9.60177 17.3261C10.2625 18.14 10.9276 18.9503 11.5882 19.7643C11.7076 19.9115 11.8258 20.0621 11.923 20.2241C12.0252 20.3943 11.9842 20.4726 11.793 20.519C11.7175 20.5373 11.6379 20.5452 11.56 20.5461C11.2715 20.5493 10.9828 20.5408 10.6946 20.5494C10.2166 20.5636 9.85189 20.3651 9.56086 19.994C9.05139 19.3443 8.53324 18.7015 8.01847 18.056C7.98992 18.0202 7.96239 17.9825 7.92857 17.9522C7.81561 17.8509 7.74641 17.8701 7.71129 18.0189C7.69198 18.1007 7.68681 18.1873 7.68638 18.2718C7.68362 18.8159 7.68805 19.3601 7.68198 19.9042C7.67684 20.3652 7.50873 20.5385 7.05251 20.5437C6.79826 20.5467 6.54234 20.534 6.2897 20.5058C6.0924 20.4837 5.97748 20.3467 5.94533 20.1528C5.9251 20.0307 5.91348 19.9057 5.9134 19.782C5.91168 17.1203 5.91211 14.4585 5.9123 11.7968C5.91231 11.7378 5.91279 11.6787 5.91572 11.6198C5.93543 11.2246 6.08847 11.0573 6.48219 11.0364C6.72342 11.0236 6.96829 11.0244 7.20799 11.051C7.51557 11.0851 7.64347 11.2306 7.67541 11.5375C7.68826 11.661 7.68487 11.7864 7.68492 11.9109C7.68551 13.1959 7.6852 14.4808 7.68558 15.7658C7.6856 15.8312 7.68113 15.8984 7.69368 15.9617C7.7157 16.0729 7.78045 16.1062 7.87523 16.0305C7.91564 15.9982 7.94888 15.956 7.98169 15.9154C8.31083 15.5075 8.63921 15.0989 8.97651 14.6797Z"
        fill="#E2338B" />
    <path
        d="M25.5146 17.5169C25.5394 16.9483 25.5197 16.3928 25.5987 15.8517C25.7407 14.8797 26.289 14.1853 27.2227 13.8528C28.3036 13.468 29.4022 13.4792 30.4768 13.8769C31.3696 14.2073 31.8605 14.9152 31.9421 15.8294C32.0191 16.6929 32.0182 17.574 31.9425 18.4378C31.8477 19.519 31.0857 20.3064 29.97 20.5751C29.0968 20.7853 28.2137 20.774 27.3448 20.5232C26.3325 20.231 25.7607 19.541 25.5939 18.5141C25.5417 18.1924 25.5397 17.8626 25.5146 17.5169ZM28.1992 18.989C28.571 18.9934 28.9467 19.0336 29.3138 18.9939C29.8666 18.9341 30.1584 18.6442 30.1934 18.0846C30.2326 17.4593 30.2251 16.8283 30.1924 16.2021C30.1658 15.6932 29.8931 15.3959 29.39 15.3314C28.999 15.2812 28.5917 15.2777 28.2008 15.3267C27.6388 15.3971 27.3432 15.7358 27.3226 16.2905C27.3011 16.8662 27.3004 17.4441 27.3233 18.0197C27.3447 18.5576 27.6394 18.8699 28.1992 18.989Z"
        fill="#E2338B" />
    <path
        d="M21.5319 11.0109C21.8293 11.0075 22.1123 10.9866 22.3906 11.0138C22.6891 11.0429 22.8077 11.1745 22.8324 11.472C22.8572 11.7716 22.8586 12.0735 22.8622 12.3744C22.8668 12.7612 22.8676 13.148 22.8613 13.5347C22.8586 13.6967 22.9221 13.7547 23.083 13.7514C23.4565 13.7438 23.8303 13.7446 24.2039 13.7507C24.6947 13.7588 24.8612 13.928 24.8698 14.4209C24.8726 14.5843 24.8753 14.7497 24.8551 14.9113C24.808 15.2875 24.6735 15.4114 24.2895 15.4238C23.9293 15.4354 23.5685 15.4289 23.208 15.4295C22.8636 15.4302 22.8634 15.4297 22.8634 15.7755C22.8633 16.5162 22.863 17.257 22.8637 17.9977C22.8638 18.1026 22.8634 18.2079 22.8729 18.3121C22.9132 18.7508 23.1773 19.0182 23.6183 19.0116C24.0159 19.0056 24.4151 18.9668 24.8095 18.9123C25.2313 18.854 25.3752 18.9372 25.4061 19.3559C25.4219 19.5698 25.4101 19.789 25.3821 20.002C25.3479 20.2619 25.1981 20.4616 24.9422 20.5317C24.0065 20.7879 23.0738 20.81 22.1842 20.3685C21.5519 20.0548 21.2428 19.4852 21.1502 18.8113C21.089 18.3657 21.0892 17.9103 21.0811 17.459C21.0704 16.8627 21.0743 16.2659 21.081 15.6695C21.083 15.4941 21.0273 15.4196 20.8431 15.4261C20.6477 15.433 20.4492 15.4265 20.2559 15.3989C20.012 15.364 19.8863 15.2452 19.8661 15.0011C19.8435 14.7285 19.8437 14.4506 19.8696 14.1784C19.8938 13.924 20.025 13.8105 20.2789 13.7774C20.447 13.7556 20.6182 13.7527 20.7881 13.75C21.0724 13.7456 21.0763 13.7432 21.0787 13.4668C21.0844 12.8116 21.0846 12.1562 21.1013 11.5012C21.109 11.1991 21.2256 11.0812 21.5319 11.0109Z"
        fill="#E2348A" />
    <path
        d="M19.8303 18.9305C19.8985 19.022 19.9932 19.1049 19.9981 19.1928C20.0142 19.4786 20.0184 19.7685 19.9866 20.0523C19.9622 20.27 19.8195 20.4313 19.6042 20.5144C19.0764 20.7181 18.5267 20.7124 17.9756 20.6832C17.5657 20.6615 17.1686 20.5746 16.8059 20.3769C16.1589 20.0241 15.8527 19.4418 15.7528 18.7388C15.7142 18.4677 15.709 18.1904 15.7068 17.9157C15.7009 17.1748 15.7055 16.4338 15.7042 15.6928C15.7038 15.4593 15.673 15.434 15.4465 15.4282C15.2504 15.4232 15.0539 15.4165 14.8588 15.3979C14.6478 15.3777 14.512 15.2415 14.496 15.0428C14.472 14.7449 14.4713 14.4422 14.4946 14.1442C14.5111 13.9349 14.6594 13.8028 14.8738 13.7798C15.0622 13.7595 15.2524 13.7541 15.442 13.7495C15.6788 13.7438 15.7038 13.7246 15.7043 13.4915C15.7055 12.9013 15.7041 12.3111 15.7054 11.721C15.7056 11.6228 15.7052 11.5232 15.7205 11.4267C15.7595 11.1814 15.88 11.0404 16.129 11.0221C16.4404 10.9993 16.7555 11.0066 17.0676 11.0242C17.2843 11.0364 17.4054 11.1865 17.4429 11.394C17.465 11.5157 17.4761 11.641 17.4768 11.7647C17.4803 12.3417 17.478 12.9188 17.4787 13.4959C17.479 13.7353 17.4926 13.7453 17.7382 13.7489C18.1704 13.7553 18.6035 13.7504 19.0346 13.7776C19.3075 13.7948 19.4384 13.9286 19.4652 14.203C19.4898 14.4559 19.4916 14.715 19.4666 14.9677C19.4356 15.2816 19.2808 15.4066 18.93 15.4214C18.5896 15.4358 18.2483 15.4288 17.9073 15.4289C17.4628 15.4291 17.4767 15.388 17.478 15.8522C17.4801 16.6063 17.477 17.3605 17.4792 18.1145C17.4811 18.7532 17.7557 19.033 18.3936 19.0143C18.7392 19.0042 19.0831 18.9459 19.4285 18.9178C19.5565 18.9074 19.6866 18.9214 19.8303 18.9305Z"
        fill="#E2348A" />
    <path
        d="M5.04855 15.0338C4.99328 15.4013 4.85586 15.5091 4.51026 15.4403C3.91147 15.3212 3.31182 15.216 2.69814 15.2401C2.52841 15.2467 2.35674 15.2586 2.19085 15.2922C2.03787 15.3232 1.87743 15.3703 1.85553 15.5702C1.83342 15.7721 1.96279 15.8719 2.12083 15.9379C2.54387 16.1145 2.97269 16.2774 3.39455 16.4568C3.76158 16.6128 4.13608 16.7591 4.4828 16.9534C5.18741 17.3482 5.4105 18.0037 5.37672 18.7692C5.36785 18.9702 5.33446 19.1741 5.28239 19.3686C5.1391 19.9039 4.78191 20.2646 4.26857 20.4341C3.89286 20.5581 3.49564 20.6497 3.10215 20.6802C2.27085 20.7447 1.43815 20.7302 0.624074 20.503C0.143349 20.3688 0.00427529 20.1909 0.00131589 19.69C0.000386312 19.5327 -0.00377293 19.3745 0.0099682 19.2182C0.0407197 18.8684 0.206126 18.7431 0.552393 18.8076C0.854657 18.8639 1.15264 18.9687 1.45635 18.9865C2.05619 19.0216 2.6587 19.0173 3.26008 19.016C3.42968 19.0157 3.58649 18.949 3.62495 18.7499C3.66516 18.5419 3.55794 18.4035 3.38363 18.3245C2.94833 18.1272 2.50783 17.9413 2.06892 17.752C1.79222 17.6327 1.51158 17.522 1.23798 17.3961C0.408732 17.0142 0.046654 16.3629 0.106941 15.4517C0.147023 14.8459 0.327061 14.3161 0.876103 14.0124C1.17899 13.8448 1.52881 13.733 1.87103 13.6716C2.67847 13.5265 3.48922 13.5615 4.29061 13.7492C4.94103 13.9016 5.07614 14.0731 5.06835 14.7424C5.06728 14.834 5.05629 14.9254 5.04855 15.0338Z"
        fill="#E2338B" />
    <path
        d="M14.04 16.8482C14.04 17.7663 14.0408 18.6646 14.0393 19.563C14.0391 19.7004 14.0325 19.8381 14.0225 19.9752C13.9934 20.3744 13.8421 20.5317 13.4433 20.5416C13.1761 20.5483 12.9067 20.5356 12.6408 20.5071C12.4353 20.4851 12.3196 20.3406 12.2865 20.139C12.2686 20.0296 12.2564 19.9179 12.2563 19.8072C12.2544 18.0367 12.2544 16.2662 12.2562 14.4958C12.2563 14.3851 12.2669 14.2732 12.2852 14.1639C12.3216 13.9463 12.4493 13.7923 12.6712 13.7803C12.9963 13.7626 13.3247 13.7621 13.6491 13.787C13.863 13.8034 13.9879 13.9747 14.0144 14.2134C14.0295 14.35 14.0385 14.4879 14.0389 14.6253C14.0412 15.3597 14.04 16.0941 14.04 16.8482Z"
        fill="#E2348A" />
    <path
        d="M12.5694 12.9884C12.1462 12.6538 11.9903 12.2389 12.117 11.8095C12.2417 11.3869 12.6298 11.0661 13.0591 11.0308C13.4941 10.9949 13.9162 11.2438 14.109 11.6498C14.3008 12.0538 14.2255 12.5033 13.9113 12.8301C13.5959 13.1582 13.1363 13.2504 12.7213 13.0678C12.6735 13.0468 12.6282 13.02 12.5694 12.9884Z"
        fill="#E2348A" />
</svg>
