<svg width="279" height="279" viewBox="0 0 279 279" fill="none" xmlns="http://www.w3.org/2000/svg">
    <rect width="279" height="279" rx="24" fill="#F7F7F7"/>
    <g style="mix-blend-mode:luminosity">
        <path fill-rule="evenodd" clip-rule="evenodd" d="M87.1329 91.0802C87.4837 91.1355 87.5547 91.0627 87.6012 90.7221C87.6773 90.2026 87.8587 89.3267 88.2826 88.4288C88.7416 87.4605 89.4726 86.3966 90.495 85.6842C91.3561 85.092 92.7675 84.4361 93.8602 84.1981C94.754 84.0008 95.5915 83.9631 96.3101 84.0314C97.7868 84.1676 98.6037 84.5994 99.0137 85.1583C99.1658 85.3671 99.249 85.6247 99.2524 85.7915C99.2641 86.0695 99.1458 86.4323 98.7565 86.7885C98.3776 87.1316 97.5695 87.5656 96.4675 87.9457C95.3235 88.3364 93.7603 88.7489 92.202 89.1167C90.8973 89.425 90.1549 89.6873 89.535 89.9029C88.504 90.2614 88.1932 91.3141 88.8357 91.6355C89.7643 92.1 90.3451 92.5858 90.8401 92.9987C91.5825 93.6234 92.4447 94.3584 93.5152 95.684C94.4851 96.8996 96.0716 99.2197 96.6427 101.472C97.2747 103.944 96.8798 106.289 95.5164 106.943C94.1797 107.586 92.3983 106.659 91.1479 105.328C89.9582 104.065 89.1279 102.578 88.3471 100.284C87.67 98.3121 87.3955 95.4527 87.3967 93.9569C87.3967 93.4585 87.3888 93.3522 87.4085 92.9022C87.4538 92.5101 86.4234 92.1857 85.316 92.9169C84.0557 93.7488 82.821 95.2566 82.0921 96.1323C81.775 96.5145 81.3451 97.0762 80.8897 97.6653C80.2892 98.438 79.6264 99.2427 79.0222 99.6926C78.1129 100.373 76.6519 100.654 75.6286 99.9049C75.0597 99.4877 74.757 98.6999 74.7474 97.899C74.739 97.3352 74.8752 96.8251 75.1496 96.3219C75.4924 95.7043 76.0568 95.0413 76.9515 94.2822C77.8767 93.502 79.3536 92.6196 80.8337 92.0096C83.0913 91.0771 85.522 90.7837 87.1329 91.0802Z" fill="#19AAF8"/>
    </g>
    <g style="mix-blend-mode:luminosity">
        <path d="M71.7646 162.264L80.5618 157.348L80.4805 167.547L71.7646 162.264Z" fill="#ED3D7F"/>
        <path d="M71.6377 142L80.4036 146.973L71.7323 152.243L71.6377 142Z" fill="#FCB833"/>
        <path d="M80.4795 167.547L89.2181 162.397L80.5609 157.348" fill="#C30D42"/>
        <path d="M80.5391 157.372L89.1261 152.283L89.2029 162.438" fill="#2E3192"/>
        <path d="M80.5391 157.372L89.1261 152.283L89.2029 162.438" fill="#7B1B67"/>
        <path d="M71.7314 152.243L80.5551 157.368L80.4028 146.973" fill="#F6921E"/>
        <path d="M89.1343 152.294L80.5557 157.368L80.4023 146.973" fill="#FFF200"/>
        <path d="M89.1343 152.294L80.5557 157.368L80.4023 146.973" fill="#F05A22"/>
    </g>
    <g style="mix-blend-mode:luminosity">
        <path d="M166.252 91H147.748C146.801 91 146 90.2444 146 89.2487V70.7455C146 69.8024 146.754 69 147.748 69H166.252C167.199 69 168 69.7556 168 70.7513V89.2955C168 90.2386 167.199 91 166.252 91Z" fill="#F16522"/>
        <path d="M160.068 89.864C163.09 86.3614 164.791 82.2964 165.639 77.798C165.732 77.2298 165.545 76.6617 165.498 76.0467C165.405 76.0467 165.311 75.9998 165.218 75.9998C165.031 76.2341 164.838 76.4742 164.651 76.7085C164.557 76.8023 164.557 76.9428 164.511 77.0424C163.757 79.5493 162.669 81.822 160.922 83.9013C159.741 85.2719 159.034 87.0701 158.233 88.7277C157.619 89.9109 157.619 90.0046 156.158 89.8172C156.585 88.8683 156.959 87.9253 157.479 87.0759C158.8 84.9498 160.267 82.9114 161.635 80.7852C162.249 79.7895 162.675 78.7059 163.242 77.7101C163.716 76.9077 164.376 76.2458 164.803 75.4375C165.229 74.6819 165.557 73.8267 165.843 73.0243C166.077 72.3156 166.223 71.56 166.363 70.7985C166.457 70.7985 166.55 70.8454 166.697 70.8454C166.556 71.6478 166.363 72.4561 166.27 73.3054C166.13 74.2016 166.083 75.1505 165.989 76.0467C165.943 76.5211 165.802 77.0893 166.603 77.3236C166.743 77.3704 166.837 78.0323 166.79 78.3193C166.27 80.2581 165.796 82.2437 165.089 84.1414C164.663 85.2778 163.909 86.3204 163.295 87.404C163.061 87.7847 162.821 88.1127 162.634 88.5403C161.863 90.0983 161.816 90.1452 160.068 89.864ZM159.028 70.1308C159.408 70.9801 158.981 71.4077 158.648 71.8821C157.514 73.446 156.287 74.9572 155.346 76.6617C154.498 78.1729 153.838 79.7836 153.271 81.4412C152.751 83.052 151.95 84.5163 150.956 85.8869C150.156 86.9764 149.396 88.1127 148.595 89.1963C148.408 89.4774 148.168 89.7176 147.981 89.9519C147.888 89.905 147.841 89.905 147.748 89.8582C147.748 89.5243 147.701 89.1963 147.794 88.9093C148.221 87.8667 148.595 86.7831 149.115 85.7873C149.916 84.323 150.202 82.806 149.963 81.1484C149.63 78.9226 149.916 76.7495 150.436 74.6175C150.576 73.9556 150.623 73.2469 150.717 72.4386C149.115 73.0184 148.455 74.389 147.227 75.4316C147.087 74.5355 146.947 73.9205 147.701 73.3054C148.788 72.4034 149.729 71.3608 150.816 70.4647C151.097 70.2304 151.523 70.1835 152.137 69.9434C151.95 70.6521 151.856 71.0797 151.757 71.5073C151.377 73.3054 151.003 75.1505 150.717 76.9487C150.576 77.798 150.623 78.6532 150.67 79.5025C150.717 80.7325 150.857 81.9625 151.003 83.2863C151.851 83.1926 152.231 82.6244 152.464 81.9157C153.125 80.2581 153.738 78.5536 154.446 76.9018C155.34 74.8225 156.287 72.7841 158.081 71.273C158.461 71.0797 158.654 70.6521 159.028 70.1308ZM150.015 89.7703C150.249 89.2959 150.442 88.8741 150.676 88.4466C151.716 86.8358 152.99 85.3715 153.838 83.667C155.206 81.0195 157.093 78.7937 158.888 76.4742C159.122 76.1404 159.361 75.7655 159.408 75.3848C159.642 74.061 160.302 72.9716 161.249 71.9758C161.723 71.4604 162.143 70.9391 162.81 70.4647C162.576 70.8922 162.383 71.4135 162.056 71.6947C160.922 72.6904 160.402 73.9205 160.028 75.3379C159.694 76.5211 158.987 77.5637 158.467 78.7C157.9 79.8832 157.333 81.0664 156.813 82.2495C155.585 84.897 154.025 87.3102 151.81 89.249C151.336 89.7176 150.863 90.0983 150.015 89.7703ZM155.439 87.5914C156.147 86.5019 157.234 85.4652 157.614 84.2293C158.181 82.3843 159.174 80.6798 159.548 78.9285C160.068 76.3278 161.483 74.4359 163.043 72.4913C163.47 71.97 163.797 71.355 164.131 70.6931C164.364 70.1718 164.744 70.0781 165.171 70.2655C165.265 70.3124 165.218 70.9274 165.077 71.1148C164.364 72.216 163.517 73.2527 162.81 74.389C162.149 75.3848 161.629 76.4684 161.062 77.5578C160.542 78.5067 160.022 79.4029 159.601 80.3986C159.081 81.4881 158.56 82.5775 158.233 83.7607C157.801 85.5121 156.766 86.6952 155.439 87.5914ZM155.299 70.2772C154.259 71.5541 153.692 72.8779 153.411 74.3949C153.078 76.0525 152.418 77.6106 151.95 79.2213C151.856 79.2213 151.81 79.1745 151.716 79.1745C151.81 78.6532 151.903 78.1787 151.997 77.6633C152.47 75.6777 152.891 73.6393 153.411 71.7005C153.744 70.3709 154.072 70.1777 155.299 70.2772ZM166.726 84.282C167.199 87.4977 166.346 89.8172 164.604 89.864C165.311 87.9721 166.019 86.1271 166.726 84.282ZM149.068 75.2442C148.928 75.4785 148.788 75.7655 148.595 75.9998C147.748 77.0893 147.555 78.3193 147.555 79.6899C147.555 80.6856 147.508 81.7224 147.461 82.7181C147.461 82.8587 147.368 82.9993 147.227 83.1457C147.321 80.3518 146.473 77.4231 148.835 75.1505C148.928 75.1974 148.975 75.1974 149.068 75.2442ZM160.635 70.3241C159.835 72.3566 159.408 74.5823 157.754 76.0935C158.601 74.2016 159.502 72.1691 160.396 70.1777C160.448 70.2304 160.542 70.2772 160.635 70.3241ZM147.274 71.8353C147.134 70.6052 147.368 70.3241 148.314 70.2714C147.981 70.7458 147.654 71.2203 147.274 71.8353Z" fill="black"/>
    </g>
    <g style="mix-blend-mode:luminosity">
        <path fill-rule="evenodd" clip-rule="evenodd" d="M118.066 188.042C120.877 187.707 124.15 188.691 125.583 191.314C127.068 194.148 126.262 197.586 124.682 200.201C122.979 203.306 120.135 205.564 117.25 207.509C115.535 208.596 113.654 209.734 111.562 209.715C109.942 209.673 108.867 207.875 109.336 206.379C109.806 204.79 110.612 203.138 112.064 202.217C112.984 201.686 114.322 201.497 115.159 202.26C115.588 202.636 115.535 203.274 115.223 203.692C114.209 205.177 112.587 206.138 111.73 207.739C111.572 208.063 111.416 208.543 111.74 208.825C112.147 209.097 112.671 208.919 113.09 208.784C114.96 208.093 116.561 206.87 118.096 205.636C120.438 203.724 122.687 201.308 123.24 198.224C123.46 196.887 123.114 195.121 121.714 194.567C120.145 194.148 118.589 194.941 117.26 195.706C115.274 196.897 113.278 198.078 111.458 199.52C110.162 200.494 108.801 201.613 107.14 201.781C105.437 201.915 103.774 200.274 104.078 198.538C104.256 197.242 104.998 196.113 105.782 195.099C107.58 192.799 110.047 191.126 112.618 189.82C114.332 188.973 116.142 188.23 118.066 188.042Z" fill="#ED1C24"/>
    </g>
    <g style="mix-blend-mode:luminosity">
        <path fill-rule="evenodd" clip-rule="evenodd" d="M179.305 203C179.305 203 184.481 197.325 190.981 196.502C190.981 196.502 193.909 195.597 195.434 198.641C195.434 198.641 196.758 194.692 195.354 192.513C195.354 192.513 194.391 190.58 191.422 191.032C191.422 191.032 186.808 191.607 181.07 196.831C181.07 196.831 179.666 202.301 179.305 203" fill="#7BCB2A"/>
        <path fill-rule="evenodd" clip-rule="evenodd" d="M181.411 192.771C181.411 192.771 188.242 186.077 192.305 187.187C192.305 187.187 193.418 187.095 195.013 189.069C195.013 189.069 193.238 183.486 189.416 183.054C189.416 183.054 185.353 182.499 180.81 187.619C180.81 187.619 181.502 191.228 181.411 192.771Z" fill="#7BCB2A"/>
        <path fill-rule="evenodd" clip-rule="evenodd" d="M179.666 183.979C179.666 183.979 181.863 180.895 185.865 180.123C185.865 180.123 186.146 179.99 185.705 179.887C185.705 179.887 180.449 178.221 177.078 179.455C177.078 179.455 176.913 179.476 177.063 179.63C177.063 179.63 178.974 182.529 179.395 183.917C179.395 183.917 179.455 184.123 179.666 183.979Z" fill="#7BCB2A"/>
    </g>
    <g style="mix-blend-mode:luminosity">
        <path d="M192.977 129.68C193.11 129.516 193.234 129.364 193.359 129.212C193.582 128.942 193.862 128.768 194.218 128.76C194.631 128.751 195.044 128.745 195.456 128.766C195.718 128.78 195.772 128.906 195.61 129.113C195.192 129.651 194.759 130.178 194.33 130.707C194.095 130.997 193.858 131.286 193.618 131.572C193.358 131.882 193.35 132.016 193.602 132.326C194.262 133.14 194.928 133.95 195.588 134.764C195.708 134.911 195.826 135.062 195.923 135.224C196.025 135.394 195.984 135.473 195.793 135.519C195.717 135.537 195.638 135.545 195.56 135.546C195.272 135.549 194.983 135.541 194.695 135.549C194.217 135.564 193.852 135.365 193.561 134.994C193.051 134.344 192.533 133.701 192.018 133.056C191.99 133.02 191.962 132.983 191.929 132.952C191.816 132.851 191.746 132.87 191.711 133.019C191.692 133.101 191.687 133.187 191.686 133.272C191.684 133.816 191.688 134.36 191.682 134.904C191.677 135.365 191.509 135.538 191.053 135.544C190.798 135.547 190.542 135.534 190.29 135.506C190.092 135.484 189.977 135.347 189.945 135.153C189.925 135.031 189.913 134.906 189.913 134.782C189.912 132.12 189.912 129.459 189.912 126.797C189.912 126.738 189.913 126.679 189.916 126.62C189.935 126.225 190.088 126.057 190.482 126.036C190.723 126.024 190.968 126.024 191.208 126.051C191.516 126.085 191.643 126.231 191.675 126.538C191.688 126.661 191.685 126.786 191.685 126.911C191.686 128.196 191.685 129.481 191.686 130.766C191.686 130.831 191.681 130.898 191.694 130.962C191.716 131.073 191.78 131.106 191.875 131.03C191.916 130.998 191.949 130.956 191.982 130.915C192.311 130.507 192.639 130.099 192.977 129.68Z" fill="#E2338B"/>
        <path d="M209.515 132.517C209.539 131.948 209.52 131.393 209.599 130.852C209.741 129.88 210.289 129.185 211.223 128.853C212.304 128.468 213.402 128.479 214.477 128.877C215.37 129.207 215.861 129.915 215.942 130.829C216.019 131.693 216.018 132.574 215.942 133.438C215.848 134.519 215.086 135.306 213.97 135.575C213.097 135.785 212.214 135.774 211.345 135.523C210.332 135.231 209.761 134.541 209.594 133.514C209.542 133.192 209.54 132.863 209.515 132.517ZM212.199 133.989C212.571 133.993 212.947 134.034 213.314 133.994C213.867 133.934 214.158 133.644 214.193 133.085C214.233 132.459 214.225 131.828 214.192 131.202C214.166 130.693 213.893 130.396 213.39 130.331C212.999 130.281 212.592 130.278 212.201 130.327C211.639 130.397 211.343 130.736 211.323 131.291C211.301 131.866 211.3 132.444 211.323 133.02C211.345 133.558 211.639 133.87 212.199 133.989Z" fill="#E2338B"/>
        <path d="M205.532 126.011C205.829 126.007 206.112 125.987 206.391 126.014C206.689 126.043 206.808 126.175 206.832 126.472C206.857 126.772 206.859 127.073 206.862 127.374C206.867 127.761 206.868 128.148 206.861 128.535C206.859 128.697 206.922 128.755 207.083 128.751C207.456 128.744 207.83 128.745 208.204 128.751C208.695 128.759 208.861 128.928 208.87 129.421C208.873 129.584 208.875 129.75 208.855 129.911C208.808 130.288 208.673 130.411 208.29 130.424C207.929 130.435 207.569 130.429 207.208 130.43C206.864 130.43 206.863 130.43 206.863 130.775C206.863 131.516 206.863 132.257 206.864 132.998C206.864 133.103 206.863 133.208 206.873 133.312C206.913 133.751 207.177 134.018 207.618 134.012C208.016 134.006 208.415 133.967 208.81 133.912C209.231 133.854 209.375 133.937 209.406 134.356C209.422 134.57 209.41 134.789 209.382 135.002C209.348 135.262 209.198 135.462 208.942 135.532C208.006 135.788 207.074 135.81 206.184 135.369C205.552 135.055 205.243 134.485 205.15 133.811C205.089 133.366 205.089 132.91 205.081 132.459C205.07 131.863 205.074 131.266 205.081 130.669C205.083 130.494 205.027 130.42 204.843 130.426C204.648 130.433 204.449 130.426 204.256 130.399C204.012 130.364 203.886 130.245 203.866 130.001C203.843 129.729 203.844 129.451 203.87 129.178C203.894 128.924 204.025 128.81 204.279 128.777C204.447 128.756 204.618 128.753 204.788 128.75C205.072 128.746 205.076 128.743 205.079 128.467C205.084 127.812 205.085 127.156 205.101 126.501C205.109 126.199 205.226 126.081 205.532 126.011Z" fill="#E2348A"/>
        <path d="M203.83 133.931C203.899 134.022 203.993 134.105 203.998 134.193C204.014 134.479 204.018 134.769 203.987 135.052C203.962 135.27 203.82 135.431 203.604 135.514C203.076 135.718 202.527 135.712 201.976 135.683C201.566 135.661 201.169 135.575 200.806 135.377C200.159 135.024 199.853 134.442 199.753 133.739C199.714 133.468 199.709 133.19 199.707 132.916C199.701 132.175 199.706 131.434 199.704 130.693C199.704 130.459 199.673 130.434 199.447 130.428C199.25 130.423 199.054 130.416 198.859 130.398C198.648 130.378 198.512 130.241 198.496 130.043C198.472 129.745 198.471 129.442 198.495 129.144C198.511 128.935 198.659 128.803 198.874 128.78C199.062 128.76 199.252 128.754 199.442 128.75C199.679 128.744 199.704 128.725 199.704 128.491C199.706 127.901 199.704 127.311 199.705 126.721C199.706 126.623 199.705 126.523 199.72 126.427C199.759 126.181 199.88 126.04 200.129 126.022C200.44 125.999 200.755 126.007 201.068 126.024C201.284 126.036 201.405 126.186 201.443 126.394C201.465 126.516 201.476 126.641 201.477 126.765C201.48 127.342 201.478 127.919 201.479 128.496C201.479 128.735 201.493 128.745 201.738 128.749C202.17 128.755 202.604 128.75 203.035 128.778C203.308 128.795 203.438 128.929 203.465 129.203C203.49 129.456 203.492 129.715 203.467 129.968C203.436 130.282 203.281 130.407 202.93 130.421C202.59 130.436 202.248 130.429 201.907 130.429C201.463 130.429 201.477 130.388 201.478 130.852C201.48 131.606 201.477 132.36 201.479 133.115C201.481 133.753 201.756 134.033 202.394 134.014C202.739 134.004 203.083 133.946 203.429 133.918C203.557 133.907 203.687 133.921 203.83 133.931Z" fill="#E2348A"/>
        <path d="M189.049 130.034C188.993 130.401 188.856 130.509 188.51 130.44C187.911 130.321 187.312 130.216 186.698 130.24C186.528 130.246 186.357 130.258 186.191 130.292C186.038 130.323 185.877 130.37 185.856 130.57C185.833 130.772 185.963 130.872 186.121 130.938C186.544 131.114 186.973 131.277 187.395 131.457C187.762 131.613 188.136 131.759 188.483 131.953C189.187 132.348 189.41 133.003 189.377 133.769C189.368 133.97 189.334 134.174 189.282 134.368C189.139 134.904 188.782 135.264 188.269 135.434C187.893 135.558 187.496 135.649 187.102 135.68C186.271 135.745 185.438 135.73 184.624 135.503C184.143 135.369 184.004 135.191 184.001 134.69C184 134.532 183.996 134.374 184.01 134.218C184.041 133.868 184.206 133.743 184.552 133.807C184.855 133.864 185.153 133.968 185.456 133.986C186.056 134.021 186.659 134.017 187.26 134.016C187.43 134.015 187.586 133.949 187.625 133.75C187.665 133.542 187.558 133.403 187.384 133.324C186.948 133.127 186.508 132.941 186.069 132.752C185.792 132.632 185.512 132.522 185.238 132.396C184.409 132.014 184.047 131.363 184.107 130.451C184.147 129.846 184.327 129.316 184.876 129.012C185.179 128.845 185.529 128.733 185.871 128.671C186.678 128.526 187.489 128.561 188.291 128.749C188.941 128.901 189.076 129.073 189.068 129.742C189.067 129.834 189.056 129.925 189.049 130.034Z" fill="#E2338B"/>
        <path d="M198.04 131.848C198.04 132.766 198.041 133.665 198.039 134.563C198.039 134.7 198.032 134.838 198.022 134.975C197.993 135.374 197.842 135.532 197.443 135.542C197.176 135.548 196.907 135.536 196.641 135.507C196.435 135.485 196.32 135.341 196.287 135.139C196.269 135.03 196.256 134.918 196.256 134.807C196.254 133.037 196.254 131.266 196.256 129.496C196.256 129.385 196.267 129.273 196.285 129.164C196.322 128.946 196.449 128.792 196.671 128.78C196.996 128.763 197.325 128.762 197.649 128.787C197.863 128.803 197.988 128.975 198.014 129.213C198.03 129.35 198.038 129.488 198.039 129.625C198.041 130.36 198.04 131.094 198.04 131.848Z" fill="#E2348A"/>
        <path d="M196.569 127.988C196.146 127.654 195.99 127.239 196.117 126.81C196.242 126.387 196.63 126.066 197.059 126.031C197.494 125.995 197.916 126.244 198.109 126.65C198.301 127.054 198.226 127.503 197.911 127.83C197.596 128.158 197.136 128.25 196.721 128.068C196.673 128.047 196.628 128.02 196.569 127.988Z" fill="#E2348A"/>
    </g>
</svg>
