<svg fill="none" height="32" viewBox="0 0 32 32" width="32" xmlns="http://www.w3.org/2000/svg">
    <path clip-rule="evenodd"
        d="M8.30469 29C8.30469 29 13.4807 23.3245 19.9806 22.502C19.9806 22.502 22.9094 21.5972 24.4343 24.6411C24.4343 24.6411 25.7583 20.6923 24.3539 18.5129C24.3539 18.5129 23.3909 16.5795 20.422 17.0318C20.422 17.0318 15.8081 17.6075 10.0704 22.8308C10.0704 22.8308 8.66601 28.3009 8.30469 29"
        fill="#7BCB2A" fill-rule="evenodd" />
    <path clip-rule="evenodd"
        d="M10.4115 18.7705C10.4115 18.7705 17.2424 12.0769 21.3047 13.1874C21.3047 13.1874 22.4181 13.0945 24.013 15.0689C24.013 15.0689 22.2377 9.48551 18.4159 9.0538C18.4159 9.0538 14.3533 8.49879 9.80957 13.619C9.80957 13.619 10.5015 17.2279 10.4115 18.7705Z"
        fill="#7BCB2A" fill-rule="evenodd" />
    <path clip-rule="evenodd"
        d="M8.66632 9.97928C8.66632 9.97928 10.8628 6.89476 14.8653 6.12358C14.8653 6.12358 15.1461 5.98995 14.7049 5.88747C14.7049 5.88747 9.44857 4.22155 6.07827 5.45497C6.07827 5.45497 5.91283 5.4758 6.06301 5.63C6.06301 5.63 7.97402 8.52917 8.39522 9.91732C8.39522 9.91732 8.45545 10.123 8.66632 9.97928Z"
        fill="#7BCB2A" fill-rule="evenodd" />
</svg>
