<svg width="18" height="21" viewBox="0 0 18 21" fill="none" xmlns="http://www.w3.org/2000/svg">
    <path d="M8.85651 9.34767C9.44127 9.3534 10.0206 9.23517 10.5564 9.00077C11.0921 8.76638 11.5722 8.42113 11.9648 7.98778C12.8129 7.09975 13.2765 5.91298 13.2548 4.6852C13.2811 3.45141 12.8172 2.2575 11.9648 1.36513C11.5691 0.935382 11.0886 0.592358 10.5536 0.357726C10.0185 0.123095 9.44071 0.00195313 8.85651 0.00195312C8.27232 0.00195312 7.69446 0.123095 7.15945 0.357726C6.62445 0.592358 6.14391 0.935382 5.74819 1.36513C4.90007 2.25317 4.43655 3.43994 4.45825 4.66772C4.43655 5.89549 4.90007 7.08226 5.74819 7.9703C6.13935 8.40673 6.61868 8.75518 7.1545 8.99262C7.69033 9.23005 8.27045 9.35107 8.85651 9.34767Z" fill="#2E7F1E"/>
    <path d="M17.239 14.9542C17.2118 14.5288 17.1574 14.0645 17.0758 13.5749C17 13.1066 16.8955 12.6433 16.7631 12.1878C16.6302 11.7404 16.4539 11.307 16.2366 10.894C16.0268 10.4847 15.7599 10.1073 15.444 9.77304C15.1197 9.44031 14.7319 9.17608 14.3036 8.99597C13.8431 8.8027 13.3479 8.70552 12.8485 8.71039C12.554 8.74577 12.2781 8.87285 12.0598 9.07366C11.8228 9.24074 11.5469 9.43307 11.238 9.65648C10.9074 9.87096 10.5501 10.0414 10.1754 10.1635C9.3355 10.4669 8.41593 10.4669 7.57605 10.1635C7.20125 10.0415 6.84401 9.87108 6.5134 9.65648L5.69164 9.07366C5.47333 8.87285 5.1974 8.74577 4.9029 8.71039C4.40348 8.70541 3.90832 8.8026 3.44782 8.99597C3.01953 9.17608 2.63175 9.44031 2.30746 9.77304C1.99151 10.1073 1.72464 10.4847 1.51484 10.894C1.29767 11.3071 1.12135 11.7404 0.98837 12.1878C0.855982 12.6434 0.75153 13.1066 0.675596 13.5749C0.594003 14.0645 0.539608 14.5288 0.51241 14.9542C0.485212 15.3797 0.471613 15.8051 0.471613 16.2441C0.447692 16.7443 0.523105 17.2442 0.693495 17.715C0.863885 18.1859 1.12587 18.6182 1.46433 18.9872C1.79766 19.3242 2.1974 19.5882 2.63819 19.7624C3.07897 19.9367 3.55117 20.0174 4.0248 19.9994H13.7266C14.1999 20.0171 14.6718 19.9363 15.1122 19.762C15.5526 19.5878 15.9521 19.324 16.2852 18.9872C16.6237 18.6183 16.8857 18.1859 17.0561 17.7151C17.2265 17.2443 17.3019 16.7443 17.2779 16.2441C17.2798 15.8051 17.2662 15.37 17.239 14.9542Z" fill="#2E7F1E"/>
</svg>
