<svg width="33" height="32" viewBox="0 0 33 32" fill="none" xmlns="http://www.w3.org/2000/svg">
    <path fill-rule="evenodd" clip-rule="evenodd" d="M0 0H32V17.276V21.9502V32H0V15.715V13.4875V0Z" fill="#016FD0"/>
    <path fill-rule="evenodd" clip-rule="evenodd" d="M6.21729 22.2922V17.2672H11.5404L12.1104 18.0127L12.698 17.2672H32.0085V21.9414C32.0085 21.9414 31.4998 22.2834 30.9211 22.2922H20.2222L19.5821 21.5029V22.2922H17.4774V20.9416C17.4774 20.9416 17.188 21.1346 16.5653 21.1346H15.8462V22.3009H12.6541L12.0841 21.538L11.5053 22.3009H6.21729V22.2922Z" fill="white"/>
    <path fill-rule="evenodd" clip-rule="evenodd" d="M-0.000183105 13.4883L1.20124 10.6908H3.27964L3.96366 12.2606V10.6908H6.5419L6.94529 11.8221L7.33991 10.6908H18.9157V11.2608C18.9157 11.2608 19.5208 10.6908 20.5205 10.6908L24.2739 10.7084L24.9404 12.2518V10.6908H27.0977L27.694 11.5765V10.6908H29.8688V15.7158H27.694L27.124 14.8213V15.7158H23.9494L23.6337 14.9265H22.7831L22.4673 15.7158H20.3188C19.4594 15.7158 18.9069 15.1545 18.9069 15.1545V15.7158H15.6622L15.022 14.9265V15.7158H2.96392L2.64823 14.9265H1.79759L1.48187 15.7158H-0.000183105V13.4883Z" fill="white"/>
    <path fill-rule="evenodd" clip-rule="evenodd" d="M1.63195 11.3131L0.00958252 15.0752H1.06194L1.3601 14.3211H3.09645L3.39461 15.0752H4.47327L2.85968 11.3131H1.63195ZM2.22827 12.1813L2.75445 13.4967H1.69334L2.22827 12.1813Z" fill="#016FD0"/>
    <path fill-rule="evenodd" clip-rule="evenodd" d="M4.5766 15.0655V11.3034L6.07621 11.3122L6.94438 13.7414L7.79503 11.3034H9.28583V15.0655H8.33873V12.2944L7.34777 15.0655H6.52344L5.52372 12.2944V15.0655H4.5766Z" fill="#016FD0"/>
    <path fill-rule="evenodd" clip-rule="evenodd" d="M9.92786 15.0655V11.3034H12.9972V12.1453H10.875V12.7942H12.9446V13.5835H10.875V14.25H12.9972V15.0655H9.92786Z" fill="#016FD0"/>
    <path fill-rule="evenodd" clip-rule="evenodd" d="M13.5408 11.3131V15.0752H14.4792V13.7423H14.8738L16.0051 15.0752H17.1539L15.9174 13.6897C16.426 13.6458 16.9522 13.2073 16.9522 12.5321C16.9522 11.7428 16.3296 11.3131 15.6368 11.3131H13.5408ZM14.4792 12.1462H15.5578C15.8122 12.1462 16.0051 12.3479 16.0051 12.5409C16.0051 12.7864 15.7595 12.9355 15.5754 12.9355H14.488L14.4792 12.1462Z" fill="#016FD0"/>
    <path fill-rule="evenodd" clip-rule="evenodd" d="M18.2922 15.0655H17.3275V11.3034H18.2922V15.0655Z" fill="#016FD0"/>
    <path fill-rule="evenodd" clip-rule="evenodd" d="M20.5738 15.0655H20.3633C19.3636 15.0655 18.7497 14.2763 18.7497 13.1977C18.7497 12.0927 19.3548 11.3034 20.6176 11.3034H21.6612V12.1979H20.5825C20.0651 12.1979 19.7056 12.6013 19.7056 13.2152C19.7056 13.943 20.1177 14.25 20.7228 14.25H20.9684L20.5738 15.0655Z" fill="#016FD0"/>
    <path fill-rule="evenodd" clip-rule="evenodd" d="M22.6156 11.3131L20.9932 15.0752H22.0456L22.3437 14.3211H24.0801L24.3783 15.0752H25.4569L23.8433 11.3131H22.6156ZM23.2119 12.1813L23.7381 13.4967H22.677L23.2119 12.1813Z" fill="#016FD0"/>
    <path fill-rule="evenodd" clip-rule="evenodd" d="M25.5719 15.0655V11.3034H26.7646L28.2905 13.6712V11.3034H29.2288V15.0655H28.0712L26.5102 12.6452V15.0655H25.5719Z" fill="#016FD0"/>
    <path fill-rule="evenodd" clip-rule="evenodd" d="M6.85712 21.6517V17.8896H9.92645V18.7315H7.80424V19.3716H9.87384V20.1696H7.80424V20.8361H9.92645V21.6517H6.85712Z" fill="#016FD0"/>
    <path fill-rule="evenodd" clip-rule="evenodd" d="M21.8965 21.6517V17.8896H24.9658V18.7315H22.8436V19.3716H24.9045V20.1696H22.8436V20.8361H24.9658V21.6517H21.8965Z" fill="#016FD0"/>
    <path fill-rule="evenodd" clip-rule="evenodd" d="M10.0488 21.6517L11.5396 19.7925L10.0137 17.8896H11.1976L12.1096 19.0646L13.0216 17.8896H14.1617L12.6445 19.775L14.1441 21.6517H12.9602L12.0745 20.4941L11.2151 21.6517H10.0488Z" fill="#016FD0"/>
    <path fill-rule="evenodd" clip-rule="evenodd" d="M14.2588 17.8896V21.6517H15.2234V20.4678H16.2144C17.0563 20.4678 17.6877 20.0206 17.6877 19.1611C17.6877 18.442 17.1878 17.8983 16.3372 17.8983H14.2588V17.8896ZM15.2234 18.7402H16.267C16.5389 18.7402 16.7318 18.9068 16.7318 19.1699C16.7318 19.4242 16.5389 19.5996 16.267 19.5996H15.2234V18.7402Z" fill="#016FD0"/>
    <path fill-rule="evenodd" clip-rule="evenodd" d="M18.0922 17.8896V21.6517H19.0306V20.3187H19.4252L20.5565 21.6517H21.7053L20.4688 20.2661C20.9774 20.2223 21.5036 19.7838 21.5036 19.1085C21.5036 18.3193 20.8809 17.8896 20.1882 17.8896H18.0922ZM19.0393 18.7315H20.118C20.3723 18.7315 20.5652 18.9331 20.5652 19.126C20.5652 19.3804 20.3197 19.5207 20.1355 19.5207H19.0481V18.7315H19.0393Z" fill="#016FD0"/>
    <path fill-rule="evenodd" clip-rule="evenodd" d="M25.3972 21.6526V20.8371H27.2827C27.5633 20.8371 27.686 20.688 27.686 20.5214C27.686 20.3635 27.5633 20.2057 27.2827 20.2057H26.432C25.6954 20.2057 25.2832 19.7584 25.2832 19.0832C25.2832 18.4781 25.6603 17.8993 26.7565 17.8993H28.5893L28.1947 18.7499H26.6074C26.3005 18.7499 26.2128 18.9078 26.2128 19.0569C26.2128 19.2147 26.3268 19.3813 26.5635 19.3813H27.458C28.2824 19.3813 28.6419 19.8461 28.6419 20.46C28.6419 21.1177 28.2473 21.6614 27.4142 21.6614L25.3972 21.6526Z" fill="#016FD0"/>
    <path fill-rule="evenodd" clip-rule="evenodd" d="M28.8522 21.6526V20.8371H30.6587C30.9393 20.8371 31.0621 20.688 31.0621 20.5214C31.0621 20.3635 30.9393 20.2057 30.6587 20.2057H29.887C29.1503 20.2057 28.7382 19.7584 28.7382 19.0832C28.7382 18.4781 29.1152 17.8993 30.2114 17.8993H32.0092L31.6146 18.7499H30.0711C29.7642 18.7499 29.6765 18.9078 29.6765 19.0569C29.6765 19.2147 29.7905 19.3813 30.0273 19.3813H30.8428C31.6672 19.3813 32.0267 19.8461 32.0267 20.46C32.0267 21.1177 31.6321 21.6614 30.799 21.6614L28.8522 21.6526Z" fill="#016FD0"/>
</svg>
