<svg width="132" height="84" viewBox="0 0 132 84" fill="none" xmlns="http://www.w3.org/2000/svg">
    <path d="M124.913 0H7.08725C3.17307 0 0 3.17307 0 7.08725V76.1879C0 80.1021 3.17307 83.2752 7.08725 83.2752H124.913C128.827 83.2752 132 80.1021 132 76.1879V7.08725C132 3.17307 128.827 0 124.913 0Z" fill="#3F7089"/>
    <path d="M124.913 0H7.08725C3.17307 0 0 3.17307 0 7.08725V75.302C0 79.2162 3.17307 82.3893 7.08725 82.3893H124.913C128.827 82.3893 132 79.2162 132 75.302V7.08725C132 3.17307 128.827 0 124.913 0Z" fill="#5493B6"/>
    <path d="M112.51 38.0938H91.2485C89.7807 38.0938 88.5908 39.2837 88.5908 40.7515V50.4964C88.5908 51.9643 89.7807 53.1542 91.2485 53.1542H112.51C113.978 53.1542 115.168 51.9643 115.168 50.4964V40.7515C115.168 39.2837 113.978 38.0938 112.51 38.0938Z" stroke="#ED1A1C" stroke-width="1.77181"/>
    <path d="M95.6961 49.752H95.0655V45.7187C95.0655 45.5655 95.0655 45.4345 95.0655 45.3255C95.068 45.2138 95.0706 45.1126 95.0732 45.0218C95.0784 44.9284 95.0849 44.8336 95.0927 44.7376C95.0122 44.8206 94.937 44.892 94.8669 44.9517C94.7968 45.0088 94.7099 45.0802 94.6061 45.1658L93.9559 45.6875L93.6172 45.2476L95.1589 44.0602H95.6961V49.752ZM101.583 49.752H97.8529V49.2108L99.3752 47.6652C99.6581 47.3797 99.8955 47.1254 100.088 46.9022C100.282 46.679 100.43 46.4597 100.531 46.2442C100.633 46.0262 100.683 45.7874 100.683 45.5279C100.683 45.2061 100.587 44.9608 100.395 44.7921C100.206 44.6208 99.9552 44.5351 99.6438 44.5351C99.3713 44.5351 99.1299 44.5819 98.9197 44.6753C98.7094 44.7687 98.494 44.9011 98.2734 45.0724L97.9269 44.6364C98.0774 44.5092 98.241 44.3963 98.4174 44.2977C98.5965 44.199 98.7873 44.1212 98.9897 44.0641C99.1948 44.007 99.4128 43.9784 99.6438 43.9784C99.9942 43.9784 100.297 44.0394 100.551 44.1614C100.805 44.2834 101.001 44.4573 101.139 44.6831C101.279 44.9089 101.349 45.1775 101.349 45.489C101.349 45.79 101.289 46.0703 101.17 46.3299C101.051 46.5868 100.883 46.8425 100.668 47.0968C100.452 47.3486 100.201 47.6159 99.9124 47.8988L98.6744 49.1329V49.1602H101.583V49.752ZM105.935 45.3877C105.935 45.6421 105.886 45.8627 105.787 46.0496C105.689 46.2364 105.551 46.3896 105.374 46.509C105.198 46.6258 104.99 46.7075 104.752 46.7542V46.7854C105.203 46.8425 105.542 46.9878 105.768 47.2214C105.996 47.455 106.11 47.7613 106.11 48.1402C106.11 48.4698 106.032 48.7618 105.877 49.0161C105.724 49.2705 105.487 49.4703 105.168 49.6157C104.852 49.7584 104.445 49.8298 103.95 49.8298C103.649 49.8298 103.37 49.8052 103.113 49.7558C102.858 49.7091 102.614 49.63 102.381 49.5184V48.911C102.617 49.0278 102.874 49.12 103.152 49.1874C103.429 49.2523 103.698 49.2848 103.957 49.2848C104.476 49.2848 104.852 49.1823 105.083 48.9772C105.313 48.7696 105.429 48.4867 105.429 48.1285C105.429 47.8819 105.364 47.6834 105.234 47.5329C105.107 47.3797 104.923 47.2681 104.682 47.1981C104.443 47.1254 104.155 47.089 103.817 47.089H103.249V46.5362H103.821C104.13 46.5362 104.392 46.4908 104.608 46.4C104.823 46.3091 104.986 46.1819 105.098 46.0184C105.212 45.8523 105.269 45.6564 105.269 45.4306C105.269 45.1425 105.173 44.9206 104.981 44.7648C104.789 44.6065 104.528 44.5274 104.199 44.5274C103.996 44.5274 103.812 44.5481 103.646 44.5896C103.48 44.6312 103.324 44.6883 103.179 44.7609C103.033 44.8336 102.888 44.918 102.743 45.014L102.416 44.5702C102.623 44.4093 102.876 44.2704 103.175 44.1536C103.473 44.0368 103.812 43.9784 104.191 43.9784C104.772 43.9784 105.208 44.1108 105.499 44.3755C105.79 44.6403 105.935 44.9777 105.935 45.3877ZM110.992 48.4322H110.14V49.752H109.509V48.4322H106.757V47.8871L109.466 44.029H110.14V47.8482H110.992V48.4322ZM109.509 47.8482V45.9873C109.509 45.8445 109.51 45.7161 109.513 45.6019C109.515 45.4851 109.519 45.3774 109.525 45.2787C109.53 45.1775 109.534 45.0815 109.536 44.9906C109.541 44.8998 109.545 44.8103 109.548 44.722H109.517C109.467 44.8258 109.41 44.9361 109.345 45.0529C109.283 45.1671 109.22 45.2696 109.155 45.3605L107.399 47.8482H109.509Z" fill="#212121"/>
    <path fill-rule="evenodd" clip-rule="evenodd" d="M14.0469 17.3223L10.7832 24.8773H12.9253L13.5251 23.3712H17.0094L17.6056 24.8773H19.769L16.4911 17.3223H14.0469ZM15.2464 19.0826L16.3175 21.7243H14.1753L15.2464 19.0826Z" fill="white"/>
    <path fill-rule="evenodd" clip-rule="evenodd" d="M19.9761 24.8773V17.3223L22.982 17.3329L24.7316 22.2054L26.4379 17.3249H29.4198V24.8799H27.5311V19.3111L25.5316 24.8773H23.8749L21.8648 19.3111V24.8773H19.9761Z" fill="white"/>
    <path fill-rule="evenodd" clip-rule="evenodd" d="M30.1934 24.8773V17.3223H36.3593V19.0108H32.1069V20.3033H36.2627V21.898H32.1034V23.2401H36.3557V24.879L30.1934 24.8773Z" fill="white"/>
    <path fill-rule="evenodd" clip-rule="evenodd" d="M37.2549 17.3222V24.8773H39.1437V22.1956H39.941L42.2044 24.8773H44.5078L42.0087 22.0964C42.5822 22.0392 43.1134 21.7691 43.4976 21.3394C43.8817 20.9097 44.0907 20.3516 44.0835 19.7753C44.0854 19.4364 44.0169 19.1007 43.8823 18.7897C43.7477 18.4786 43.55 18.1989 43.3016 17.9683C43.0532 17.7376 42.7597 17.5611 42.4395 17.4499C42.1193 17.3387 41.7795 17.2952 41.4417 17.3222H37.2549ZM39.1437 19.0143H41.3035C41.5258 19.006 41.7427 19.0839 41.9091 19.2316C42.0754 19.3793 42.1784 19.5855 42.1965 19.8072C42.1822 20.0261 42.0841 20.2311 41.9225 20.3796C41.761 20.5281 41.5485 20.6086 41.3292 20.6045H39.1445L39.1437 19.0143Z" fill="white"/>
    <path fill-rule="evenodd" clip-rule="evenodd" d="M46.6411 24.8773H44.7134V17.3223H46.6411V24.8773Z" fill="white"/>
    <path fill-rule="evenodd" clip-rule="evenodd" d="M51.1062 24.8773H50.6916C48.6779 24.8773 47.4536 23.2924 47.4536 21.1317C47.4536 18.9169 48.6638 17.3223 51.2063 17.3223H53.2953V19.1074H51.1301C50.8764 19.1133 50.6267 19.1723 50.3971 19.2805C50.1675 19.3887 49.9631 19.5437 49.797 19.7356C49.6309 19.9275 49.5067 20.152 49.4326 20.3947C49.3584 20.6374 49.3358 20.893 49.3663 21.145C49.3299 21.4229 49.3572 21.7056 49.4462 21.9714C49.5351 22.2373 49.6833 22.4795 49.8796 22.6797C50.0758 22.8799 50.315 23.0329 50.5791 23.127C50.8432 23.2212 51.1252 23.2541 51.4039 23.2233H51.9L51.1026 24.8729L51.1062 24.8773Z" fill="white"/>
    <path fill-rule="evenodd" clip-rule="evenodd" d="M55.0676 17.3223L51.8154 24.8773H53.9256L54.5254 23.3712H58.0097L58.6059 24.8773H60.772L57.5269 17.3223H55.0676ZM56.2671 19.0826L57.3382 21.7243H55.1961L56.2671 19.0826Z" fill="white"/>
    <path fill-rule="evenodd" clip-rule="evenodd" d="M60.7739 24.8773V17.3223H63.173L66.24 22.0672V17.3223H68.1287V24.8773H65.8041L62.6591 20.0048V24.8773H60.7739Z" fill="white"/>
    <path fill-rule="evenodd" clip-rule="evenodd" d="M71.481 24.887V17.332H77.6433V19.0206H73.391V20.3131H77.5468V21.9077H73.391V23.2499H77.6433V24.8888L71.481 24.887Z" fill="white"/>
    <path fill-rule="evenodd" clip-rule="evenodd" d="M100.526 24.887V17.332H106.688V19.0206H102.436V20.3131H106.57V21.9077H102.431V23.2499H106.683V24.8888L100.526 24.887Z" fill="white"/>
    <path fill-rule="evenodd" clip-rule="evenodd" d="M77.6816 24.8871L80.684 21.1566L77.6099 17.333H79.9912L81.8188 19.6966L83.6535 17.333H85.9462L82.9147 21.1105L85.9205 24.888H83.5366L81.7648 22.5599L80.0293 24.888L77.6816 24.8871Z" fill="white"/>
    <path fill-rule="evenodd" clip-rule="evenodd" d="M85.9434 17.3323V24.8873H87.8817V22.5024H89.867C91.5502 22.5024 92.8268 21.6094 92.8268 19.8748C92.8352 19.5239 92.7694 19.1752 92.6336 18.8515C92.4979 18.5278 92.2953 18.2364 92.0391 17.9965C91.7829 17.7565 91.479 17.5734 91.1471 17.4591C90.8152 17.3448 90.4629 17.3019 90.1133 17.3332L85.9434 17.3323ZM87.8817 19.0421H89.9742C90.0942 19.0309 90.2152 19.0453 90.3293 19.0842C90.4433 19.1232 90.5478 19.1859 90.6358 19.2682C90.7239 19.3505 90.7935 19.4505 90.8401 19.5616C90.8867 19.6727 90.9092 19.7924 90.9062 19.9129C90.9061 20.033 90.8811 20.1517 90.833 20.2616C90.7848 20.3716 90.7144 20.4704 90.6262 20.5518C90.538 20.6332 90.434 20.6956 90.3205 20.7349C90.2071 20.7742 90.0868 20.7896 89.9671 20.7802H87.8817V19.0421Z" fill="white"/>
    <path fill-rule="evenodd" clip-rule="evenodd" d="M93.4346 17.3322V24.8872H95.3233V22.202H96.1206L98.3841 24.8872H100.694L98.1945 22.1028C98.7673 22.0446 99.2974 21.774 99.6806 21.3444C100.064 20.9148 100.272 20.3573 100.265 19.7817C100.267 19.4432 100.199 19.1078 100.065 18.7971C99.9302 18.4863 99.7327 18.2069 99.4846 17.9765C99.2365 17.7462 98.9433 17.5699 98.6234 17.459C98.3035 17.3481 97.9641 17.3049 97.6267 17.3322H93.4346ZM95.3233 19.0207H97.4831C97.7063 19.0133 97.9238 19.092 98.0906 19.2403C98.2575 19.3887 98.361 19.5955 98.3797 19.818C98.3654 20.0369 98.2673 20.2419 98.1057 20.3904C97.9442 20.5389 97.7317 20.6194 97.5124 20.6153H95.3242L95.3233 19.0207Z" fill="white"/>
    <path fill-rule="evenodd" clip-rule="evenodd" d="M107.563 24.8871V23.2482H111.344C111.901 23.2482 112.142 22.9443 112.142 22.613C112.142 22.2817 111.899 21.9743 111.344 21.9743H109.636C109.329 22.0043 109.02 21.9668 108.729 21.8643C108.438 21.7619 108.174 21.597 107.953 21.3812C107.733 21.1654 107.563 20.9041 107.455 20.6155C107.347 20.3269 107.303 20.0181 107.327 19.7108C107.327 18.5006 108.083 17.333 110.29 17.333H113.967L113.17 19.0322H109.991C109.384 19.0322 109.193 19.3502 109.193 19.6567C109.193 19.7464 109.211 19.8352 109.247 19.9176C109.282 20 109.334 20.0743 109.399 20.1359C109.465 20.1975 109.542 20.245 109.626 20.2757C109.71 20.3063 109.8 20.3194 109.89 20.3141H111.674C113.327 20.3141 114.044 21.2531 114.044 22.4846C114.066 22.8109 114.016 23.1379 113.899 23.4432C113.782 23.7485 113.6 24.0248 113.366 24.2531C113.132 24.4814 112.851 24.6563 112.543 24.7657C112.235 24.8752 111.906 24.9166 111.581 24.8871H107.563Z" fill="white"/>
    <path fill-rule="evenodd" clip-rule="evenodd" d="M114.493 24.8871V23.2482H118.113C118.674 23.2482 118.917 22.9443 118.917 22.613C118.917 22.2817 118.674 21.9743 118.113 21.9743H116.567C116.26 22.0045 115.95 21.9672 115.659 21.8649C115.368 21.7625 115.103 21.5977 114.882 21.382C114.662 21.1663 114.491 20.9049 114.383 20.6161C114.274 20.3274 114.23 20.0184 114.253 19.7108C114.253 18.5006 115.01 17.333 117.217 17.333H120.822L120.025 19.0322H116.921C116.31 19.0322 116.123 19.3502 116.123 19.6567C116.123 19.748 116.142 19.8384 116.178 19.9221C116.215 20.0058 116.268 20.081 116.335 20.1428C116.403 20.2046 116.482 20.2518 116.568 20.2813C116.655 20.3108 116.746 20.3219 116.837 20.3141H118.466C120.122 20.3141 120.84 21.2531 120.84 22.4846C120.861 22.8109 120.812 23.1379 120.694 23.4432C120.577 23.7485 120.395 24.0248 120.161 24.2531C119.927 24.4814 119.646 24.6563 119.338 24.7657C119.03 24.8752 118.702 24.9166 118.376 24.8871H114.493Z" fill="white"/>
    <path d="M116.054 57.584H14.1743V68.2149H116.054V57.584Z" fill="white"/>
    <path d="M115.611 58.0264H14.6177V67.7713H115.611V58.0264Z" stroke="#EAECF0" stroke-width="0.885906"/>
</svg>
