<svg width="40" height="34" viewBox="0 0 20 17" fill="none" xmlns="http://www.w3.org/2000/svg">
    <path fill-rule="evenodd" clip-rule="evenodd" d="M8.70012 16.9814C4.24663 17.0017 0.581055 13.4164 0.581055 9.05111C0.581055 4.28042 4.24663 0.980563 8.70012 0.981445H10.7877C15.1882 0.980563 19.205 4.27866 19.205 9.05111C19.205 13.4142 15.1882 16.9814 10.7877 16.9814H8.70012Z" fill="#004C97"/>
    <path fill-rule="evenodd" clip-rule="evenodd" d="M8.70012 16.9814C4.24663 17.0017 0.581055 13.4164 0.581055 9.05111C0.581055 4.28042 4.24663 0.980563 8.70012 0.981445H8.81703C13.2171 0.980563 17.0698 4.27866 17.0698 9.05111C17.0698 13.4142 13.2171 16.9814 8.81703 16.9814H8.70012Z" fill="#004C97"/>
    <path fill-rule="evenodd" clip-rule="evenodd" d="M8.71841 1.64355C4.64873 1.64488 1.35107 4.92268 1.35107 8.96766C1.35107 13.0118 4.64873 16.2891 8.71841 16.2896C12.7885 16.2896 16.0866 13.0118 16.088 8.96766C16.0866 4.92224 12.7881 1.64444 8.71841 1.64355Z" fill="#FEFEFE"/>
    <path fill-rule="evenodd" clip-rule="evenodd" d="M7.04552 13.2982V4.63565C5.29412 5.30621 4.05226 6.99055 4.04785 8.96782C4.05226 10.9442 5.29456 12.6294 7.04552 13.2982ZM13.3898 8.96782C13.3863 6.98967 12.1427 5.30312 10.3895 4.63477V13.3004C12.1427 12.6312 13.3867 10.9464 13.3898 8.96782Z" fill="#004C97"/>
</svg>
