<svg width="41" height="24" viewBox="0 0 41 24" fill="none" xmlns="http://www.w3.org/2000/svg">
    <path d="M26.3458 2.52136H14.8688V21.4726H26.3458V2.52136Z" fill="#FF5F00"/>
    <path d="M15.7386 11.9977C15.7356 10.1835 16.1438 8.39228 16.9328 6.7586C17.7217 5.12493 18.8707 3.69135 20.2934 2.56564C18.9793 1.52659 17.4604 0.777179 15.8363 0.366589C14.2122 -0.0440004 12.5196 -0.106482 10.8697 0.183245C9.21972 0.472972 7.64968 1.10836 6.26262 2.0477C4.87556 2.98704 3.70283 4.2091 2.82141 5.63366C1.93167 7.06014 1.35082 8.65728 1.11635 10.3221C0.881869 11.9868 0.998967 13.6823 1.46008 15.299C1.9212 16.9158 2.7161 18.4179 3.7935 19.7085C4.8709 20.9991 6.20687 22.0496 7.71523 22.7921C9.72579 23.7766 11.9741 24.1716 14.1998 23.9313C16.4256 23.6911 18.5378 22.8253 20.2919 21.4343C18.8688 20.308 17.7198 18.8736 16.9311 17.2391C16.1424 15.6046 15.7347 13.8126 15.7386 11.9977Z" fill="#EB001B"/>
    <path d="M39.0703 19.4333V19.0523H39.2353V18.9742H38.8408V19.0523H38.9908V19.4333H39.0703ZM39.8354 19.4333V18.9742H39.7169L39.5774 19.3028L39.4379 18.9742H39.3178V19.4333H39.4034V19.0853L39.5324 19.3853H39.6224L39.7514 19.0853V19.4333H39.8354Z" fill="#F79E1B"/>
    <path d="M40.2054 11.9985C40.2091 14.2455 39.5819 16.4483 38.3953 18.3563C37.2086 20.2644 35.5102 21.801 33.4933 22.7913C31.4826 23.7757 29.2342 24.1705 27.0085 23.9299C24.7827 23.6894 22.6706 22.8233 20.9167 21.4321C22.3381 20.3044 23.4863 18.87 24.2756 17.2362C25.0649 15.6025 25.4749 13.8115 25.4749 11.997C25.4749 10.1826 25.0649 8.39157 24.2756 6.75779C23.4863 5.12401 22.3381 3.68968 20.9167 2.56193C22.2306 1.52281 23.7494 0.7733 25.3735 0.362597C26.9975 -0.048107 28.6901 -0.110722 30.34 0.178862C31.99 0.468446 33.56 1.10368 34.9471 2.04288C36.3343 2.98207 37.5071 4.20399 38.3886 5.62844C39.5765 7.53968 40.2059 9.7452 40.2054 11.9955V11.9985Z" fill="#F79E1B"/>
</svg>
