<svg width="52" height="24" viewBox="0 0 52 24" fill="none" xmlns="http://www.w3.org/2000/svg">
    <path d="M30.6686 8.45388C30.6826 7.88075 31.2277 7.27267 32.4159 7.1189C33.003 7.04202 34.6316 6.98609 36.4768 7.83181L37.2037 4.45594C36.2112 4.09249 34.9391 3.75 33.3455 3.75C29.2707 3.75 26.405 5.91672 26.3841 9.02002C26.3561 11.3125 28.432 12.5916 29.9906 13.3604C31.5982 14.1432 32.1363 14.6395 32.1294 15.3384C32.1154 16.4078 30.8503 16.8761 29.6621 16.8971C27.5932 16.932 26.3841 16.3379 25.4265 15.8906L24.6786 19.3853C25.6432 19.8256 27.4185 20.21 29.2637 20.231C33.5971 20.231 36.4278 18.0923 36.4418 14.7793C36.4558 10.5647 30.6266 10.334 30.6686 8.45388Z" fill="url(#paint0_linear_56935_47276)"/>
    <path d="M21.1359 4.04395L17.7251 19.9728H21.8488L25.2597 4.04395H21.1359Z" fill="url(#paint1_linear_56935_47276)"/>
    <path d="M15.0412 4.04395L10.7497 14.8915L9.01633 5.67247C8.81364 4.64502 8.00986 4.05092 7.11521 4.05092H0.0978513L0 4.51222C1.43982 4.82675 3.07534 5.32999 4.06783 5.86817C4.67591 6.19667 4.85065 6.48324 5.04635 7.26605L8.33137 19.9798H12.6858L19.3607 4.04395H15.0412Z" fill="url(#paint2_linear_56935_47276)"/>
    <path d="M47.6817 4.04395H44.166C43.3762 4.04395 42.7053 4.50523 42.4117 5.21116L36.2261 19.9798H40.5525L41.4122 17.5964H46.6962L47.1925 19.9798H51.0017L47.6817 4.04395ZM42.6004 14.3324L44.7671 8.3494L46.0182 14.3324H42.6004Z" fill="url(#paint3_linear_56935_47276)"/>
    <defs>
        <linearGradient id="paint0_linear_56935_47276" x1="0.225653" y1="11.9869" x2="50.7819" y2="11.9869" gradientUnits="userSpaceOnUse">
            <stop stop-color="#241F5D"/>
            <stop offset="1" stop-color="#034EA1"/>
        </linearGradient>
        <linearGradient id="paint1_linear_56935_47276" x1="0.226559" y1="12.0084" x2="50.7828" y2="12.0084" gradientUnits="userSpaceOnUse">
            <stop stop-color="#241F5D"/>
            <stop offset="1" stop-color="#034EA1"/>
        </linearGradient>
        <linearGradient id="paint2_linear_56935_47276" x1="0.226597" y1="12.0084" x2="50.7829" y2="12.0084" gradientUnits="userSpaceOnUse">
            <stop stop-color="#241F5D"/>
            <stop offset="1" stop-color="#034EA1"/>
        </linearGradient>
        <linearGradient id="paint3_linear_56935_47276" x1="0.226561" y1="12.0084" x2="50.7828" y2="12.0084" gradientUnits="userSpaceOnUse">
            <stop stop-color="#241F5D"/>
            <stop offset="1" stop-color="#034EA1"/>
        </linearGradient>
    </defs>
</svg>
