<svg width="132" height="86" viewBox="0 0 132 86" fill="none" xmlns="http://www.w3.org/2000/svg">
    <path d="M124.717 0H7.28276C3.2606 0 0 3.2606 0 7.28276V78.2896C0 82.3118 3.2606 85.5724 7.28276 85.5724H124.717C128.739 85.5724 132 82.3118 132 78.2896V7.28276C132 3.2606 128.739 0 124.717 0Z" fill="#D5DBE8"/>
    <path d="M124.717 0H7.28276C3.2606 0 0 3.2606 0 7.28276V77.3793C0 81.4015 3.2606 84.6621 7.28276 84.6621H124.717C128.739 84.6621 132 81.4015 132 77.3793V7.28276C132 3.2606 128.739 0 124.717 0Z" fill="#F3F5F9"/>
    <path d="M131.91 16.6074H0V33.904H131.91V16.6074Z" fill="#C3CCDF"/>
    <path d="M79.1997 54.3721H15.4756V65.2962H79.1997V54.3721Z" fill="white"/>
    <path d="M78.7445 54.8271H15.9307V64.8409H78.7445V54.8271Z" stroke="#EAECF0" stroke-width="0.910345"/>
    <path d="M113.702 49.8018H91.8536C90.3453 49.8018 89.1226 51.0245 89.1226 52.5328V61.6362C89.1226 63.1445 90.3453 64.3673 91.8536 64.3673H113.702C115.21 64.3673 116.433 63.1445 116.433 61.6362V52.5328C116.433 51.0245 115.21 49.8018 113.702 49.8018Z" stroke="#ED1A1C" stroke-width="1.82069"/>
    <path d="M98.8119 60.8896H98.1638V56.7451C98.1638 56.5877 98.1638 56.4531 98.1638 56.341C98.1665 56.2264 98.1692 56.1223 98.1718 56.029C98.1772 55.933 98.1838 55.8356 98.1919 55.737C98.1092 55.8223 98.0318 55.8956 97.9598 55.957C97.8878 56.0157 97.7985 56.089 97.6918 56.177L97.0237 56.7131L96.6756 56.261L98.2599 55.0409H98.8119V60.8896ZM104.861 60.8896H101.028V60.3336L102.592 58.7454C102.883 58.452 103.127 58.1906 103.325 57.9613C103.525 57.7319 103.677 57.5065 103.781 57.2852C103.885 57.0611 103.937 56.8158 103.937 56.5491C103.937 56.2184 103.838 55.9663 103.641 55.793C103.446 55.6169 103.189 55.5289 102.868 55.5289C102.588 55.5289 102.34 55.5769 102.124 55.6729C101.908 55.769 101.687 55.905 101.46 56.081L101.104 55.6329C101.259 55.5023 101.427 55.3862 101.608 55.2849C101.792 55.1835 101.988 55.1035 102.196 55.0449C102.407 54.9862 102.631 54.9568 102.868 54.9568C103.229 54.9568 103.539 55.0195 103.801 55.1449C104.062 55.2702 104.263 55.4489 104.405 55.6809C104.549 55.913 104.621 56.189 104.621 56.5091C104.621 56.8184 104.559 57.1065 104.437 57.3732C104.314 57.6372 104.142 57.8999 103.921 58.1613C103.699 58.42 103.441 58.6947 103.145 58.9854L101.872 60.2536V60.2816H104.861V60.8896ZM109.333 56.405C109.333 56.6664 109.283 56.8931 109.181 57.0851C109.08 57.2772 108.939 57.4345 108.757 57.5572C108.576 57.6772 108.363 57.7612 108.117 57.8092V57.8412C108.581 57.8999 108.929 58.0493 109.161 58.2893C109.396 58.5293 109.513 58.844 109.513 59.2334C109.513 59.5721 109.433 59.8722 109.273 60.1335C109.116 60.3949 108.873 60.6003 108.545 60.7496C108.22 60.8963 107.802 60.9697 107.293 60.9697C106.984 60.9697 106.697 60.9443 106.433 60.8936C106.172 60.8456 105.921 60.7643 105.681 60.6496V60.0255C105.924 60.1455 106.188 60.2402 106.473 60.3096C106.758 60.3762 107.034 60.4096 107.301 60.4096C107.834 60.4096 108.22 60.3042 108.457 60.0935C108.695 59.8802 108.813 59.5895 108.813 59.2214C108.813 58.9681 108.747 58.764 108.613 58.6093C108.483 58.452 108.293 58.3373 108.045 58.2653C107.8 58.1906 107.504 58.1533 107.157 58.1533H106.573V57.5852H107.161C107.478 57.5852 107.748 57.5385 107.969 57.4452C108.191 57.3518 108.359 57.2212 108.473 57.0531C108.591 56.8824 108.649 56.6811 108.649 56.4491C108.649 56.153 108.551 55.925 108.353 55.765C108.156 55.6023 107.888 55.5209 107.549 55.5209C107.341 55.5209 107.152 55.5423 106.981 55.5849C106.81 55.6276 106.65 55.6863 106.501 55.761C106.352 55.8356 106.202 55.9223 106.053 56.021L105.717 55.5649C105.93 55.3996 106.19 55.2569 106.497 55.1369C106.804 55.0169 107.152 54.9568 107.541 54.9568C108.139 54.9568 108.587 55.0929 108.885 55.3649C109.184 55.6369 109.333 55.9837 109.333 56.405Z" fill="#212121"/>
</svg>
